<svg width="123" height="88" viewBox="0 0 123 88" xmlns="http://www.w3.org/2000/svg"><g stroke="#0073F9" stroke-width="3" fill="none" fill-rule="evenodd"><path class="draw-hex" d="M18.834 40.498L38.6 51.91a2.174 2.174 0 0 0 2.176-.003L60.57 40.45a2.186 2.186 0 0 0 1.09-1.889l.027-22.87c0-.778-.413-1.498-1.086-1.886L40.834 2.393a2.174 2.174 0 0 0-2.177.002L18.864 13.852a2.186 2.186 0 0 0-1.09 1.89l-.026 22.87a2.175 2.175 0 0 0 1.086 1.886m59.76 33.85L98.36 85.76a2.174 2.174 0 0 0 2.177-.002L120.33 74.3a2.186 2.186 0 0 0 1.09-1.889l.027-22.87c0-.778-.414-1.497-1.087-1.886l-19.766-11.412a2.174 2.174 0 0 0-2.177.002L78.624 47.703a2.186 2.186 0 0 0-1.09 1.889l-.027 22.87c0 .778.414 1.497 1.087 1.886"/><path class="draw-line" d="M1.12 49.435l16.802-9.7M77.769 49l-16.802-9.701"/></g></svg>