<svg width="180" height="204" viewBox="0 0 180 204" xmlns="http://www.w3.org/2000/svg" xmlns:xlink="http://www.w3.org/1999/xlink"><title>Bit_to Git</title><defs><path id="a" d="M0 50.832V.252h51.729v50.58z"/></defs><g transform="translate(2.422 1.406)" fill="none" fill-rule="evenodd"><path d="M175.53 145.714V54.765a8.665 8.665 0 0 0-4.344-7.507L92.258 1.784a8.704 8.704 0 0 0-8.687 0L4.64 47.258a8.665 8.665 0 0 0-4.343 7.507v90.949a8.665 8.665 0 0 0 4.344 7.507l78.929 45.474a8.704 8.704 0 0 0 8.687 0l78.928-45.474a8.666 8.666 0 0 0 4.344-7.507" stroke="#CBDFFC" stroke-width="4" fill="#FAFCFF"/><path d="M151.824 97.436l-23.168-23.099a3.425 3.425 0 0 0-4.833 0l-4.81 4.797 6.102 6.085a4.066 4.066 0 0 1 4.175.97 4.04 4.04 0 0 1 .964 4.188l5.882 5.864a4.067 4.067 0 0 1 4.202.962 4.045 4.045 0 0 1 0 5.733 4.075 4.075 0 0 1-5.753 0 4.046 4.046 0 0 1-.884-4.409l-5.486-5.469v14.392a4.047 4.047 0 0 1 1.075 6.501 4.076 4.076 0 0 1-5.75 0 4.047 4.047 0 0 1 1.332-6.619V92.806a4.045 4.045 0 0 1-2.207-5.317l-6.016-5.998-15.886 15.837a3.403 3.403 0 0 0 0 4.82l23.168 23.099a3.426 3.426 0 0 0 4.833 0l23.06-22.992a3.4 3.4 0 0 0 0-4.82" fill="#F05033"/><g transform="translate(20.233 73.248)"><mask id="b" fill="#fff"><use xlink:href="#a"/></mask><path d="M50.955 31.66C47.5 45.209 33.464 53.453 19.605 50.075 5.752 46.697-2.681 32.974.776 19.426 4.228 5.876 18.264-2.37 32.118 1.007 45.978 4.386 54.41 18.111 50.955 31.66" fill="#F8931A" mask="url(#b)"/></g><path d="M51.891 95.136c-.8 3.135-5.74 1.542-7.341 1.152l1.413-5.54c1.601.39 6.761 1.119 5.928 4.388m-.877 8.94c-.878 3.447-6.812 1.584-8.736 1.117l1.559-6.11c1.924.47 8.093 1.4 7.177 4.994m6.484-8.891c.514-3.365-2.106-5.174-5.69-6.381l1.163-4.558-2.839-.691-1.13 4.438c-.747-.183-1.513-.353-2.275-.523l1.14-4.469-2.836-.691-1.164 4.557c-.618-.138-1.224-.274-1.812-.416l.004-.015-3.914-.955-.756 2.963s2.106.473 2.061.501c1.15.28 1.358 1.025 1.323 1.614l-1.325 5.193c.08.02.183.05.296.093l-.3-.072-1.856 7.275c-.14.341-.498.853-1.301.659.028.04-2.062-.504-2.062-.504l-1.41 3.177 3.694.9c.687.168 1.36.344 2.024.51l-1.176 4.61 2.835.692 1.164-4.561c.775.204 1.525.395 2.262.574l-1.16 4.54 2.839.69 1.174-4.6c4.84.895 8.478.534 10.011-3.746 1.234-3.446-.062-5.433-2.608-6.73 1.855-.418 3.251-1.61 3.624-4.074" fill="#FFF"/><path d="M62.269 61.488A30.59 30.59 0 0 1 76.012 49.98c13.464-5.715 28.716-1.098 36.876 10.28" stroke="#B6C8E4" stroke-width="4" stroke-linecap="round"/><path d="M112.857 135.815a30.237 30.237 0 0 1-13.973 10.893c-13.498 5.182-28.405.094-36.074-11.427" stroke="#B6C9E5" stroke-width="4" stroke-linecap="round"/><circle stroke="#B6C8E4" stroke-width="3" fill="#F9FCFF" cx="113.511" cy="136.085" r="4"/><circle stroke="#B6C8E4" stroke-width="3" fill="#F9FCFF" cx="62.578" cy="135.594" r="4"/><circle stroke="#B6C8E4" stroke-width="3" fill="#F9FCFF" cx="113.511" cy="63.085" r="4"/><circle stroke="#B6C8E4" stroke-width="3" fill="#F9FCFF" cx="62.578" cy="62.594" r="4"/></g></svg>