<?xml version="1.0" encoding="UTF-8" standalone="no"?>
<svg width="233px" height="265px" viewBox="0 0 233 265" version="1.1" xmlns="http://www.w3.org/2000/svg" xmlns:xlink="http://www.w3.org/1999/xlink">
    <!-- Generator: Sketch 43.2 (39069) - http://www.bohemiancoding.com/sketch -->
    <title>Bit_to Git</title>
    <desc>Created with Sketch.</desc>
    <defs>
        <polygon id="path-1" points="0 66.335391 0 0.32774467 67.3063143 0.32774467 67.3063143 66.335391"></polygon>
    </defs>
    <g id="Page-1" stroke="none" stroke-width="1" fill="none" fill-rule="evenodd">
        <g id="Main_page" transform="translate(-877.000000, -1869.000000)">
            <g id="Use-Cases" transform="translate(312.000000, 1646.515625)">
                <g id="1" transform="translate(0.000000, 223.000000)">
                    <g id="Bit_to-Git" transform="translate(567.421875, 0.890625)">
                        <path d="M228.388207,190.156211 L228.388207,71.4689176 C228.388207,67.4270502 226.234094,63.6929206 222.736693,61.6716834 L120.039722,2.32803684 C116.542927,0.307406588 112.234094,0.307406588 108.736693,2.32803684 L6.03972168,61.6716834 C2.54232037,63.6923136 0.388207412,67.4270502 0.388207412,71.4689176 L0.388207412,190.156211 C0.388207412,194.198078 2.54232037,197.932208 6.03972168,199.953445 L108.736693,259.297091 C112.234094,261.317722 116.54232,261.317722 120.039722,259.297091 L222.736693,199.953445 C226.233488,197.932815 228.388207,194.198078 228.388207,190.156211" id="Fill-1" stroke="#D1E2FC" stroke-width="4" fill="#FFFFFF"></path>
                        <g id="4" transform="translate(129.349119, 94.834534)" fill="#F05033">
                            <path d="M68.1947002,32.3188151 L38.0503709,2.17523721 C36.3146995,0.43881444 33.4993053,0.43881444 31.7621311,2.17523721 L25.5031949,8.43567619 L33.4429523,16.376185 C35.2883241,15.7525455 37.4041902,16.1710602 38.8753783,17.6414969 C40.3540802,19.1217015 40.768838,21.2556006 40.1294197,23.1077348 L47.782904,30.7604677 C49.6350382,30.1218008 51.77044,30.5350558 53.2491419,32.0160118 C55.3154173,34.0815359 55.3154173,37.4304049 53.2491419,39.4974318 C51.1813637,41.56521 47.833246,41.56521 45.7647164,39.4974318 C44.2108773,37.9420899 43.8261744,35.6579163 44.6143645,33.7434181 L37.476322,26.606127 L37.476322,45.3881953 C37.9797418,45.6376511 38.4553609,45.9697579 38.8753783,46.3882726 C40.9416538,48.4545481 40.9416538,51.8026657 38.8753783,53.8719467 C36.8091029,55.9374708 33.4587311,55.9374708 31.393207,53.8719467 C29.3269316,51.8026657 29.3269316,48.4545481 31.393207,46.3882726 C31.9041406,45.8780904 32.4954711,45.4918847 33.1266243,45.2341638 L33.1266243,26.277777 C32.4954711,26.0200561 31.9056433,25.6368559 31.393207,25.1236682 C29.8288487,23.5593099 29.4516595,21.2616115 30.2548771,19.3395997 L22.4270742,11.5110455 L1.75680583,32.1790597 C0.0211344387,33.9169853 0.0211344387,36.7323795 1.75680583,38.4688023 L31.9026378,68.6123802 C33.6383092,70.3480516 36.4529521,70.3480516 38.1908776,68.6123802 L68.1947002,38.6085576 C69.9318743,36.8721349 69.9318743,34.0552379 68.1947002,32.3188151" id="Fill-1"></path>
                        </g>
                        <g id="Page-1" transform="translate(26.325259, 95.586935)">
                            <g id="Group-3" transform="translate(0.000000, 0.001134)">
                                <mask id="mask-2" fill="white">
                                    <use xlink:href="#path-1"></use>
                                </mask>
                                <g id="Clip-2"></g>
                                <path d="M66.2995541,41.3157899 C61.8032108,58.9973119 43.5412207,69.7563901 25.5095696,65.3473545 C7.4831773,60.9393503 -3.49000378,43.0309305 1.00844302,25.3514712 C5.50057916,7.66891788 23.7636211,-3.09222307 41.7900133,1.31474984 C59.8227163,5.72378545 70.7937938,23.6342679 66.2995541,41.3157899" id="Fill-1" fill="#F8931A" mask="url(#mask-2)"></path>
                            </g>
                            <path d="M41.1924993,28.5655808 C40.1512408,32.6569596 33.7238365,30.5777512 31.6402678,30.0682627 L33.4787726,22.8384756 C35.5623413,23.3479642 42.2758288,24.298872 41.1924993,28.5655808 M40.0502703,40.2332814 C38.9090932,44.7299821 31.1869523,42.2990822 28.683725,41.6895523 L30.7126012,33.7171909 C33.2158286,34.3308461 41.2429845,35.5437177 40.0502703,40.2332814 M48.487619,28.6305561 C49.1565487,24.2400849 45.747742,21.879317 41.0841663,20.3034091 L42.5976723,14.3555943 L38.9038343,13.4531601 L37.4323994,19.2452405 C36.4616099,19.0069979 35.4645261,18.7842256 34.4727011,18.5624846 L35.9557056,12.7312127 L32.2660747,11.8287785 L30.751517,17.775562 C29.9479599,17.5961065 29.1591278,17.4187137 28.3944865,17.2330701 L28.3986936,17.2134744 L23.3059932,15.9665682 L22.3225825,19.8341433 C22.3225825,19.8341433 25.0635113,20.4508926 25.0046118,20.4880213 C26.5002376,20.8541518 26.7715958,21.8256866 26.7263694,22.5940449 L25.0025083,29.3710678 C25.1066341,29.397883 25.2402097,29.4350117 25.3874583,29.4917362 C25.2633488,29.4618269 25.1318767,29.429855 24.9972494,29.397883 L22.5823712,38.8914907 C22.3993622,39.3370353 21.9344771,40.0053523 20.8890115,39.7516394 C20.9258237,39.8042384 18.2059305,39.0946673 18.2059305,39.0946673 L16.3716328,43.2396764 L21.17825,44.4143879 C22.071208,44.6340662 22.9473376,44.864058 23.8108458,45.0806422 L22.2815632,51.0975577 L25.9701424,51.9999919 L27.4847001,46.0470203 C28.4923017,46.3141408 29.4694018,46.562697 30.4275699,46.7957828 L28.9193228,52.7198765 L32.6121091,53.6223107 L34.1403399,47.6177715 C40.4362722,48.7862948 45.1713686,48.3149663 47.1655363,42.7301879 C48.7715986,38.2334872 47.0845495,35.6396335 43.7725063,33.948214 C46.1852809,33.4015967 48.0027502,31.8463159 48.487619,28.6305561" id="Fill-4" fill="#FFFFFF"></path>
                        </g>
                        <g id="Group-47" transform="translate(114.985542, 78.630496) rotate(-23.000000) translate(-114.985542, -78.630496) translate(80.485542, 58.130496)">
                            <path d="M0.211598925,7.65238485 C6.57996379,3.34996633 14.2577604,0.83755234 22.5215457,0.83755234 C41.5532625,0.83755234 57.4731412,14.1613043 61.4624123,31.9900389" id="Stroke-1" stroke="#B6C8E4" stroke-width="4" stroke-linecap="round"></path>
                            <polygon id="Fill-3" fill="#B6C8E4" points="61.6115025 40.3508449 51.7640701 29.1218705 68.5507791 27.1251158"></polygon>
                        </g>
                        <g id="Group-47" transform="translate(110.497164, 177.024636) rotate(159.000000) translate(-110.497164, -177.024636) translate(76.497164, 157.024636)">
                            <path d="M0.145469634,6.73604088 C6.4403003,2.4833015 14.0294429,-0.000102155642 22.1978081,-0.000102155642 C41.0097696,-0.000102155642 56.7458247,13.1698032 60.6890324,30.792673" id="Stroke-1" stroke="#B6C9E5" stroke-width="4" stroke-linecap="round"></path>
                            <polygon id="Fill-3" fill="#B6C8E4" points="60.8356708 39.053617 51.1068908 27.9599414 67.6913355 25.9872458"></polygon>
                        </g>
                    </g>
                </g>
            </g>
        </g>
    </g>
</svg>