<svg width="233" height="265" viewBox="0 0 233 265" xmlns="http://www.w3.org/2000/svg" xmlns:xlink="http://www.w3.org/1999/xlink">
  <title>
    Bit_to Git
  </title>
  <defs>
    <path id="a" d="M0 66.335V.328h67.306v66.007z"/>
  </defs>
  <g fill="none" fill-rule="evenodd">
    <path d="M230.81 191.562V72.875c0-4.042-2.154-7.776-5.651-9.797L122.462 3.734a11.296 11.296 0 0 0-11.303 0L8.462 63.078a11.314 11.314 0 0 0-5.652 9.797v118.687c0 4.042 2.154 7.776 5.652 9.798l102.697 59.343a11.296 11.296 0 0 0 11.303 0l102.697-59.343a11.315 11.315 0 0 0 5.651-9.798" stroke="#D1E2FC" stroke-width="4" fill="#FFF"/>
    <path d="M199.966 128.56L169.82 98.416a4.447 4.447 0 0 0-6.288 0l-6.259 6.26 7.94 7.941a5.28 5.28 0 0 1 6.686 6.732l7.654 7.652a5.28 5.28 0 0 1 5.466 1.256 5.29 5.29 0 0 1 0 7.481 5.29 5.29 0 0 1-8.635-5.754l-7.138-7.137v18.782c.504.25.98.582 1.4 1a5.292 5.292 0 0 1-7.483 7.484 5.292 5.292 0 0 1 1.734-8.638v-18.956a5.29 5.29 0 0 1-2.872-6.938l-7.828-7.83-20.67 20.669a4.45 4.45 0 0 0 0 6.29l30.146 30.143a4.448 4.448 0 0 0 6.288 0l30.004-30.004a4.447 4.447 0 0 0 0-6.29" fill="#F05033"/>
    <g transform="translate(28.747 96.994)">
      <mask id="b" fill="#fff">
        <use xlink:href="#a"/>
      </mask>
      <path d="M66.3 41.316c-4.497 17.681-22.759 28.44-40.79 24.031-18.027-4.408-29-22.316-24.502-39.996C5.501 7.67 23.764-3.092 41.79 1.315c18.033 4.409 29.004 22.32 24.51 40" fill="#F8931A" mask="url(#b)"/>
    </g>
    <path d="M69.94 125.559c-1.042 4.091-7.469 2.012-9.553 1.502l1.839-7.23c2.083.51 8.797 1.461 7.714 5.728m-1.143 11.667c-1.14 4.497-8.863 2.066-11.366 1.457l2.029-7.973c2.503.614 10.53 1.827 9.337 6.516m8.438-11.602c.669-4.39-2.74-6.751-7.404-8.327l1.514-5.948-3.694-.903-1.471 5.792c-.971-.238-1.968-.46-2.96-.682l1.483-5.832-3.69-.902-1.514 5.947a131.51 131.51 0 0 1-2.357-.543l.004-.02-5.093-1.246-.983 3.867s2.74.617 2.682.654c1.495.366 1.767 1.338 1.722 2.106l-1.724 6.777c.104.027.237.064.385.12l-.39-.093-2.415 9.494c-.184.445-.648 1.114-1.694.86.037.052-2.683-.657-2.683-.657l-1.834 4.145 4.806 1.175c.893.22 1.77.45 2.633.666l-1.53 6.017 3.69.902 1.514-5.953c1.007.267 1.985.516 2.943.749l-1.509 5.924 3.693.902 1.528-6.004c6.296 1.168 11.032.697 13.026-4.888 1.606-4.496-.081-7.09-3.393-8.782 2.412-.546 4.23-2.101 4.715-5.317" fill="#FFF"/>
    <path d="M80.825 81.608a39.718 39.718 0 0 1 17.873-14.99c17.52-7.437 37.38-1.392 48.018 13.46" stroke="#B6C8E4" stroke-width="4" stroke-linecap="round"/>
    <path fill="#B6C8E4" d="M150.12 87.716l-13.452-6.488 14.672-8.398z"/>
    <path d="M149.278 178.681a39.26 39.26 0 0 1-18.173 14.192c-17.563 6.742-36.973.086-46.97-14.953" stroke="#B6C9E5" stroke-width="4" stroke-linecap="round"/>
    <path fill="#B6C8E4" d="M81.038 170.26l13.058 6.87-14.776 7.785z"/>
  </g>
</svg>
