<svg width="233" height="265" viewBox="0 0 233 265" xmlns="http://www.w3.org/2000/svg">
  <title>
    Ethereum to IPFS
  </title>
  <g fill="none" fill-rule="evenodd">
    <path d="M230.67 191.766V73.079c0-4.042-2.153-7.776-5.65-9.798L122.321 3.938a11.296 11.296 0 0 0-11.303 0L8.322 63.28a11.314 11.314 0 0 0-5.651 9.798v118.687c0 4.042 2.154 7.776 5.651 9.797l102.697 59.344a11.296 11.296 0 0 0 11.303 0l102.697-59.344a11.315 11.315 0 0 0 5.652-9.797" stroke="#D1E2FC" stroke-width="4" fill="#FFF"/>
    <path d="M81.453 82.593a40.109 40.109 0 0 1 18.05-15.138c17.69-7.51 37.746-1.406 48.49 13.593" stroke="#B6C8E4" stroke-width="4" stroke-linecap="round"/>
    <path fill="#B6C8E4" d="M151.43 88.76l-13.585-6.552 14.817-8.48z"/>
    <path d="M150.58 180.621a39.646 39.646 0 0 1-18.353 14.331c-17.735 6.808-37.336.087-47.431-15.1" stroke="#B6C8E4" stroke-width="4" stroke-linecap="round"/>
    <g fill-rule="nonzero">
      <path fill="#4A9EA1" d="M133.472 150.236l31.438 18.151 31.439-18.151v-36.303l-31.439-18.15-31.438 18.152z"/>
      <path d="M161.665 100.155l-22.794 13.16c.046.405.046.814 0 1.219l22.795 13.16a5.445 5.445 0 0 1 6.466 0l22.796-13.16a5.437 5.437 0 0 1 0-1.218l-22.794-13.16a5.446 5.446 0 0 1-6.467 0h-.002zm31.451 18.014l-22.82 13.307a5.445 5.445 0 0 1-3.232 5.6l.025 26.175c.374.163.727.367 1.055.609l22.796-13.16a5.446 5.446 0 0 1 3.233-5.6v-26.322a5.445 5.445 0 0 1-1.055-.609h-.002zm-56.412.146a5.443 5.443 0 0 1-1.055.61v26.32a5.445 5.445 0 0 1 3.233 5.6l22.795 13.16a5.445 5.445 0 0 1 1.054-.609v-26.32a5.445 5.445 0 0 1-3.233-5.6l-22.794-13.161z" fill="#63D3D7"/>
      <g fill="#000">
        <path fill-opacity=".251" d="M164.91 168.387l31.44-18.151v-36.303l-31.44 18.151z"/>
        <path fill-opacity=".039" d="M164.91 168.387v-36.303l-31.438-18.15v36.302z"/>
        <path fill-opacity=".13" d="M133.472 113.933l31.438 18.151 31.439-18.15-31.439-18.152z"/>
      </g>
      <path d="M143.227 122.158h-4.14v20.023h4.14zm7.215 20.023v-7.346c1.021.086 2.042.086 2.893.086 5.899 0 7.6-2.922 7.6-6.524 0-4.367-3.119-6.24-7.94-6.24H146.3v20.024h4.141zm2.24-10.182c-.765 0-1.9 0-2.24-.028v-6.807h2.58c2.497 0 3.915 1.191 3.915 3.375v.057c0 1.702-.624 3.403-4.254 3.403zm22.432-9.841h-12.565v20.023h4.141v-8.82h7.856v-3.007h-7.884v-5.161h8.168zm13.551 3.914l1.077-2.78c-1.616-1.162-3.8-1.588-6.551-1.588-3.999 0-7.289 1.872-7.289 5.7 0 3.433 2.524 4.794 5.048 5.616l2.525.851c1.73.596 3.148 1.163 3.148 3.035 0 1.702-1.475 2.382-3.716 2.382-2.269 0-4.708-.68-6.097-1.56l-1.078 3.007c1.815 1.162 4.112 1.73 7.204 1.73 4.396 0 7.8-1.929 7.8-6.041 0-3.83-2.922-5.049-5.872-6.041l-2.75-.908c-1.192-.397-2.1-.936-2.1-2.467 0-1.56 1.277-2.184 3.177-2.184 2.326 0 4.14.425 5.474 1.248z" fill="#FFF"/>
    </g>
    <path fill="#B6C8E4" d="M81.668 172.117l13.186 6.937-14.92 7.862z"/>
    <g fill-rule="nonzero">
      <path fill="#343434" d="M58.676 87.61l-.575 1.955v56.719l.575.574 26.328-15.563z"/>
      <path fill="#8C8C8C" d="M58.676 87.61l-26.328 43.685 26.328 15.563v-27.53z"/>
      <path fill="#3C3C3B" d="M58.676 151.843l-.324.395v20.204l.324.947 26.344-37.101z"/>
      <path fill="#8C8C8C" d="M58.676 173.389v-21.547l-26.328-15.554z"/>
      <path fill="#141414" d="M58.676 146.858l26.328-15.563-26.328-11.967z"/>
      <path fill="#393939" d="M32.348 131.295l26.328 15.563v-27.53z"/>
    </g>
  </g>
</svg>
