<?xml version="1.0" encoding="UTF-8" standalone="no"?>
<svg width="70px" height="70px" viewBox="0 0 70 70" version="1.1" xmlns="http://www.w3.org/2000/svg" xmlns:xlink="http://www.w3.org/1999/xlink">
    <!-- Generator: Sketch 43.2 (39069) - http://www.bohemiancoding.com/sketch -->
    <title>GIT</title>
    <desc>Created with Sketch.</desc>
    <defs></defs>
    <g id="Page-1" stroke="none" stroke-width="1" fill="none" fill-rule="evenodd">
        <g id="Main_page" transform="translate(-946.000000, -262.000000)" fill="#F05033">
            <g id="Header_image">
                <g id="Logos" transform="translate(391.000000, 217.000000)">
                    <g id="2" transform="translate(520.000000, 0.000000)">
                        <g id="GIT" transform="translate(35.000000, 45.000000)">
                            <path d="M68.2183836,31.5502882 L38.0740544,1.40671028 C36.338383,-0.329712482 33.5229887,-0.329712482 31.7858146,1.40671028 L25.5268784,7.66714927 L33.4666358,15.607658 C35.3120076,14.9840185 37.4278737,15.4025332 38.8990618,16.87297 C40.3777637,18.3531746 40.7925215,20.4870736 40.1531032,22.3392078 L47.8065875,29.9919408 C49.6587217,29.3532738 51.7941235,29.7665289 53.2728253,31.2474849 C55.3391008,33.313009 55.3391008,36.661878 53.2728253,38.7289048 C51.2050471,40.7966831 47.8569295,40.7966831 45.7883999,38.7289048 C44.2345608,37.1735629 43.8498578,34.8893893 44.638048,32.9748912 L37.5000055,25.8376 L37.5000055,44.6196684 C38.0034253,44.8691242 38.4790444,45.201231 38.8990618,45.6197457 C40.9653373,47.6860212 40.9653373,51.0341388 38.8990618,53.1034197 C36.8327863,55.1689438 33.4824146,55.1689438 31.4168905,53.1034197 C29.350615,51.0341388 29.350615,47.6860212 31.4168905,45.6197457 C31.9278241,45.1095635 32.5191545,44.7233578 33.1503078,44.4656369 L33.1503078,25.5092501 C32.5191545,25.2515292 31.9293268,24.868329 31.4168905,24.3551413 C29.8525321,22.7907829 29.4753429,20.4930846 30.2785606,18.5710728 L22.4507577,10.7425185 L1.7804893,31.4105328 C0.0448179098,33.1484583 0.0448179098,35.9638526 1.7804893,37.7002753 L31.9263213,67.8438532 C33.6619927,69.5795246 36.4766356,69.5795246 38.2145611,67.8438532 L68.2183836,37.8400307 C69.9555578,36.1036079 69.9555578,33.2867109 68.2183836,31.5502882" id="Fill-1"></path>
                        </g>
                    </g>
                </g>
            </g>
        </g>
    </g>
</svg>