<svg width="68" height="67" viewBox="0 0 68 67" xmlns="http://www.w3.org/2000/svg" xmlns:xlink="http://www.w3.org/1999/xlink"><title>BIT</title><defs><path id="a" d="M0 66.335V.328h67.306v66.007z"/></defs><g fill="none" fill-rule="evenodd"><g transform="translate(0 .626)"><mask id="b" fill="#fff"><use xlink:href="#a"/></mask><path d="M66.3 41.316c-4.497 17.681-22.759 28.44-40.79 24.031-18.027-4.408-29-22.316-24.502-39.996C5.501 7.67 23.764-3.092 41.79 1.315c18.033 4.409 29.004 22.32 24.51 40" fill="#F8931A" mask="url(#b)"/></g><path d="M41.192 29.19c-1.04 4.092-7.468 2.013-9.552 1.503l1.839-7.23c2.083.51 8.797 1.46 7.713 5.728M40.05 40.858c-1.14 4.497-8.863 2.066-11.366 1.457l2.029-7.973c2.503.614 10.53 1.827 9.337 6.516m8.438-11.602c.669-4.39-2.74-6.752-7.404-8.328l1.514-5.947-3.694-.903-1.472 5.792c-.97-.238-1.967-.46-2.96-.683l1.484-5.83-3.69-.903-1.514 5.947c-.804-.18-1.593-.357-2.358-.543l.005-.02-5.093-1.246-.983 3.867s2.74.617 2.682.654c1.495.366 1.767 1.338 1.721 2.106l-1.723 6.777c.104.027.237.064.384.12l-.39-.093-2.415 9.493c-.183.446-.648 1.114-1.693.86.037.053-2.683-.656-2.683-.656l-1.834 4.145 4.806 1.174c.893.22 1.77.45 2.633.667l-1.53 6.017 3.69.902 1.514-5.953c1.007.267 1.984.516 2.943.749l-1.509 5.924 3.693.902 1.528-6.004c6.296 1.168 11.031.697 13.026-4.888 1.606-4.497-.081-7.09-3.393-8.782 2.412-.546 4.23-2.102 4.715-5.317" fill="#FFF"/></g></svg>