<?xml version="1.0" encoding="UTF-8" standalone="no"?>
<svg width="64px" height="74px" viewBox="0 0 64 74" version="1.1" xmlns="http://www.w3.org/2000/svg" xmlns:xlink="http://www.w3.org/1999/xlink">
    <!-- Generator: Sketch 43.2 (39069) - http://www.bohemiancoding.com/sketch -->
    <title>IPFS</title>
    <desc>Created with Sketch.</desc>
    <defs></defs>
    <g id="Page-1" stroke="none" stroke-width="1" fill="none" fill-rule="evenodd">
        <g id="Main_page" transform="translate(-949.000000, -555.000000)" fill-rule="nonzero">
            <g id="Header_image">
                <g id="Logos" transform="translate(391.000000, 217.000000)">
                    <g id="4" transform="translate(520.000000, 296.000000)">
                        <g id="IPFS" transform="translate(38.000000, 42.625000)">
                            <g id="Group" transform="translate(-0.000000, -0.000000)">
                                <g transform="translate(0.139396, 0.069486)" id="Shape">
                                    <polygon fill="#4A9EA1" points="0.0446692581 54.5262744 31.4833185 72.677592 62.9219678 54.5262744 62.9219678 18.2236392 31.4833185 0.0737397277 0.0446692581 18.2250573"></polygon>
                                    <path d="M28.2380615,4.44565474 L5.4439772,17.6062108 C5.48953418,18.010971 5.48953276,18.4195033 5.4439772,18.8242493 L28.2394796,31.9848054 C30.1615339,30.5665919 32.7834067,30.5665919 34.705461,31.9848054 L57.5009634,18.8241075 C57.4554064,18.4193473 57.4551696,18.0110136 57.5008216,17.6062676 L34.7067373,4.44571146 C32.7846829,5.86392495 30.1626684,5.86392495 28.2404722,4.44571146 L28.2380615,4.44565474 Z M59.6894734,22.4594194 L36.8698639,35.7666041 C37.1370286,38.1403143 35.8260071,40.4109307 33.6368022,41.3664274 L33.6624154,67.5411946 C34.0357228,67.7041168 34.3894182,67.9082766 34.7171771,68.1501145 L57.5126795,54.9897002 C57.2455148,52.6159901 58.5565363,50.3452319 60.7457411,49.3897352 L60.7457411,23.0689066 C60.3724338,22.9059843 60.0185398,22.7018245 59.6907809,22.4599866 L59.6894734,22.4594194 Z M3.27716367,22.6056935 C2.94941894,22.8475314 2.5957235,23.0518897 2.22240195,23.214812 L2.22240195,49.5356406 C4.41162102,50.4911089 5.72262829,52.7617536 5.45546359,55.1354638 L28.2495479,68.2960199 C28.5772926,68.054182 28.9312008,67.8498237 29.3045081,67.6869014 L29.3045081,41.3660728 C27.1152891,40.4106045 25.8042818,38.1399598 26.0714465,35.7662496 L3.2773622,22.6051262 L3.27716367,22.6056935 Z" fill="#63D3D7"></path>
                                </g>
                                <g transform="translate(0.141807, 0.048214)" id="Shape" fill="#000000">
                                    <polygon fill-opacity="0.25098" points="31.4811914 72.6988631 62.9198407 54.5475455 62.9198407 18.2449103 31.4811914 36.3962279"></polygon>
                                    <polygon fill-opacity="0.039216" points="31.4811914 72.6988631 31.4811914 36.3962279 0.0425421506 18.2449103 0.0425421506 54.5475455"></polygon>
                                    <polygon fill-opacity="0.13018" points="0.0422585363 18.2449103 31.4809078 36.3962279 62.9195571 18.2449103 31.4809078 0.0935927313"></polygon>
                                </g>
                            </g>
                            <g id="Group" transform="translate(5.672287, 25.950712)" fill="#FFFFFF">
                                <polygon id="Shape" points="4.2669777 0.567228675 0.12620838 0.567228675 0.12620838 20.5904009 4.2669777 20.5904009"></polygon>
                                <path d="M11.4821264,20.5904009 L11.4821264,13.2447896 C12.5031381,13.3298739 13.5241497,13.3298739 14.3749927,13.3298739 C20.2741709,13.3298739 21.9758569,10.4086462 21.9758569,6.8067441 C21.9758569,2.4390833 18.8560992,0.567228675 14.0346555,0.567228675 L7.34135712,0.567228675 L7.34135712,20.5904009 L11.4821264,20.5904009 Z M13.7226797,10.4086462 C12.956921,10.4086462 11.8224637,10.4086462 11.4821264,10.3802847 L11.4821264,3.57354065 L14.0630169,3.57354065 C16.5588231,3.57354065 17.9768948,4.76472087 17.9768948,6.94855126 L17.9768948,7.00527413 C17.9768948,8.70696016 17.3529432,10.4086462 13.7226797,10.4086462 L13.7226797,10.4086462 Z" id="Shape"></path>
                                <polygon id="Shape" points="36.1537376 0.567228675 23.5896225 0.567228675 23.5896225 20.5904009 27.7303918 20.5904009 27.7303918 11.769995 35.586509 11.769995 35.586509 8.76368302 27.7020304 8.76368302 27.7020304 3.60190208 35.8701233 3.60190208"></polygon>
                                <path d="M49.7048307,4.48110653 L50.7825652,1.70168602 C49.1659634,0.538867241 46.982133,0.113445735 44.231074,0.113445735 C40.2321118,0.113445735 36.9421855,1.98530036 36.9421855,5.81409391 C36.9421855,9.2458274 39.4663531,10.6071762 41.9905207,11.4296578 L44.5146883,12.2805008 C46.2447358,12.8760909 47.6628075,13.4433196 47.6628075,15.3151742 C47.6628075,17.0168602 46.1880129,17.6975346 43.9474596,17.6975346 C41.6785449,17.6975346 39.2394616,17.0168602 37.8497514,16.1376558 L36.7720169,19.1439678 C38.5871487,20.3067866 40.8844248,20.8740152 43.9758211,20.8740152 C48.3718433,20.8740152 51.7752153,18.9454377 51.7752153,14.8330298 C51.7752153,11.0042363 48.8539877,9.78469464 45.9043986,8.79204446 L43.1533395,7.88447858 C41.9621593,7.48741851 41.0545934,6.94855126 41.0545934,5.41703384 C41.0545934,3.85715499 42.3308579,3.23320345 44.231074,3.23320345 C46.5567115,3.23320345 48.3718433,3.65862495 49.7048307,4.48110653 L49.7048307,4.48110653 Z" id="Shape"></path>
                            </g>
                        </g>
                    </g>
                </g>
            </g>
        </g>
    </g>
</svg>