<svg width="70" height="70" viewBox="0 0 70 70" xmlns="http://www.w3.org/2000/svg"><title>GIT</title><path d="M68.218 31.55L38.074 1.407a4.447 4.447 0 0 0-6.288 0l-6.26 6.26 7.94 7.94a5.28 5.28 0 0 1 6.687 6.732l7.654 7.653a5.28 5.28 0 0 1 5.466 1.255 5.29 5.29 0 0 1 0 7.482 5.29 5.29 0 0 1-8.635-5.754L37.5 25.838V44.62c.503.25.979.581 1.4 1a5.292 5.292 0 0 1-7.483 7.483 5.292 5.292 0 0 1 1.733-8.637V25.509a5.29 5.29 0 0 1-2.872-6.938l-7.827-7.828L1.78 31.41a4.45 4.45 0 0 0 0 6.29l30.145 30.143a4.448 4.448 0 0 0 6.289 0L68.218 37.84a4.447 4.447 0 0 0 0-6.29" fill="#F05033" fill-rule="evenodd"/></svg>