<?xml version="1.0" encoding="UTF-8" standalone="no"?>
<svg width="68px" height="67px" viewBox="0 0 68 67" version="1.1" xmlns="http://www.w3.org/2000/svg" xmlns:xlink="http://www.w3.org/1999/xlink">
    <!-- Generator: Sketch 43.2 (39069) - http://www.bohemiancoding.com/sketch -->
    <title>BIT</title>
    <desc>Created with Sketch.</desc>
    <defs>
        <polygon id="path-1" points="0 66.335391 0 0.32774467 67.3063143 0.32774467 67.3063143 66.335391"></polygon>
    </defs>
    <g id="Page-1" stroke="none" stroke-width="1" fill="none" fill-rule="evenodd">
        <g id="Main_page" transform="translate(-427.000000, -558.000000)">
            <g id="Header_image">
                <g id="Logos" transform="translate(391.000000, 217.000000)">
                    <g id="3" transform="translate(0.000000, 296.000000)">
                        <g id="BIT" transform="translate(36.000000, 45.625000)">
                            <g id="Group-3" transform="translate(0.000000, 0.001134)">
                                <mask id="mask-2" fill="white">
                                    <use xlink:href="#path-1"></use>
                                </mask>
                                <g id="Clip-2"></g>
                                <path d="M66.2995541,41.3157899 C61.8032108,58.9973119 43.5412207,69.7563901 25.5095696,65.3473545 C7.4831773,60.9393503 -3.49000378,43.0309305 1.00844302,25.3514712 C5.50057916,7.66891788 23.7636211,-3.09222307 41.7900133,1.31474984 C59.8227163,5.72378545 70.7937938,23.6342679 66.2995541,41.3157899" id="Fill-1" fill="#F8931A" mask="url(#mask-2)"></path>
                            </g>
                            <path d="M41.1924993,28.5655808 C40.1512408,32.6569596 33.7238365,30.5777512 31.6402678,30.0682627 L33.4787726,22.8384756 C35.5623413,23.3479642 42.2758288,24.298872 41.1924993,28.5655808 M40.0502703,40.2332814 C38.9090932,44.7299821 31.1869523,42.2990822 28.683725,41.6895523 L30.7126012,33.7171909 C33.2158286,34.3308461 41.2429845,35.5437177 40.0502703,40.2332814 M48.487619,28.6305561 C49.1565487,24.2400849 45.747742,21.879317 41.0841663,20.3034091 L42.5976723,14.3555943 L38.9038343,13.4531601 L37.4323994,19.2452405 C36.4616099,19.0069979 35.4645261,18.7842256 34.4727011,18.5624846 L35.9557056,12.7312127 L32.2660747,11.8287785 L30.751517,17.775562 C29.9479599,17.5961065 29.1591278,17.4187137 28.3944865,17.2330701 L28.3986936,17.2134744 L23.3059932,15.9665682 L22.3225825,19.8341433 C22.3225825,19.8341433 25.0635113,20.4508926 25.0046118,20.4880213 C26.5002376,20.8541518 26.7715958,21.8256866 26.7263694,22.5940449 L25.0025083,29.3710678 C25.1066341,29.397883 25.2402097,29.4350117 25.3874583,29.4917362 C25.2633488,29.4618269 25.1318767,29.429855 24.9972494,29.397883 L22.5823712,38.8914907 C22.3993622,39.3370353 21.9344771,40.0053523 20.8890115,39.7516394 C20.9258237,39.8042384 18.2059305,39.0946673 18.2059305,39.0946673 L16.3716328,43.2396764 L21.17825,44.4143879 C22.071208,44.6340662 22.9473376,44.864058 23.8108458,45.0806422 L22.2815632,51.0975577 L25.9701424,51.9999919 L27.4847001,46.0470203 C28.4923017,46.3141408 29.4694018,46.562697 30.4275699,46.7957828 L28.9193228,52.7198765 L32.6121091,53.6223107 L34.1403399,47.6177715 C40.4362722,48.7862948 45.1713686,48.3149663 47.1655363,42.7301879 C48.7715986,38.2334872 47.0845495,35.6396335 43.7725063,33.948214 C46.1852809,33.4015967 48.0027502,31.8463159 48.487619,28.6305561" id="Fill-4" fill="#FFFFFF"></path>
                        </g>
                    </g>
                </g>
            </g>
        </g>
    </g>
</svg>