<svg width="134" height="155" viewBox="0 0 134 155" xmlns="http://www.w3.org/2000/svg"><title>Page 1</title><g fill="none" fill-rule="evenodd"><path d="M72.06 26.309a5.15 5.15 0 1 1-5.15-5.15 5.15 5.15 0 0 1 5.15 5.15M86.505 43.1a5.15 5.15 0 1 1-5.15-5.15 5.15 5.15 0 0 1 5.15 5.15m-27.723-4.62a5.15 5.15 0 1 1-5.15-5.15 5.15 5.15 0 0 1 5.15 5.15m-.681 29.126a5.15 5.15 0 1 1-5.15-5.15 5.15 5.15 0 0 1 5.15 5.15M37.485 59.11a5.15 5.15 0 1 1-5.15-5.15 5.15 5.15 0 0 1 5.15 5.15m66.281-4.088a5.15 5.15 0 1 1-5.15-5.15 5.15 5.15 0 0 1 5.15 5.15M24.553 81.138a5.15 5.15 0 1 1-5.15-5.15 5.15 5.15 0 0 1 5.15 5.15m97.599-4.026a5.15 5.15 0 1 1-5.15-5.15 5.15 5.15 0 0 1 5.15 5.15" fill="#FFF"/><path d="M52.95 67.606v19.011m39.006-17.51v33.39m-54.32-24.433v24.433m15.995-64.365l.023 12.269L66.91 59.11M81.354 43.1v15.593L66.91 68.713m31.706-14.224v10.803L66.91 85.696M32.335 59.11v16L67.254 94.6M18.721 81.138v10.55l48.19 26.397m-.001-.001l50.091-30.92V76.516M66.91 26.309V152.29" stroke="#FFF" stroke-width="4"/><path stroke="#FFF" stroke-width="4" stroke-linecap="round" stroke-linejoin="round" d="M132 114.583l-65 37.528-65-37.528V39.527L67 2l65 37.527z"/></g></svg>