<svg width="134" height="152" viewBox="0 0 134 152" xmlns="http://www.w3.org/2000/svg"><title>Group</title><g fill="none" fill-rule="evenodd"><g stroke="#FFF" stroke-width="4"><path d="M91.83 74.204c0 13.84-11.219 25.057-25.058 25.057-13.838 0-25.057-11.218-25.057-25.057 0-13.839 11.22-25.057 25.057-25.057 13.84 0 25.057 11.218 25.057 25.057z"/><path d="M105.067 85.966c0-4.394-1.695-30.85-4.468-33.832-.278-1.063-.974-2.057-1.934-2.717-2.982-2.773-26.48-15.026-30.823-15.699-1.248-.193-2.556-.356-3.746.076-5.304.507-28.73 15.165-32.018 19.014-.799.935-1.583 1.952-1.81 3.166-1.146 2.263-1.791 16.21-1.791 18.92 0 2.688.959 16.161 1.761 18.545.396 1.178.884 2.372 1.814 3.185 2.68 4.312 26.826 17.877 32.036 19.053 1.24.278 2.549.458 3.755.076 8.388 0 34.782-17.412 35.974-25.47.78-1.186 1.25-2.716 1.25-4.317"/><path d="M118.306 97.727c0-2.198-.848-49.114-2.235-50.605-.138-1.678-1.098-3.236-2.571-4.139-1.492-1.386-42.39-24.693-44.587-24.693a5.835 5.835 0 0 0-5.085.038c-2.651.253-43.841 24.204-45.183 26.35a5.732 5.732 0 0 0-2.511 4.364c-.573 1.131-.896 25.188-.896 26.543 0 1.344.318 24.755.881 25.879a5.749 5.749 0 0 0 2.513 4.373c1.34 2.156 42.535 26.115 45.193 26.37 1.59.79 3.491.804 5.088.038 4.194 0 46.566-25.55 47.162-29.579 1.384-1.166 2.231-2.992 2.231-4.94"/><path d="M131.544 109.488V42.11a6.421 6.421 0 0 0-3.21-5.561L69.983 2.86a6.423 6.423 0 0 0-6.423 0L5.211 36.55a6.421 6.421 0 0 0-3.21 5.56v67.378a6.424 6.424 0 0 0 3.21 5.562l58.35 33.688a6.423 6.423 0 0 0 6.422 0l58.35-33.688a6.423 6.423 0 0 0 3.211-5.562"/></g><path d="M2 0h130v151H2z"/></g></svg>