<svg width="289" height="129" viewBox="0 0 289 129" xmlns="http://www.w3.org/2000/svg"><title>Page 1</title><g fill="none" fill-rule="evenodd"><path d="M140.903 109.895h46.732V57.031c0-14.23-11.536-25.765-25.766-25.765h-38.571l17.605 78.629z" fill="#DEEDFF"/><path d="M140.903 109.895h46.732V57.031c0-14.23-11.536-25.765-25.766-25.765h-38.571l17.605 78.629z" stroke="#CBDFFC" stroke-width="1.084"/><path d="M129.292 58.037l-5.994-26.771h38.571c14.23 0 25.766 12.541 25.766 26.77h-58.343z" fill="#AAD5F9"/><path d="M140.903 109.895h46.732V57.031c0-14.23-11.536-25.765-25.766-25.765h-34.18a2.373 2.373 0 0 0-2.324 2.85l15.538 75.779z" stroke="#CBDFFC" stroke-width="2.169"/><path d="M149.062 109.895h-46.484V57.031c0-14.23 10.406-25.765 23.241-25.765 12.837 0 23.243 11.535 23.243 25.765v52.864z" fill="#DCF3FF"/><path d="M149.062 109.895h-46.484V57.031c0-14.23 10.406-25.765 23.241-25.765 12.837 0 23.243 11.535 23.243 25.765v52.864z" stroke="#CBDFFC" stroke-width="2.06"/><path fill="#17CEC1" d="M135.451 45.378l8.974 18.183 34.9 2.915-29.354 14.153 3.427 19.985-17.947-9.435-17.947 9.435 3.427-19.985-14.52-14.153 20.067-2.915z"/><path stroke="#CBDFFC" stroke-width="2.169" stroke-linecap="round" stroke-linejoin="round" d="M135.451 45.378l8.974 18.183 34.9 2.915-29.354 14.153 3.427 19.985-17.947-9.435-17.947 9.435 3.427-19.985-14.52-14.153 20.067-2.915z"/><path d="M149.062 109.895h38.573V57.031c0-14.23-11.536-25.765-25.766-25.765h-28.755l1.127.665a30.152 30.152 0 0 1 14.821 25.963v52.001z" fill="#DEEDFF"/><path d="M149.062 109.895h38.573V57.031c0-14.23-11.536-25.765-25.766-25.765h-28.755l1.127.665a30.152 30.152 0 0 1 14.821 25.963v52.001z" stroke="#323233" stroke-width="1.084"/><path d="M187.635 57.894c0-14.23-11.535-26.629-25.765-26.629h-28.755l1.126.666a30.149 30.149 0 0 1 14.82 25.963h38.574z" fill="#A0CDF9"/><path fill="#6D81D9" d="M33.061 72.996l28.612 28.612 28.613-28.612-28.613-28.611z"/><path stroke="#CBDFFC" stroke-width="2.169" stroke-linecap="round" stroke-linejoin="round" d="M33.061 72.996l28.612 28.612 28.613-28.612-28.613-28.611zm-9.206 0H1.603m31.524-13.298h-17.06m17.06 26.704h-17.06"/><path fill="#0698FC" d="M202.987 58.45l25.195-14.546 25.196 14.546v29.093l-25.196 14.546-25.195-14.546z"/><path stroke="#CBDFFC" stroke-width="2.169" stroke-linecap="round" stroke-linejoin="round" d="M202.987 58.45l25.195-14.546 25.196 14.546v29.093l-25.196 14.546-25.195-14.546z"/><path d="M149.062 109.895h-46.484V57.031c0-14.23 10.406-25.765 23.241-25.765 12.837 0 23.243 11.535 23.243 25.765v52.864z" stroke="#CBDFFC" stroke-width="2.06"/><path d="M149.062 109.895h38.573V57.031c0-14.23-11.536-25.765-25.766-25.765h-28.755l1.127.665a30.152 30.152 0 0 1 14.821 25.963v52.001z" stroke="#CBDFFC" stroke-width="2.169"/><path d="M228.182 36.871v-9.878m16.816 16.91l14.341-22.027m.001 34.736l12.857-6.922m-63.793-5.306l-14.836-22.507m65.772 52.149h27.693M259.34 90.734l12.857 7.586" stroke="#CBDFFC" stroke-width="2.169" stroke-linecap="round" stroke-linejoin="round"/><path d="M278.131 109.895H20.286" stroke="#CBDFFC" stroke-width="2.376" stroke-linecap="round" stroke-linejoin="round"/><path d="M174.32 73a5.476 5.476 0 1 1-10.953.001 5.476 5.476 0 0 1 10.952 0" fill="#F6AC47"/><path d="M174.32 73a5.476 5.476 0 1 1-10.953.001 5.476 5.476 0 0 1 10.952 0z" stroke="#CBDFFC" stroke-width="2.169"/><path d="M177.02 96.826h-16.504a5.05 5.05 0 0 1-5.05-5.05v-.852a5.05 5.05 0 0 1 5.05-5.05h16.505a5.05 5.05 0 0 1 5.05 5.05v.853a5.05 5.05 0 0 1-5.05 5.05" fill="#FFF"/><path d="M177.02 96.826h-16.504a5.05 5.05 0 0 1-5.05-5.05v-.852a5.05 5.05 0 0 1 5.05-5.05h16.505a5.05 5.05 0 0 1 5.05 5.05v.853a5.05 5.05 0 0 1-5.05 5.05z" stroke="#CBDFFC" stroke-width="2.169"/><path d="M170.632 118.549a5.687 5.687 0 1 1-11.374 0 5.687 5.687 0 0 1 11.374 0" fill="#DCF3FF"/><path d="M170.632 118.549a5.687 5.687 0 1 1-11.374 0 5.687 5.687 0 0 1 11.374 0z" stroke="#CBDFFC" stroke-width="2.169"/><path d="M282.582 118.796a4.45 4.45 0 1 1-8.901 0 4.45 4.45 0 1 1 8.9 0" fill="#DCF3FF"/><path d="M282.582 118.796a4.45 4.45 0 1 1-8.901 0 4.45 4.45 0 1 1 8.9 0z" stroke="#CBDFFC" stroke-width="1.697"/><path d="M244.751 118.796a4.45 4.45 0 1 1-8.9 0 4.45 4.45 0 1 1 8.9 0" fill="#DCF3FF"/><path d="M244.751 118.796a4.45 4.45 0 1 1-8.9 0 4.45 4.45 0 1 1 8.9 0z" stroke="#CBDFFC" stroke-width="1.697"/><path d="M206.92 118.796a4.45 4.45 0 1 1-8.9 0 4.45 4.45 0 1 1 8.9 0" fill="#DCF3FF"/><path d="M206.92 118.796a4.45 4.45 0 1 1-8.9 0 4.45 4.45 0 1 1 8.9 0z" stroke="#CBDFFC" stroke-width="1.697"/><path d="M132.603 118.796a4.45 4.45 0 1 1-8.901 0 4.45 4.45 0 1 1 8.901 0" fill="#DCF3FF"/><path d="M132.603 118.796a4.45 4.45 0 1 1-8.901 0 4.45 4.45 0 1 1 8.901 0z" stroke="#CBDFFC" stroke-width="1.697"/><path d="M94.773 118.796a4.45 4.45 0 1 1-8.901 0 4.45 4.45 0 1 1 8.9 0" fill="#DCF3FF"/><path d="M94.773 118.796a4.45 4.45 0 1 1-8.901 0 4.45 4.45 0 1 1 8.9 0z" stroke="#CBDFFC" stroke-width="1.697"/><path d="M56.942 118.796a4.45 4.45 0 1 1-8.9 0 4.45 4.45 0 1 1 8.9 0" fill="#DCF3FF"/><path d="M56.942 118.796a4.45 4.45 0 1 1-8.9 0 4.45 4.45 0 1 1 8.9 0z" stroke="#CBDFFC" stroke-width="1.697"/><path d="M278.131 127.698H20.286" stroke="#CBDFFC" stroke-width="2.376" stroke-linecap="round" stroke-linejoin="round"/><path d="M165.567 45.378V1.148" fill="#FFF"/><path d="M165.567 45.378V1.148" stroke="#69A2D1" stroke-width="2.169" stroke-linecap="round" stroke-linejoin="round"/><path d="M165.567 45.378v-8.507" fill="#FFF"/><path d="M165.567 45.378v-8.507" stroke="#517D9B" stroke-width="4.337" stroke-linecap="round" stroke-linejoin="round"/><path d="M165.567 43.895v-8.507" fill="#FFF"/><path d="M165.567 43.895v-8.507" stroke="#69A2D1" stroke-width="4.337" stroke-linecap="round" stroke-linejoin="round"/><path fill="#DEEDFF" d="M149.062 127.698h38.573v-17.802h-38.573z"/><path stroke="#CBDFFC" stroke-width="2.169" d="M149.062 127.698h38.573v-17.802h-38.573z"/><path fill="#DEEDFF" d="M150.546 119.478h35.606v-15.391h-35.606z"/><path fill="#FFF" d="M210.742 79.075h3.2V67.294h-3.2zm8.93-6.505h.58c.478 0 .858-.133 1.14-.401.282-.269.423-.64.423-1.113 0-.795-.44-1.193-1.32-1.193h-.823v2.708zm5.367-1.53c0 1.317-.388 2.334-1.165 3.05-.776.718-1.879 1.076-3.308 1.076h-.894v3.909h-3.183V67.294h4.077c1.488 0 2.606.324 3.353.974.745.65 1.12 1.575 1.12 2.772zm1.877 8.035V67.294h3.184v9.21h4.537v2.57zm16.301-6.029c0-1.079-.213-1.88-.64-2.4-.427-.522-1.075-.782-1.947-.782h-.925v6.6h.708c.967 0 1.677-.28 2.129-.843.45-.56.675-1.418.675-2.575m3.304-.112c0 1.966-.54 3.482-1.622 4.545-1.084 1.065-2.605 1.595-4.566 1.595h-3.813v-11.78h4.079c1.89 0 3.35.482 4.38 1.448 1.028.969 1.542 2.366 1.542 4.192"/></g></svg>