<svg width="230" height="183" viewBox="0 0 230 183" xmlns="http://www.w3.org/2000/svg"><title>Group</title><g fill="none" fill-rule="evenodd"><path d="M192.243 19.155l-13.425 20.917a94.01 94.01 0 0 1-42.92 35.984l-34.561 14.42" stroke="#17CEC1" stroke-width="3" stroke-linecap="round" stroke-linejoin="round"/><path d="M101.337 90.476l34.477 14.348a94.022 94.022 0 0 1 43.031 36.069l13.398 20.904" stroke="#6D81D9" stroke-width="3" stroke-linecap="round" stroke-linejoin="round"/><path d="M186.966 161.834a4.708 4.708 0 1 1 9.419 0 4.708 4.708 0 0 1-9.419 0" fill="#DCF3FF"/><path d="M186.966 161.834a4.708 4.708 0 1 1 9.419 0 4.708 4.708 0 0 1-9.419 0z" stroke="#CBDFFC" stroke-width="1.643"/><path d="M186.966 19.155a4.708 4.708 0 1 1 9.419 0 4.708 4.708 0 0 1-9.419 0" fill="#DCF3FF"/><path d="M186.966 19.155a4.708 4.708 0 1 1 9.419 0 4.708 4.708 0 0 1-9.419 0z" stroke="#CBDFFC" stroke-width="1.643"/><path d="M110.809 90.476a2.487 2.487 0 1 1 4.974 0 2.487 2.487 0 0 1-4.974 0" fill="#FFF"/><path d="M110.433 89.362l47.017-6.348a94.023 94.023 0 0 0 38.932-14.52l27.73-18.163" stroke="#F6AC47" stroke-width="3" stroke-linecap="round" stroke-linejoin="round"/><path d="M224.113 129.126l-28.24-17.807a94.016 94.016 0 0 0-37.595-13.647l-47.038-6.335" stroke="#12B5E8" stroke-width="3" stroke-linecap="round" stroke-linejoin="round"/><path d="M219.404 49.121a4.708 4.708 0 1 1 9.419 0 4.708 4.708 0 0 1-9.419 0" fill="#DCF3FF"/><path d="M219.404 49.121a4.708 4.708 0 1 1 9.419 0 4.708 4.708 0 0 1-9.419 0z" stroke="#CBDFFC" stroke-width="1.643"/><path d="M219.404 129.126a4.708 4.708 0 1 1 9.419 0 4.708 4.708 0 0 1-9.419 0" fill="#DCF3FF"/><path d="M219.404 129.126a4.708 4.708 0 1 1 9.419 0 4.708 4.708 0 0 1-9.419 0z" stroke="#CBDFFC" stroke-width="1.643"/><path d="M131.844 88.981c-6.624 0-6.624-8.968-13.248-8.968-6.626 0-6.626 8.968-13.252 8.968-6.625 0-6.625-8.968-13.249-8.968-6.626 0-6.626 8.968-13.252 8.968-6.628 0-6.628-8.968-13.254-8.968-6.627 0-6.627 8.968-13.252 8.968-6.627 0-6.627-8.968-13.253-8.968-6.627 0-6.627 8.968-13.255 8.968-4.345 0-8.614-1.327-12.372-3.848l-7.636-5.12" stroke="#0BD6B9" stroke-width="3" stroke-linecap="round" stroke-linejoin="round"/><path d="M131.844 100.94c-6.624 0-6.624-8.969-13.248-8.969-6.626 0-6.626 8.969-13.252 8.969-6.625 0-6.625-8.969-13.249-8.969-6.626 0-6.626 8.969-13.252 8.969-6.628 0-6.628-8.969-13.254-8.969-6.627 0-6.627 8.969-13.252 8.969-6.627 0-6.627-8.969-13.253-8.969-6.627 0-6.627 8.969-13.255 8.969-4.212 0-8.215 2.12-10.964 5.807l-9.044 12.131" stroke="#6D81D9" stroke-width="3" stroke-linecap="round" stroke-linejoin="round"/><path d="M131.844 91.97c-6.632 0-6.632 8.97-13.265 8.97-6.632 0-6.632-8.97-13.264-8.97-6.628 0-6.628 8.97-13.256 8.97-6.631 0-6.631-8.97-13.26-8.97-6.628 0-6.628 8.97-13.256 8.97-6.627 0-6.627-8.97-13.252-8.97-6.627 0-6.627 8.97-13.252 8.97-6.628 0-6.628-8.97-13.256-8.97-4.316 0-8.554 1.319-12.286 3.821l-7.676 5.148" stroke="#0698FC" stroke-width="3" stroke-linecap="round" stroke-linejoin="round"/><path d="M131.844 80.012c-6.632 0-6.632 8.969-13.265 8.969-6.632 0-6.632-8.969-13.264-8.969-6.628 0-6.628 8.969-13.256 8.969-6.631 0-6.631-8.969-13.26-8.969-6.628 0-6.628 8.969-13.256 8.969-6.627 0-6.627-8.969-13.252-8.969-6.627 0-6.627 8.969-13.252 8.969-6.628 0-6.628-8.969-13.256-8.969-4.183 0-8.158-2.105-10.887-5.766L5.821 62.074" stroke="#F6AC47" stroke-width="3" stroke-linecap="round" stroke-linejoin="round"/><path fill="#0698FC" d="M146.91 114.339L105.235 138.4l-41.677-24.06V66.215l41.677-24.061 41.675 24.061z"/><path stroke="#CBDFFC" stroke-width="2.169" stroke-linecap="round" stroke-linejoin="round" d="M146.91 114.339L105.235 138.4l-41.677-24.06V66.215l41.677-24.061 41.675 24.061z"/><path fill="#FFF" d="M80.905 96.685h4.405v-16.22h-4.405zm12.294-8.955h.798c.66 0 1.181-.184 1.57-.553.388-.37.583-.88.583-1.533 0-1.094-.608-1.64-1.82-1.64h-1.131v3.726zm7.388-2.108c0 1.813-.534 3.214-1.603 4.2-1.069.987-2.587 1.483-4.554 1.483H93.2v5.379h-4.383V80.465h5.614c2.048 0 3.587.447 4.615 1.342 1.028.894 1.542 2.168 1.542 3.815zm2.585 11.062v-16.22h4.384v12.681h6.245v3.54zm22.443-8.299c0-1.487-.295-2.588-.881-3.305-.589-.717-1.482-1.076-2.68-1.076h-1.275v9.086h.974c1.333 0 2.31-.386 2.93-1.16.62-.773.932-1.954.932-3.545m4.548-.154c0 2.707-.744 4.793-2.235 6.257-1.49 1.464-3.584 2.196-6.284 2.196h-5.248V80.465h5.613c2.603 0 4.613.666 6.03 1.996 1.416 1.33 2.124 3.255 2.124 5.77"/><path d="M1.112 118.878a4.708 4.708 0 1 1 9.419 0 4.708 4.708 0 0 1-9.42 0" fill="#DCF3FF"/><path d="M1.112 118.878a4.708 4.708 0 1 1 9.419 0 4.708 4.708 0 0 1-9.42 0z" stroke="#CBDFFC" stroke-width="1.643"/><path d="M1.112 100.94a4.708 4.708 0 1 1 9.419 0 4.708 4.708 0 0 1-9.42 0" fill="#DCF3FF"/><path d="M1.112 100.94a4.708 4.708 0 1 1 9.419 0 4.708 4.708 0 0 1-9.42 0z" stroke="#CBDFFC" stroke-width="1.643"/><path d="M1.112 80.012a4.708 4.708 0 1 1 9.419 0 4.708 4.708 0 0 1-9.42 0" fill="#DCF3FF"/><path d="M1.112 80.012a4.708 4.708 0 1 1 9.419 0 4.708 4.708 0 0 1-9.42 0z" stroke="#CBDFFC" stroke-width="1.643"/><path d="M1.112 62.074a4.708 4.708 0 1 1 9.419 0 4.708 4.708 0 0 1-9.42 0" fill="#DCF3FF"/><path d="M1.112 62.074a4.708 4.708 0 1 1 9.419 0 4.708 4.708 0 0 1-9.42 0z" stroke="#CBDFFC" stroke-width="1.643"/><path d="M104.809 28.945V1.466M73.574 39.368l-7.128-12.515m78.703.001l-7.129 12.514M51.758 60.47L25.785 47.142m79.024 106.395v27.48m-31.235-37.902l-7.128 12.514m78.703 0l-7.129-12.515m-86.262-21.101L25.785 135.34" stroke="#CBDFFC" stroke-width="2.169" stroke-linecap="round" stroke-linejoin="round"/><path d="M166.83 44.923l12.556-7.316c.836-.487 1.853.25 1.65 1.196l-3.057 14.207a1.114 1.114 0 0 1-1.743.667l-9.5-6.891a1.113 1.113 0 0 1 .094-1.863" fill="#17CEC1"/><path d="M166.83 136.33l12.556 7.314c.836.487 1.853-.25 1.65-1.196l-3.057-14.207a1.114 1.114 0 0 0-1.743-.667l-9.5 6.892a1.113 1.113 0 0 0 .094 1.863" fill="#6D81D9"/><path d="M184.892 113.111l14.385 2.062c.958.138 1.623-.928 1.079-1.727l-8.17-12.018a1.113 1.113 0 0 0-1.866.036l-6.214 9.955a1.113 1.113 0 0 0 .786 1.692" fill="#16BBEF"/><path d="M186.01 66.737l14.386-2.062c.958-.138 1.623.928 1.079 1.728l-8.17 12.018a1.113 1.113 0 0 1-1.866-.037l-6.214-9.955a1.113 1.113 0 0 1 .786-1.692" fill="#F6AC47"/><path d="M1-3h228v188H1z"/></g></svg>