<?xml version="1.0" encoding="UTF-8" standalone="no"?>
<svg width="335px" height="317px" viewBox="0 0 335 317" version="1.1" xmlns="http://www.w3.org/2000/svg" xmlns:xlink="http://www.w3.org/1999/xlink">
    <!-- Generator: Sketch 43.2 (39069) - http://www.bohemiancoding.com/sketch -->
    <title>Group 6</title>
    <desc>Created with Sketch.</desc>
    <defs>
        <polygon id="path-1" points="0 22.0968877 0 0.10917456 22.4203105 0.10917456 22.4203105 22.0968877"></polygon>
    </defs>
    <g id="Page-1" stroke="none" stroke-width="1" fill="none" fill-rule="evenodd">
        <g id="Main_page" transform="translate(-250.000000, -1111.000000)">
            <g id="Why-IPLD?" transform="translate(219.000000, 1009.000000)">
                <g id="IPLD_illustration" transform="translate(0.000000, 80.789062)">
                    <g id="Group-6">
                        <g id="Group" transform="translate(207.849118, 129.953880)">
                            <path d="M0,61.0104442 L50.1189627,32.2620037" id="Path-4" stroke="#1D74F2" stroke-width="3"></path>
                            <g id="2" transform="translate(58.744842, 6.019659)"></g>
                            <g id="Group-9" transform="translate(49.646691, 0.317994)">
                                <path d="M37.292012,31.0324946 L37.292012,11.7199681 C37.292012,11.0622846 36.9411948,10.4546755 36.3716106,10.1257844 L19.6464598,0.469521113 C19.0769744,0.140728752 18.3752412,0.140728752 17.8056571,0.469521113 L1.08050621,10.1257844 C0.51092209,10.4545767 0.160104887,11.0622846 0.160104887,11.7199681 L0.160104887,31.0324946 C0.160104887,31.6901781 0.51092209,32.2977871 1.08050621,32.6266783 L17.8056571,42.2829415 C18.3752412,42.6117339 19.0768756,42.6117339 19.6464598,42.2829415 L36.3716106,32.6266783 C36.941096,32.2978859 37.292012,31.6901781 37.292012,31.0324946" id="Fill-1" stroke="#F7931A" stroke-width="3"></path>
                                <g id="Page-1" transform="translate(8.170498, 10.092137)">
                                    <g id="Group-3" transform="translate(0.000000, 0.000378)">
                                        <mask id="mask-2" fill="white">
                                            <use xlink:href="#path-1"></use>
                                        </mask>
                                        <g id="Clip-2"></g>
                                        <path d="M22.0849501,13.762644 C20.5871796,19.6525106 14.503954,23.2364518 8.4974564,21.7677642 C2.49271054,20.2994202 -1.16255019,14.333972 0.335921018,8.44479249 C1.83229009,2.55458232 7.91586599,-1.03004603 13.9206119,0.437954446 C19.9274599,1.90664202 23.5820199,7.87277733 22.0849501,13.762644" id="Fill-1" fill="#F8931A" mask="url(#mask-2)"></path>
                                    </g>
                                    <path d="M13.7215748,9.51543997 C13.3747227,10.8783133 11.2336992,10.1857112 10.5396446,10.0159962 L11.1520663,7.60769211 C11.8461209,7.77740712 14.0824411,8.09416266 13.7215748,9.51543997 M13.3410885,13.4020511 C12.9609526,14.8999406 10.3886413,14.090187 9.55479479,13.8871474 L10.2306309,11.2314855 C11.0644774,11.4358993 13.7383919,11.8399172 13.3410885,13.4020511 M16.1516417,9.53708379 C16.3744679,8.07458016 15.2389652,7.28818814 13.6854882,6.7632397 L14.18965,4.78197157 L12.9592009,4.481363 L12.4690533,6.41075468 C12.145675,6.33139402 11.8135378,6.25718664 11.4831524,6.18332282 L11.9771539,4.24087614 L10.7481062,3.94026758 L10.243594,5.92119215 C9.9759223,5.86141399 9.71315555,5.80232294 9.45844698,5.74048346 L9.4598484,5.73395596 L7.76342623,5.3186008 L7.43584368,6.60692324 C7.43584368,6.60692324 8.34887056,6.81236772 8.32925064,6.82473562 C8.82745641,6.94669681 8.91784817,7.27032341 8.90278288,7.52627013 L8.32854993,9.78375459 C8.36323514,9.79268696 8.40773031,9.80505485 8.45678011,9.82395025 C8.41543814,9.81398722 8.37164368,9.80333709 8.32679815,9.79268696 L7.52238153,12.9550891 C7.46141964,13.1035038 7.30656244,13.326126 6.9583089,13.241612 C6.97057135,13.2591332 6.06455158,13.022769 6.06455158,13.022769 L5.45353129,14.4035071 L7.05465671,14.7948135 C7.35210867,14.8679902 7.64395495,14.9446025 7.93159696,15.0167485 L7.42217981,17.0210347 L8.65087715,17.3216433 L9.15538932,15.3386574 C9.49103005,15.4276375 9.81651047,15.5104337 10.1356845,15.5880766 L9.63327446,17.561443 L10.8633732,17.8620516 L11.37244,15.8618881 C13.4696691,16.2511332 15.0469703,16.0941297 15.7112447,14.2337921 C16.2462378,12.7359025 15.6842673,11.8718676 14.5809973,11.3084412 C15.3847132,11.1263583 15.9901278,10.6082809 16.1516417,9.53708379" id="Fill-4" fill="#FFFFFF"></path>
                                </g>
                            </g>
                        </g>
                        <g id="Group" transform="translate(139.043435, 147.631345) scale(-1, 1) translate(-139.043435, -147.631345) translate(91.043435, 111.131345)">
                            <path d="M1.3500312e-12,72.6814636 L34.721176,52.765256" id="Path-4" stroke="#1D74F2" stroke-width="3"></path>
                            <g id="Group-10" transform="translate(34.086826, 0.207856)">
                                <path d="M60.3664571,50.417499 L60.3664571,19.0410563 C60.3664571,17.9725391 59.7964957,16.9853761 58.8711106,16.4510372 L31.6982942,0.762815899 C30.7730696,0.228637491 29.6329862,0.228637491 28.7076012,0.762815899 L1.53478477,16.4510372 C0.609399702,16.9852156 0.0394382404,17.9725391 0.0394382404,19.0410563 L0.0394382404,50.417499 C0.0394382404,51.4860163 0.609399702,52.4731792 1.53478477,53.0075181 L28.7076012,68.6957394 C29.6329862,69.2299178 30.7729091,69.2299178 31.6982942,68.6957394 L58.8711106,53.0075181 C59.7963352,52.4733397 60.3664571,51.4860163 60.3664571,50.417499" id="Fill-1" stroke="#5FCACE" stroke-width="3"></path>
                                <g id="1" transform="translate(29.750141, 34.499507) scale(-1, 1) translate(-29.750141, -34.499507) translate(11.250141, 13.499507)" fill-rule="nonzero">
                                    <g id="ipfs-logo-vector-ice-text" transform="translate(0.344277, 0.196228)">
                                        <g id="Group">
                                            <g transform="translate(0.076427, 0.038097)" id="Shape">
                                                <polygon fill="#4A9EA1" points="0.0244907096 29.8949929 17.2612854 39.8467733 34.4980801 29.8949929 34.4980801 9.99143205 17.2612854 0.040429108 0.0244907096 9.99220954"></polygon>
                                                <path d="M15.4820159,2.43740872 L2.98475665,9.65291602 C3.00973406,9.87483295 3.00973328,10.098818 2.98475665,10.3207271 L15.4827934,17.5362344 C16.5365936,16.7586738 17.9740817,16.7586738 19.0278819,17.5362344 L31.5259187,10.3206494 C31.5009413,10.0987325 31.5008114,9.87485627 31.5258409,9.65294712 L19.0285817,2.43743982 C17.9747814,3.21500042 16.5372156,3.21500042 15.4833376,2.43743982 L15.4820159,2.43740872 Z M32.725808,12.3137733 L20.214554,19.6096723 C20.3610318,20.9111009 19.6422411,22.1560064 18.4419709,22.6798743 L18.4560137,37.0306527 C18.6606861,37.1199777 18.8546059,37.2319119 19.0343055,37.3645039 L31.5323422,30.1490743 C31.3858645,28.8476458 32.1046551,27.6026625 33.3049254,27.0787945 L33.3049254,12.6479354 C33.100253,12.5586104 32.9062244,12.4466762 32.7265248,12.3140843 L32.725808,12.3137733 Z M1.79676286,12.3939707 C1.61707102,12.5265626 1.42315125,12.6386056 1.21847112,12.7279307 L1.21847112,27.1587898 C2.41874913,27.6826421 3.13753202,28.9275632 2.99105426,30.2289918 L15.4883135,37.4444991 C15.6680054,37.3119071 15.8620418,37.1998641 16.0667141,37.1105391 L16.0667141,22.67968 C14.8664361,22.1558276 14.1476532,20.9109065 14.294131,19.609478 L1.7968717,12.3936597 L1.79676286,12.3939707 Z" fill="#63D3D7"></path>
                                            </g>
                                            <g transform="translate(0.077748, 0.026434)" id="Shape" fill="#000000">
                                                <polygon fill-opacity="0.25098" points="17.2601192 39.8584356 34.4969139 29.9066552 34.4969139 10.0030943 17.2601192 19.9548747"></polygon>
                                                <polygon fill-opacity="0.039216" points="17.2601192 39.8584356 17.2601192 19.9548747 0.0233244854 10.0030943 0.0233244854 29.9066552"></polygon>
                                                <polygon fill-opacity="0.13018" points="0.0231689888 10.0030943 17.2599637 19.9548747 34.4967584 10.0030943 17.2599637 0.0513138678"></polygon>
                                            </g>
                                        </g>
                                        <g id="Group" transform="translate(3.109931, 14.227936)" fill="#FFFFFF">
                                            <polygon id="Shape" points="2.33944588 0.310993138 0.0691959733 0.310993138 0.0691959733 11.2890509 2.33944588 11.2890509"></polygon>
                                            <path d="M6.2952786,11.2890509 L6.2952786,7.26168978 C6.85506625,7.30833875 7.4148539,7.30833875 7.88134361,7.30833875 C11.1156722,7.30833875 12.0486517,5.70672409 12.0486517,3.73191766 C12.0486517,1.33727049 10.3381894,0.310993138 7.69474773,0.310993138 L4.02502869,0.310993138 L4.02502869,11.2890509 L6.2952786,11.2890509 Z M7.5237015,5.70672409 C7.10386076,5.70672409 6.48187449,5.70672409 6.2952786,5.69117443 L6.2952786,1.95925677 L7.71029738,1.95925677 C9.07866719,1.95925677 9.85615004,2.61234236 9.85615004,3.80966594 L9.85615004,3.84076526 C9.85615004,4.77374467 9.51405759,5.70672409 7.5237015,5.70672409 L7.5237015,5.70672409 Z" id="Shape"></path>
                                            <polygon id="Shape" points="19.8219252 0.310993138 12.9334271 0.310993138 12.9334271 11.2890509 15.2036771 11.2890509 15.2036771 6.45310762 19.510932 6.45310762 19.510932 4.80484399 15.1881274 4.80484399 15.1881274 1.97480643 19.6664286 1.97480643"></polygon>
                                            <path d="M27.2515512,2.45684579 L27.8424382,0.932979415 C26.9561078,0.295443481 25.7587842,0.0621986277 24.2504674,0.0621986277 C22.0579658,0.0621986277 20.2542056,1.08847598 20.2542056,3.18767967 C20.2542056,5.06918816 21.6381251,5.81557169 23.0220446,6.26651174 L24.405964,6.73300145 C25.3544931,7.05954424 26.1319759,7.37053738 26.1319759,8.39681474 C26.1319759,9.32979415 25.3233938,9.70298592 24.0949709,9.70298592 C22.8509983,9.70298592 21.5137278,9.32979415 20.7517946,8.84775479 L20.1609077,10.4960184 C21.1560857,11.1335544 22.4156079,11.4445475 24.1105205,11.4445475 C26.5207174,11.4445475 28.3866762,10.3871708 28.3866762,8.13247057 C28.3866762,6.03326688 26.7850615,5.36463164 25.1678972,4.82039364 L23.6595805,4.32280462 C23.0064949,4.10510943 22.5089059,3.80966594 22.5089059,2.96998447 C22.5089059,2.11475334 23.2086404,1.77266089 24.2504674,1.77266089 C25.5255393,1.77266089 26.5207174,2.00590574 27.2515512,2.45684579 L27.2515512,2.45684579 Z" id="Shape"></path>
                                        </g>
                                    </g>
                                </g>
                            </g>
                        </g>
                        <g id="Group" transform="translate(175.476246, 256.763886) scale(1, -1) translate(-175.476246, -256.763886) translate(38.976246, 202.763886)">
                            <path d="M182.15826,107.107022 L218.53903,85.7364996" id="Path-4" stroke="#1D74F2" stroke-width="3"></path>
                            <g id="Group-8" transform="translate(217.883514, 38.675438)">
                                <path d="M54.4374999,17.2879592 C54.4374999,16.3262546 53.9245138,15.4377719 53.0916334,14.9568474 L28.6351066,0.836875478 C28.2322934,0.604311251 27.7842314,0.484243616 27.33468,0.476672575 C26.8548738,0.468592002 26.3733709,0.588659636 25.9433737,0.836875478 L1.48684689,14.9568474 C0.653966545,15.4376275 0.140980421,16.3262546 0.140980421,17.2879592 L0.140980421,45.5279031 C0.140980421,46.4896076 0.653966545,47.3780904 1.48684689,47.8590149 L25.9433737,61.9789868 C26.776254,62.4597669 27.8022263,62.4597669 28.6351066,61.9789868 L53.0916334,47.8590149 C53.9243693,47.3782348 54.4374999,46.4896076 54.4374999,45.5279031 L54.4374999,17.2879592 Z" id="Fill-1" stroke="#EF5133" stroke-width="3"></path>
                                <g id="4" transform="translate(8.691728, 12.810419)" fill="#F05033">
                                    <path d="M36.1063589,16.6439974 L20.1981693,0.73620437 C19.2821964,-0.180165082 17.7964169,-0.180165082 16.879651,0.73620437 L13.5765971,4.04005131 L17.7666776,8.23052832 C18.7405432,7.90141251 19.8571578,8.12227698 20.6335539,8.89827655 C21.4139152,9.67943095 21.6327971,10.8055622 21.2953542,11.7829965 L25.3343587,15.8216044 C26.311793,15.4845581 27.4387172,15.7026469 28.2190786,16.4841978 C29.3095225,17.5742452 29.3095225,19.3415575 28.2190786,20.432398 C27.1278416,21.523635 25.3609258,21.523635 24.2692923,20.432398 C23.4492784,19.6115911 23.2462576,18.4061548 23.6622124,17.3958089 L19.8952242,13.6292172 L19.8952242,23.5411546 C20.160896,23.6728009 20.4118964,23.848065 20.6335539,24.0689295 C21.7239978,25.1593734 21.7239978,26.9262892 20.6335539,28.0183192 C19.5431099,29.1083667 17.7750046,29.1083667 16.6849572,28.0183192 C15.5945132,26.9262892 15.5945132,25.1593734 16.6849572,24.0689295 C16.9545942,23.7996889 17.2666594,23.595875 17.5997405,23.4598669 L17.5997405,13.4559358 C17.2666594,13.3199277 16.9553873,13.1176999 16.6849572,12.8468733 C15.8593919,12.0213081 15.6603364,10.8087344 16.0842217,9.79442322 L11.9532234,5.66302845 L1.04481855,16.5702437 C0.128845621,17.4874062 0.128845621,18.9731857 1.04481855,19.8895552 L16.9538012,35.7973482 C17.8697741,36.7133211 19.355157,36.7133211 20.2723195,35.7973482 L36.1063589,19.9633088 C37.0231249,19.0469394 37.0231249,17.5603669 36.1063589,16.6439974" id="Fill-1" transform="translate(18.575886, 18.266628) scale(1, -1) translate(-18.575886, -18.266628) "></path>
                                </g>
                            </g>
                            <g id="Group-2" stroke="#B8B8B8" stroke-width="3">
                                <path d="M47.1517317,14.5314247 L47.1517317,5.47137788 C47.1517317,5.16284015 46.9871535,4.87779372 46.7199456,4.72350168 L38.8737091,0.193478255 C38.6065476,0.0392325538 38.2773449,0.0392325538 38.0101371,0.193478255 L30.1639005,4.72350168 C29.8966927,4.87774739 29.7321145,5.16284015 29.7321145,5.47137788 L29.7321145,14.5314247 C29.7321145,14.8399625 29.8966927,15.1250089 30.1639005,15.2793009 L38.0101371,19.8093244 C38.2773449,19.9635701 38.6065013,19.9635701 38.8737091,19.8093244 L46.7199456,15.2793009 C46.9871072,15.1250552 47.1517317,14.8399625 47.1517317,14.5314247" id="Fill-1"></path>
                                <path d="M17.6400582,66.4312643 L17.6400582,57.3712174 C17.6400582,57.0626797 17.47548,56.7776332 17.2082722,56.6233412 L9.36203567,52.0933178 C9.09487414,51.9390721 8.76567146,51.9390721 8.49846361,52.0933178 L0.652227094,56.6233412 C0.385019235,56.7775869 0.220441064,57.0626797 0.220441064,57.3712174 L0.220441064,66.4312643 C0.220441064,66.739802 0.385019235,67.0248484 0.652227094,67.1791405 L8.49846361,71.7091639 C8.76567146,71.8634096 9.09482781,71.8634096 9.36203567,71.7091639 L17.2082722,67.1791405 C17.4754337,67.0248948 17.6400582,66.739802 17.6400582,66.4312643" id="Fill-1"></path>
                                <path d="M17.3296588,56.5448803 L37.3906453,44.9626729 C38.0737147,44.5683028 38.4946209,43.8393874 38.4946209,43.0505288 L38.4946209,19.8861139 L38.4946209,19.8861139" id="Fill-1"></path>
                            </g>
                        </g>
                        <g id="Group" transform="translate(140.043435, 236.558130) scale(-1, -1) translate(-140.043435, -236.558130) translate(93.043435, 203.058130)">
                            <path d="M-3.11928261e-12,66.9100872 L50.1189627,38.1616467" id="Path-4" stroke="#1D74F2" stroke-width="3"></path>
                            <path d="M93.8936052,37.2219336 L93.8936052,14.0575187 C93.8936052,13.2686601 93.4728174,12.5398632 92.7896296,12.1453747 L72.7286431,0.563167219 C72.0455737,0.168797137 71.2038797,0.168797137 70.5206918,0.563167219 L50.4597054,12.1453747 C49.7765175,12.5397447 49.3557297,13.2686601 49.3557297,14.0575187 L49.3557297,37.2219336 C49.3557297,38.0107922 49.7765175,38.739589 50.4597054,39.1340776 L70.5206918,50.716285 C71.2038797,51.1106551 72.0454552,51.1106551 72.7286431,50.716285 L92.7896296,39.1340776 C93.4726989,38.7397075 93.8936052,38.0107922 93.8936052,37.2219336" id="Fill-1" stroke="#B8B8B8" stroke-width="3"></path>
                            <g id="3" transform="translate(71.214226, 26.494343) scale(-1, -1) translate(-71.214226, -26.494343) translate(60.714226, 9.494343)" fill-rule="nonzero">
                                <polygon id="Shape" fill="#343434" points="10.6108226 0.123920298 10.3845571 0.892980128 10.3845571 23.2093154 10.6108226 23.4351761 20.9698156 17.3120027"></polygon>
                                <polygon id="Shape" fill="#8C8C8C" points="10.6108954 0.123920298 0.251902366 17.3120027 10.6108954 23.4352571 10.6108954 12.6035756"></polygon>
                                <polygon id="Shape" fill="#3C3C3B" points="10.6108226 25.3965701 10.4833205 25.5520012 10.4833205 33.5015703 10.6108226 33.8740381 20.9759681 19.276473"></polygon>
                                <polygon id="Shape" fill="#8C8C8C" points="10.6108954 33.8739247 10.6108954 25.3964568 0.251902366 19.2763596"></polygon>
                                <polygon id="Shape" fill="#141414" points="10.6108226 23.4351519 20.9696537 17.3120594 10.6108226 12.6036323"></polygon>
                                <polygon id="Shape" fill="#393939" points="0.251975224 17.3120675 10.6108064 23.4351599 10.6108064 12.6036404"></polygon>
                            </g>
                        </g>
                        <path d="M238.747584,175.256927 C238.747584,174.007497 238.081121,172.853196 236.999058,172.228387 L205.225561,153.883964 C204.143685,153.259343 202.810572,153.259343 201.728508,153.883964 L169.955012,172.228387 C168.872948,172.853008 168.206486,174.007497 168.206486,175.256927 L168.206486,211.945773 C168.206486,213.195203 168.872948,214.349505 169.955012,214.974313 L201.728508,233.318737 C202.810572,233.943358 204.143498,233.943358 205.225561,233.318737 L236.999058,214.974313 C238.080934,214.349692 238.747584,213.195203 238.747584,211.945773 L238.747584,175.256927 Z" id="Fill-1" stroke="#1D74F2" stroke-width="5" fill="#FFFFFF"></path>
                        <g id="Group-4" transform="translate(331.920456, 119.446573) rotate(60.000000) translate(-331.920456, -119.446573) translate(273.420456, 67.446573)" stroke="#F7931A" stroke-width="3">
                            <g id="Group-2" transform="translate(58.389904, 51.988910) rotate(60.000000) translate(-58.389904, -51.988910) translate(26.389904, 3.488910)">
                                <path d="M63.6219631,20.031993 L63.6219631,7.87156335 C63.6219631,7.45744281 63.4010656,7.0748524 63.0424182,6.86776104 L52.5111694,0.787546187 C52.1525842,0.580517013 51.7107271,0.580517013 51.3520797,0.787546187 L40.8208309,6.86776104 C40.4621835,7.07479021 40.241286,7.45744281 40.241286,7.87156335 L40.241286,20.031993 C40.241286,20.4461136 40.4621835,20.828704 40.8208309,21.0357954 L51.3520797,27.1160102 C51.7107271,27.3230394 52.152522,27.3230394 52.5111694,27.1160102 L63.0424182,21.0357954 C63.4010034,20.8287662 63.6219631,20.4461136 63.6219631,20.031993" id="Fill-1"></path>
                                <path d="M24.0112816,89.692157 L24.0112816,77.5317273 C24.0112816,77.1176068 23.7903841,76.7350164 23.4317367,76.527925 L12.9004879,70.4477102 C12.5419027,70.240681 12.1000456,70.240681 11.7413982,70.4477102 L1.2101494,76.527925 C0.851501988,76.7349542 0.630604535,77.1176068 0.630604535,77.5317273 L0.630604535,89.692157 C0.630604535,90.1062776 0.851501988,90.488868 1.2101494,90.6959593 L11.7413982,96.7761742 C12.1000456,96.9832034 12.5418405,96.9832034 12.9004879,96.7761742 L23.4317367,90.6959593 C23.7903219,90.4889302 24.0112816,90.1062776 24.0112816,89.692157" id="Fill-1"></path>
                                <path d="M23.5946623,76.4226145 L50.5205955,60.8769312 C51.4374138,60.3476061 52.0023558,59.3692532 52.0023558,58.3104441 L52.0023558,27.2190775 L52.0023558,27.2190775" id="Fill-1"></path>
                            </g>
                            <path d="M58.4115498,73.8852404 L58.4115498,94.7149953" id="Path-6"></path>
                        </g>
                        <g id="Group-11" stroke="#5FCACE" stroke-width="3">
                            <g id="Group-4" transform="translate(77.907770, 40.405093)">
                                <g id="Group-2" transform="translate(44.495311, 39.464338) rotate(60.000000) translate(-44.495311, -39.464338) translate(20.495311, 2.964338)">
                                    <path d="M47.07571,14.9078292 L47.07571,5.84778237 C47.07571,5.53924463 46.9111318,5.25419821 46.6439239,5.09990617 L38.7976874,0.569882742 C38.5305259,0.41563704 38.2013232,0.41563704 37.9341154,0.569882742 L30.0878789,5.09990617 C29.820671,5.25415187 29.6560928,5.53924463 29.6560928,5.84778237 L29.6560928,14.9078292 C29.6560928,15.216367 29.820671,15.5014134 30.0878789,15.6557054 L37.9341154,20.1857289 C38.2013232,20.3399746 38.5304796,20.3399746 38.7976874,20.1857289 L46.6439239,15.6557054 C46.9110855,15.5014597 47.07571,15.216367 47.07571,14.9078292" id="Fill-1"></path>
                                    <path d="M17.5640365,66.8076688 L17.5640365,57.7476219 C17.5640365,57.4390842 17.3994583,57.1540377 17.1322505,56.9997457 L9.28601397,52.4697223 C9.01885245,52.3154766 8.68964977,52.3154766 8.42244191,52.4697223 L0.576205398,56.9997457 C0.30899754,57.1539914 0.144419368,57.4390842 0.144419368,57.7476219 L0.144419368,66.8076688 C0.144419368,67.1162065 0.30899754,67.4012529 0.576205398,67.555545 L8.42244191,72.0855684 C8.68964977,72.2398141 9.01880611,72.2398141 9.28601397,72.0855684 L17.1322505,67.555545 C17.399412,67.4012993 17.5640365,67.1162065 17.5640365,66.8076688" id="Fill-1"></path>
                                    <path d="M17.2536371,56.9212848 L37.3146236,45.3390773 C37.997693,44.9447073 38.4185992,44.2157919 38.4185992,43.4269333 L38.4185992,20.2625184 L38.4185992,20.2625184" id="Fill-1"></path>
                                </g>
                                <path d="M44.6004846,55.1677411 L44.6004846,70.6868107" id="Path-6"></path>
                            </g>
                            <g id="Group-4" transform="translate(56.466195, 59.100360) rotate(-60.000000) translate(-56.466195, -59.100360) translate(11.966195, 19.600360)">
                                <g id="Group-2" transform="translate(44.495311, 39.464338) rotate(60.000000) translate(-44.495311, -39.464338) translate(20.495311, 2.964338)">
                                    <path d="M47.07571,14.9078292 L47.07571,5.84778237 C47.07571,5.53924463 46.9111318,5.25419821 46.6439239,5.09990617 L38.7976874,0.569882742 C38.5305259,0.41563704 38.2013232,0.41563704 37.9341154,0.569882742 L30.0878789,5.09990617 C29.820671,5.25415187 29.6560928,5.53924463 29.6560928,5.84778237 L29.6560928,14.9078292 C29.6560928,15.216367 29.820671,15.5014134 30.0878789,15.6557054 L37.9341154,20.1857289 C38.2013232,20.3399746 38.5304796,20.3399746 38.7976874,20.1857289 L46.6439239,15.6557054 C46.9110855,15.5014597 47.07571,15.216367 47.07571,14.9078292" id="Fill-1"></path>
                                    <path d="M17.5640365,66.8076688 L17.5640365,57.7476219 C17.5640365,57.4390842 17.3994583,57.1540377 17.1322505,56.9997457 L9.28601397,52.4697223 C9.01885245,52.3154766 8.68964977,52.3154766 8.42244191,52.4697223 L0.576205398,56.9997457 C0.30899754,57.1539914 0.144419368,57.4390842 0.144419368,57.7476219 L0.144419368,66.8076688 C0.144419368,67.1162065 0.30899754,67.4012529 0.576205398,67.555545 L8.42244191,72.0855684 C8.68964977,72.2398141 9.01880611,72.2398141 9.28601397,72.0855684 L17.1322505,67.555545 C17.399412,67.4012993 17.5640365,67.1162065 17.5640365,66.8076688" id="Fill-1"></path>
                                    <path d="M17.2536371,56.9212848 L37.3146236,45.3390773 C37.997693,44.9447073 38.4185992,44.2157919 38.4185992,43.4269333 L38.4185992,20.2625184 L38.4185992,20.2625184" id="Fill-1"></path>
                                </g>
                                <path d="M44.6004846,55.1677411 L44.6004846,70.6868107" id="Path-6"></path>
                            </g>
                        </g>
                        <g id="Group-7" transform="translate(251.902867, 265.981637)" stroke="#EF5133" stroke-width="3">
                            <g id="Group-4" transform="translate(32.412510, 28.542807) scale(1, -1) translate(-32.412510, -28.542807) translate(0.412510, 0.042807)">
                                <g id="Group-2" transform="translate(31.802269, 28.541765) rotate(60.000000) translate(-31.802269, -28.541765) translate(14.302269, 2.041765)">
                                    <path d="M34.6318481,10.6532918 L34.6318481,3.9810795 C34.6318481,3.7538589 34.5106456,3.54393832 34.3138621,3.43031096 L28.5355525,0.0942047953 C28.3388031,-0.019388444 28.0963639,-0.019388444 27.8995805,0.0942047953 L22.1212708,3.43031096 C21.9244874,3.54390419 21.8032848,3.7538589 21.8032848,3.9810795 L21.8032848,10.6532918 C21.8032848,10.8805124 21.9244874,11.090433 22.1212708,11.2040604 L27.8995805,14.5401665 C28.0963639,14.6537598 28.338769,14.6537598 28.5355525,14.5401665 L34.3138621,11.2040604 C34.5106114,11.0904671 34.6318481,10.8805124 34.6318481,10.6532918" id="Fill-1"></path>
                                    <path d="M12.898169,48.8745896 L12.898169,42.2023773 C12.898169,41.9751567 12.7769664,41.7652361 12.580183,41.6516087 L6.80187334,38.3155026 C6.60512398,38.2019093 6.36268482,38.2019093 6.16590134,38.3155026 L0.38759172,41.6516087 C0.190808238,41.765202 0.0696057192,41.9751567 0.0696057192,42.2023773 L0.0696057192,48.8745896 C0.0696057192,49.1018102 0.190808238,49.3117308 0.38759172,49.4253581 L6.16590134,52.7614643 C6.36268482,52.8750575 6.60508986,52.8750575 6.80187334,52.7614643 L12.580183,49.4253581 C12.7769323,49.3117649 12.898169,49.1018102 12.898169,48.8745896" id="Fill-1"></path>
                                    <path d="M12.6695773,41.5938267 L27.4433598,33.0641857 C27.9464018,32.7737544 28.2563754,32.2369495 28.2563754,31.6559997 L28.2563754,14.5967177 L28.2563754,14.5967177" id="Fill-1"></path>
                                </g>
                                <path d="M31.9012933,40.2532039 L31.9012933,51.6821214" id="Path-6"></path>
                            </g>
                            <g id="Group-4" transform="translate(80.933885, 44.006823) rotate(480.000000) translate(-80.933885, -44.006823) translate(48.433885, 15.006823)">
                                <g id="Group-2" transform="translate(32.494963, 28.971915) rotate(60.000000) translate(-32.494963, -28.971915) translate(14.994963, 1.971915)">
                                    <path d="M34.6685991,10.9787734 L34.6685991,4.30656112 C34.6685991,4.07934052 34.5473965,3.86941994 34.3506131,3.75579258 L28.5723034,0.419686422 C28.3755541,0.306093183 28.1331149,0.306093183 27.9363314,0.419686422 L22.1580218,3.75579258 C21.9612383,3.86938582 21.8400358,4.07934052 21.8400358,4.30656112 L21.8400358,10.9787734 C21.8400358,11.205994 21.9612383,11.4159146 22.1580218,11.529542 L27.9363314,14.8656481 C28.1331149,14.9792414 28.37552,14.9792414 28.5723034,14.8656481 L34.3506131,11.529542 C34.5473624,11.4159487 34.6685991,11.205994 34.6685991,10.9787734" id="Fill-1"></path>
                                    <path d="M12.9349199,49.2000712 L12.9349199,42.5278589 C12.9349199,42.3006383 12.8137174,42.0907177 12.6169339,41.9770903 L6.83862432,38.6409842 C6.64187496,38.5273909 6.3994358,38.5273909 6.20265232,38.6409842 L0.424342701,41.9770903 C0.227559219,42.0906836 0.1063567,42.3006383 0.1063567,42.5278589 L0.1063567,49.2000712 C0.1063567,49.4272918 0.227559219,49.6372124 0.424342701,49.7508397 L6.20265232,53.0869459 C6.3994358,53.2005391 6.64184084,53.2005391 6.83862432,53.0869459 L12.6169339,49.7508397 C12.8136833,49.6372465 12.9349199,49.4272918 12.9349199,49.2000712" id="Fill-1"></path>
                                    <path d="M12.7063283,41.9193083 L27.4801108,33.3896673 C27.9831527,33.099236 28.2931264,32.5624311 28.2931264,31.9814813 L28.2931264,14.9221993 L28.2931264,14.9221993" id="Fill-1"></path>
                                </g>
                                <path d="M32.7635007,40.6279225 L32.7635007,52.05684" id="Path-6"></path>
                            </g>
                        </g>
                        <path d="M93.0564669,257.456836 L77.0285752,266.615631" id="Path-5" stroke="#B8B8B8" stroke-width="3"></path>
                        <text id="IPLD" fill="#1D74F2" font-family="OpenSans-Bold, Open Sans" font-size="20" font-weight="bold">
                            <tspan x="181.369953" y="199.498523">IPLD</tspan>
                        </text>
                    </g>
                </g>
            </g>
        </g>
    </g>
</svg>