<svg width="157" height="157" viewBox="0 0 157 157" xmlns="http://www.w3.org/2000/svg" xmlns:xlink="http://www.w3.org/1999/xlink"><title>Page 1</title><defs><path id="a" d="M0 156.787h157.35V.194H0z"/></defs><g fill="none" fill-rule="evenodd"><g transform="translate(0 .253)"><path d="M146.067 52.014c3.216 8.202 4.982 17.134 4.982 26.477 0 9.34-1.764 18.267-4.978 26.467M38.958 17.66C50.333 10.25 63.916 5.944 78.503 5.944c12.355 0 23.988 3.088 34.17 8.535M9.489 100.915a72.49 72.49 0 0 1-3.532-22.424 72.394 72.394 0 0 1 4.98-26.472m107.118 87.298c-11.376 7.413-24.96 11.72-39.552 11.72-14.584 0-28.164-4.304-39.538-11.711" stroke="#CBDFFC" stroke-width="2.301" stroke-linecap="round" stroke-linejoin="round"/><path fill="#F6AC47" d="M21.797 52.025L5.519 30.802 21.797 9.578l16.278 21.224z"/><path stroke="#CBDFFC" stroke-width="2.1" d="M21.797 52.025L5.519 30.802 21.797 9.578l16.278 21.224z"/><mask id="b" fill="#fff"><use xlink:href="#a"/></mask><path fill="#6D81DA" mask="url(#b)" d="M121.846 43.887h28.248V15.639h-28.248z"/><path stroke="#CBDFFC" stroke-width="2.1" mask="url(#b)" d="M121.846 43.887h28.248V15.639h-28.248z"/><path d="M38.968 125.017c.133 10.009-7.872 18.231-17.882 18.364-10.008.134-18.23-7.872-18.364-17.88-.133-10.01 7.873-18.231 17.882-18.366 10.009-.133 18.23 7.874 18.364 17.882" fill="#16CEC1" mask="url(#b)"/><path d="M38.968 125.017c.133 10.009-7.872 18.231-17.882 18.364-10.008.134-18.23-7.872-18.364-17.88-.133-10.01 7.873-18.231 17.882-18.366 10.009-.133 18.23 7.874 18.364 17.882z" stroke="#CBDFFC" stroke-width="2.1" stroke-linecap="round" stroke-linejoin="round" mask="url(#b)"/><path fill="#12B5E8" mask="url(#b)" d="M135.97 145.119l-19.86-19.86 19.86-19.86 19.86 19.86z"/><path stroke="#CBDFFC" stroke-width="2.1" stroke-linecap="round" stroke-linejoin="round" mask="url(#b)" d="M135.97 145.119l-19.86-19.86 19.86-19.86 19.86 19.86z"/><path fill="#0698FC" mask="url(#b)" d="M50.748 62.482l27.964-16.146 27.966 16.146v32.291L78.712 110.92 50.748 94.773z"/><path stroke="#CBDFFC" stroke-width="2.169" stroke-linecap="round" stroke-linejoin="round" mask="url(#b)" d="M50.748 62.482l27.964-16.146 27.966 16.146v32.291L78.712 110.92 50.748 94.773z"/><g mask="url(#b)" stroke-linecap="round" stroke="#0693FC" stroke-width="2.562" stroke-linejoin="round"><path d="M78.713 38.264v-19.09m0 117.388v-19.089"/></g><g mask="url(#b)" stroke-linecap="round" stroke="#0693FC" stroke-width="2.562" stroke-linejoin="round"><path d="M58.008 43.323l-4.558-7.897m49.006 84.884l-4.558-7.897"/></g><g mask="url(#b)" stroke-linecap="round" stroke="#0693FC" stroke-width="2.562" stroke-linejoin="round"><path d="M43.408 57.923l-7.897-4.558m84.883 49.006l-7.897-4.558"/></g><g mask="url(#b)" stroke-linecap="round" stroke="#0693FC" stroke-width="2" stroke-linejoin="round"><path d="M37.13 78.106H19.757m115.808 0h-18.819"/></g><g mask="url(#b)" stroke-linecap="round" stroke="#0693FC" stroke-width="2.562" stroke-linejoin="round"><path d="M43.408 97.813l-7.897 4.558m84.883-49.006l-7.897 4.558"/></g><g mask="url(#b)" stroke-linecap="round" stroke="#0693FC" stroke-width="2.562" stroke-linejoin="round"><path d="M58.008 112.413l-4.558 7.897m49.006-84.883l-4.558 7.896"/></g></g><text font-family="OpenSans-Extrabold, Open Sans" font-size="17.16" font-weight="600" fill="#FFF"><tspan x="60.008" y="85.046">IPLD</tspan></text><path d="M83.273 151.29a4.56 4.56 0 1 1-9.12 0 4.56 4.56 0 1 1 9.12 0" fill="#DCF3FF"/><path d="M83.273 151.29a4.56 4.56 0 1 1-9.12 0 4.56 4.56 0 1 1 9.12 0z" stroke="#CBDFFC" stroke-width="1.643"/><path d="M83.273 6.197a4.56 4.56 0 1 1-9.12 0 4.56 4.56 0 1 1 9.12 0" fill="#DCF3FF"/><path d="M83.273 6.197a4.56 4.56 0 1 1-9.12 0 4.56 4.56 0 1 1 9.12 0z" stroke="#CBDFFC" stroke-width="1.643"/><path d="M155.61 78.156a4.56 4.56 0 1 1-9.12 0 4.56 4.56 0 1 1 9.12 0" fill="#DCF3FF"/><path d="M155.61 78.156a4.56 4.56 0 1 1-9.12 0 4.56 4.56 0 1 1 9.12 0z" stroke="#CBDFFC" stroke-width="1.643"/><path d="M9.502 78.087a4.203 4.203 0 1 1-8.405-.001 4.203 4.203 0 0 1 8.405 0" fill="#DCF3FF"/><path d="M9.502 78.087a4.203 4.203 0 1 1-8.405-.001 4.203 4.203 0 0 1 8.405 0z" stroke="#CBDFFC" stroke-width="1.515"/><path d="M-30-15h218v188H-30z"/></g></svg>