<?xml version="1.0" encoding="UTF-8" standalone="no"?>
<svg width="221px" height="251px" viewBox="0 0 221 251" version="1.1" xmlns="http://www.w3.org/2000/svg" xmlns:xlink="http://www.w3.org/1999/xlink">
    <!-- Generator: Sketch 43.2 (39069) - http://www.bohemiancoding.com/sketch -->
    <title>logotype_IPLD</title>
    <desc>Created with Sketch.</desc>
    <defs></defs>
    <g id="Page-1" stroke="none" stroke-width="1" fill="none" fill-rule="evenodd">
        <g id="Main_page" transform="translate(-609.000000, -319.000000)" fill-rule="nonzero">
            <g id="Header_image">
                <g id="Logos" transform="translate(391.000000, 217.000000)">
                    <g id="logotype_IPLD" transform="translate(218.570312, 101.571409)">
                        <g id="Layer_1">
                            <g id="Group">
                                <g>
                                    <path d="M220.306416,183.0625 L220.306416,68.5939952 C220.306416,64.6957975 218.227065,61.0943991 214.851047,59.1450076 L115.71834,1.91075495 C112.342907,-0.0380511862 108.18362,-0.0380511862 104.807602,1.91075495 L5.67489536,59.1450076 C2.29887705,61.0938137 0.219526074,64.6957975 0.219526074,68.5939952 L0.219526074,183.0625 C0.219526074,186.960698 2.29887705,190.562097 5.67489536,192.511488 L104.807602,249.745741 C108.18362,251.694547 112.342322,251.694547 115.71834,249.745741 L214.851047,192.511488 C218.22648,190.562682 220.306416,186.960698 220.306416,183.0625 Z" id="Shape" fill="#1D74F2"></path>
                                    <g transform="translate(11.708057, 14.635072)" fill="#FFFFFF">
                                        <path d="M98.5549138,219.063606 L3.83497416,163.600782 L3.83497416,59.3639482 L98.5519868,3.32333206 L98.6878002,3.40060524 L193.275439,57.1288801 L193.275439,163.600782 L193.141967,163.678641 L98.5549138,219.063606 Z M4.3735448,163.291689 L98.5549138,218.439566 L192.736283,163.291689 L192.736283,57.4420706 L98.5578408,3.9456153 L4.3735448,59.6706993 L4.3735448,163.291689 Z" id="Shape"></path>
                                        <rect id="Rectangle-path" x="96.4000458" y="34.1605987" width="4.30973588" height="184.591573"></rect>
                                        <circle id="Oval" cx="98.5549138" cy="34.5194507" r="6.78481919"></circle>
                                        <polygon id="Shape" points="96.4925395 84.6041781 75.7792299 71.5192533 75.7792299 46.4160077 80.0889658 46.4160077 80.0889658 69.1448593 98.7949289 80.9606307"></polygon>
                                        <g transform="translate(97.762278, 100.689293)">
                                            <polygon id="Shape" points="2.44464236 69.9808146 0.142252896 66.3372671 71.0368813 21.5539481 71.0368813 11.7548895 75.3466172 11.7548895 75.3466172 23.9289275"></polygon>
                                            <circle id="Oval" cx="73.1917493" cy="7.19752821" r="6.78481919"></circle>
                                        </g>
                                        <rect id="Rectangle-path" x="132.104352" y="97.0053524" width="4.30973588" height="50.2796666"></rect>
                                        <polygon id="Shape" points="96.9509099 136.079237 44.4742264 107.235853 44.4742264 84.2359597 48.7839623 84.2359597 48.7839623 104.757257 99.1180713 132.354904"></polygon>
                                        <circle id="Oval" cx="46.6296797" cy="82.3252048" r="6.78481919"></circle>
                                        <circle id="Oval" cx="77.9346833" cy="51.5218915" r="6.78481919"></circle>
                                        <g transform="translate(97.176875, 69.077538)">
                                            <path d="M44.6246749,11.8028925 L44.6246749,21.6025365 L0.386951293,49.5473276 C0.420904659,51.2104571 0.480030349,52.8788553 0.538570635,54.5490097 L48.9344108,23.9775159 L48.9344108,11.8034779 L44.6246749,11.8034779 L44.6246749,11.8028925 Z" id="Shape"></path>
                                            <circle id="Oval" cx="46.7795429" cy="7.24553125" r="6.78481919"></circle>
                                        </g>
                                        <polygon id="Shape" points="100.051789 97.0053524 120.765098 83.921013 120.765098 58.8177674 116.455363 58.8177674 116.455363 81.5460336 97.7493994 93.361805"></polygon>
                                        <circle id="Oval" cx="118.609645" cy="58.8177674" r="6.78481919"></circle>
                                        <circle id="Oval" cx="76.9014472" cy="94.801896" r="6.78481919"></circle>
                                        <rect id="Rectangle-path" x="74.7471647" y="96.4252182" width="4.30973588" height="27.0942008"></rect>
                                        <g transform="translate(19.318295, 107.714127)">
                                            <polygon id="Shape" points="78.0681551 63.5220648 80.3705446 59.8785174 9.47591616 21.2214392 9.47591616 11.4217953 5.16618028 11.4217953 5.16618028 23.5964186"></polygon>
                                            <circle id="Oval" cx="7.32104822" cy="6.86501939" r="6.78481919"></circle>
                                        </g>
                                        <rect id="Rectangle-path" x="52.3338452" y="111.193176" width="3.86014649" height="34.8414223"></rect>
                                        <circle id="Oval" cx="98.5549138" cy="218.042663" r="3.78404411"></circle>
                                        <g transform="translate(0.000000, 56.198675)" id="Oval">
                                            <circle cx="3.83497416" cy="107.402107" r="3.78404411"></circle>
                                            <circle cx="3.83497416" cy="4.21197361" r="3.78404411"></circle>
                                        </g>
                                        <g transform="translate(189.085125, 56.198675)" id="Oval">
                                            <circle cx="4.1897283" cy="107.160336" r="3.78404411"></circle>
                                            <circle cx="4.1897283" cy="3.97078763" r="3.78404411"></circle>
                                        </g>
                                        <circle id="Oval" cx="98.5519868" cy="4.34427465" r="3.78404411"></circle>
                                    </g>
                                </g>
                            </g>
                        </g>
                    </g>
                </g>
            </g>
        </g>
    </g>
</svg>