<svg width="217" height="187" viewBox="0 0 217 187" xmlns="http://www.w3.org/2000/svg" xmlns:xlink="http://www.w3.org/1999/xlink"><title>Page 1</title><defs><path id="a" d="M0 187.44h217.401V0H0z"/></defs><g transform="translate(-.234 -.28)" fill="none" fill-rule="evenodd"><path d="M35.147 159.526l12.48-19.445a87.405 87.405 0 0 1 39.9-33.454l32.131-13.404" stroke="#17CEC1" stroke-width="3" stroke-linecap="round" stroke-linejoin="round"/><path d="M119.658 93.223l-32.053-13.34a87.39 87.39 0 0 1-40.003-33.53L35.147 26.92" stroke="#6D81D9" stroke-width="3" stroke-linecap="round" stroke-linejoin="round"/><path d="M40.053 26.885a4.377 4.377 0 1 1-8.755 0 4.377 4.377 0 1 1 8.755 0" fill="#DCF3FF"/><path d="M40.053 26.885a4.377 4.377 0 1 1-8.755 0 4.377 4.377 0 1 1 8.755 0z" stroke="#CBDFFC" stroke-width="1.643"/><path d="M40.053 159.526a4.377 4.377 0 1 1-8.755 0 4.377 4.377 0 1 1 8.755 0" fill="#DCF3FF"/><path d="M40.053 159.526a4.377 4.377 0 1 1-8.755 0 4.377 4.377 0 1 1 8.755 0z" stroke="#CBDFFC" stroke-width="1.643"/><path d="M111.201 94.258l-43.709 5.9A87.42 87.42 0 0 0 31.3 113.66L5.52 130.544" stroke="#F6AC47" stroke-width="3" stroke-linecap="round" stroke-linejoin="round"/><path d="M5.52 57.292l26.253 16.553a87.386 87.386 0 0 0 34.949 12.688l43.73 5.89" stroke="#12B5E8" stroke-width="3" stroke-linecap="round" stroke-linejoin="round"/><path d="M9.897 131.668a4.377 4.377 0 1 1-8.755 0 4.377 4.377 0 1 1 8.755 0" fill="#DCF3FF"/><path d="M9.897 131.668a4.377 4.377 0 1 1-8.755 0 4.377 4.377 0 1 1 8.755 0z" stroke="#CBDFFC" stroke-width="1.643"/><path d="M9.897 57.292a4.377 4.377 0 1 1-8.755 0 4.377 4.377 0 1 1 8.755 0" fill="#DCF3FF"/><path d="M9.897 57.292a4.377 4.377 0 1 1-8.755 0 4.377 4.377 0 1 1 8.755 0z" stroke="#CBDFFC" stroke-width="1.643"/><path d="M44.253 134.193l11.673-6.801c.777-.454 1.724.233 1.533 1.111l-2.842 13.209a1.035 1.035 0 0 1-1.62.62l-8.83-6.407a1.036 1.036 0 0 1 .086-1.732" fill="#0BD6B9"/><path d="M41.053 48.634l11.673 6.801c.777.453 1.723-.233 1.533-1.111l-2.842-13.21a1.035 1.035 0 0 0-1.62-.619l-8.83 6.406c-.606.44-.56 1.357.086 1.733" fill="#6D81D9"/><path d="M26.478 77.923L39.85 79.84c.89.128 1.509-.863 1.003-1.607l-7.596-11.171a1.035 1.035 0 0 0-1.734.033l-5.777 9.255a1.035 1.035 0 0 0 .73 1.573" fill="#16BBEF"/><path d="M26.478 109.72l13.373-1.917c.89-.128 1.509.863 1.003 1.606l-7.596 11.172a1.035 1.035 0 0 1-1.734-.033l-5.777-9.256a1.035 1.035 0 0 1 .73-1.573" fill="#F6AC47"/><path d="M81.976 94.47c6.804 0 6.804 9.211 13.608 9.211 6.806 0 6.806-9.212 13.612-9.212 6.805 0 6.805 9.212 13.609 9.212 6.806 0 6.806-9.212 13.611-9.212 6.808 0 6.808 9.212 13.615 9.212s6.807-9.212 13.612-9.212c6.806 0 6.806 9.212 13.613 9.212 6.807 0 6.807-9.212 13.615-9.212 4.463 0 8.848 1.363 12.708 3.952l7.843 5.26" stroke="#17CEC1" stroke-width="3" stroke-linecap="round" stroke-linejoin="round"/><path d="M81.976 82.186c6.804 0 6.804 9.212 13.608 9.212 6.806 0 6.806-9.212 13.612-9.212 6.805 0 6.805 9.212 13.609 9.212 6.806 0 6.806-9.212 13.611-9.212 6.808 0 6.808 9.212 13.615 9.212s6.807-9.212 13.612-9.212c6.806 0 6.806 9.212 13.613 9.212 6.807 0 6.807-9.212 13.615-9.212 4.326 0 8.438-2.178 11.261-5.965l9.29-12.461" stroke="#6D81D9" stroke-width="3" stroke-linecap="round" stroke-linejoin="round"/><path d="M81.976 91.398c6.812 0 6.812-9.212 13.626-9.212 6.812 0 6.812 9.212 13.624 9.212 6.808 0 6.808-9.212 13.616-9.212 6.81 0 6.81 9.212 13.62 9.212 6.808 0 6.808-9.212 13.616-9.212 6.807 0 6.807 9.212 13.612 9.212 6.807 0 6.807-9.212 13.612-9.212 6.808 0 6.808 9.212 13.616 9.212 4.433 0 8.787-1.353 12.62-3.924l7.884-5.288" stroke="#16BBEF" stroke-width="3" stroke-linecap="round" stroke-linejoin="round"/><path d="M81.976 103.682c6.812 0 6.812-9.212 13.626-9.212 6.812 0 6.812 9.212 13.624 9.212 6.808 0 6.808-9.212 13.616-9.212 6.81 0 6.81 9.212 13.62 9.212 6.808 0 6.808-9.212 13.616-9.212 6.807 0 6.807 9.212 13.612 9.212 6.807 0 6.807-9.212 13.612-9.212 6.808 0 6.808 9.212 13.616 9.212 4.297 0 8.38 2.162 11.183 5.922l9.321 12.503" stroke="#F6AC47" stroke-width="3" stroke-linecap="round" stroke-linejoin="round"/><path d="M206.586 122.107a4.836 4.836 0 1 1 9.674 0 4.836 4.836 0 0 1-9.674 0" fill="#DCF3FF"/><path d="M206.586 122.107a4.836 4.836 0 1 1 9.674 0 4.836 4.836 0 0 1-9.674 0z" stroke="#CBDFFC" stroke-width="1.643"/><path d="M206.586 103.682a4.836 4.836 0 1 1 9.674 0 4.836 4.836 0 0 1-9.674 0" fill="#DCF3FF"/><path d="M206.586 103.682a4.836 4.836 0 1 1 9.674 0 4.836 4.836 0 0 1-9.674 0z" stroke="#CBDFFC" stroke-width="1.643"/><path d="M206.586 82.186a4.836 4.836 0 1 1 9.674 0 4.836 4.836 0 0 1-9.674 0" fill="#DCF3FF"/><path d="M206.586 82.186a4.836 4.836 0 1 1 9.674 0 4.836 4.836 0 0 1-9.674 0z" stroke="#CBDFFC" stroke-width="1.643"/><path d="M206.586 63.76a4.836 4.836 0 1 1 9.674 0 4.836 4.836 0 0 1-9.674 0" fill="#DCF3FF"/><path d="M206.586 63.76a4.836 4.836 0 1 1 9.674 0 4.836 4.836 0 0 1-9.674 0z" stroke="#CBDFFC" stroke-width="1.643"/><path d="M125.891 92.934a2.554 2.554 0 1 1 5.11 0 2.554 2.554 0 0 1-5.11 0" fill="#FFF"/><path fill="#0698FC" d="M162.974 117.444l-42.808 24.716-42.809-24.716v-49.43l42.81-24.715 42.807 24.715z"/><path stroke="#CBDFFC" stroke-width="2.169" stroke-linecap="round" stroke-linejoin="round" d="M162.974 117.444l-42.808 24.716-42.809-24.716v-49.43l42.81-24.715 42.807 24.715z"/><mask id="b" fill="#fff"><use xlink:href="#a"/></mask><path fill="#FFF" mask="url(#b)" d="M95.174 99.311H99.7v-16.66h-4.525zm12.629-9.198h.82c.677 0 1.213-.189 1.612-.568.399-.38.6-.905.6-1.575 0-1.124-.625-1.685-1.87-1.685h-1.162v3.828zm7.59-2.165c0 1.862-.55 3.3-1.647 4.314-1.098 1.014-2.658 1.523-4.678 1.523h-1.265v5.525h-4.502V82.65h5.767c2.104 0 3.684.46 4.74 1.38 1.056.918 1.584 2.225 1.584 3.918zm2.654 11.362V82.65h4.503v13.025h6.415v3.636zm23.053-8.524c0-1.527-.304-2.659-.905-3.395-.605-.737-1.522-1.106-2.753-1.106h-1.31v9.334h1.001c1.369 0 2.372-.397 3.01-1.192.637-.794.956-2.007.956-3.641m4.672-.159c0 2.781-.764 4.924-2.295 6.428-1.53 1.503-3.682 2.255-6.455 2.255h-5.39V82.65h5.765c2.674 0 4.739.684 6.194 2.05 1.455 1.368 2.181 3.344 2.181 5.927"/><g mask="url(#b)" stroke-linecap="round" stroke="#CBDFFC" stroke-width="2.169" stroke-linejoin="round"><path d="M120.294 157.708v28.225m32.083-38.931l7.322 12.855m-80.841-.001l7.322-12.854m88.605-21.675l26.68 13.69"/></g><g mask="url(#b)" stroke-linecap="round" stroke="#CBDFFC" stroke-width="2.169" stroke-linejoin="round"><path d="M120.294 29.732V1.506m32.083 38.931l7.322-12.854m-80.841 0l7.322 12.854m88.605 21.675l26.68-13.69"/></g></g></svg>