<svg width="148" height="173" viewBox="0 0 148 173" xmlns="http://www.w3.org/2000/svg"><title>Group</title><g fill="none" fill-rule="evenodd"><path d="M74 153.73v11.715M23.303 106.26H1.112m30.608 26.585l-10.106 5.784m0-63.855l10.106 5.784m17.041 69.987l-10.763 21.073m85.922-65.358h22.192m-30.609 26.585l10.107 5.784m0-63.855l-10.107 5.784m-17.041 69.987l10.763 21.073" stroke="#CBDFFC" stroke-width="2.169" stroke-linecap="round" stroke-linejoin="round"/><path d="M142.012 45.526H7.396a3.285 3.285 0 0 1-3.278-3.294V4.912a3.285 3.285 0 0 1 3.278-3.294h134.616a3.285 3.285 0 0 1 3.278 3.294v37.32a3.285 3.285 0 0 1-3.278 3.294" fill="#DEEDFF" opacity=".335"/><path d="M4.119 25.767v16.465a3.285 3.285 0 0 0 3.277 3.294h134.616a3.285 3.285 0 0 0 3.278-3.294V25.767H4.12z" fill="#A0CDF9" opacity=".263"/><text font-family="OpenSans-Extrabold, Open Sans" font-size="10" font-weight="600" fill="#0698FC" transform="translate(1 1)"><tspan x="19.507" y="14.521">V.1</tspan></text><path d="M23.728 25.368c0-2.425 1.957-4.39 4.37-4.39 2.414 0 4.37 1.965 4.37 4.39s-1.956 4.39-4.37 4.39c-2.413 0-4.37-1.965-4.37-4.39z" fill="#DCF3FF"/><path d="M23.728 25.368c0-2.425 1.957-4.39 4.37-4.39 2.414 0 4.37 1.965 4.37 4.39s-1.956 4.39-4.37 4.39c-2.413 0-4.37-1.965-4.37-4.39z" stroke="#0BD6B9" stroke-width="1.643"/><path d="M70.334 25.368c0-2.425 1.957-4.39 4.37-4.39 2.414 0 4.37 1.965 4.37 4.39s-1.956 4.39-4.37 4.39c-2.413 0-4.37-1.965-4.37-4.39" fill="#DCF3FF"/><path d="M70.334 25.368c0-2.425 1.957-4.39 4.37-4.39 2.414 0 4.37 1.965 4.37 4.39s-1.956 4.39-4.37 4.39c-2.413 0-4.37-1.965-4.37-4.39z" stroke="#F45C21" stroke-width="1.643"/><path d="M118.88 25.368c0-2.425 1.956-4.39 4.37-4.39 2.413 0 4.37 1.965 4.37 4.39s-1.957 4.39-4.37 4.39c-2.414 0-4.37-1.965-4.37-4.39" fill="#DCF3FF"/><path d="M118.88 25.368c0-2.425 1.956-4.39 4.37-4.39 2.413 0 4.37 1.965 4.37 4.39s-1.957 4.39-4.37 4.39c-2.414 0-4.37-1.965-4.37-4.39z" stroke="#C37CED" stroke-width="1.643"/><path stroke="#CBDFFC" stroke-width="2" d="M108.36 127.84l-33.655 19.523-33.657-19.522V88.796l33.657-19.522 33.656 19.522z"/><text font-family="OpenSans-Extrabold, Open Sans" font-size="10" font-weight="600" fill="#0698FC" transform="translate(1 1)"><tspan x="66.488" y="14.521">V.2</tspan></text><text font-family="OpenSans-Extrabold, Open Sans" font-size="10" font-weight="600" fill="#0698FC" transform="translate(1 1)"><tspan x="114.562" y="14.521">V.3</tspan></text><path d="M142.012 45.526H7.396a3.285 3.285 0 0 1-3.278-3.294V4.912a3.285 3.285 0 0 1 3.278-3.294h134.616a3.285 3.285 0 0 1 3.278 3.294v37.32a3.285 3.285 0 0 1-3.278 3.294z" stroke="#CBDFFC" stroke-width="2.169" stroke-linecap="round" stroke-linejoin="round"/><path d="M74 26.865v59.64" stroke="#F45C21" stroke-width="3" stroke-linecap="round" stroke-linejoin="round"/><path d="M28.099 26.466v14.212c0 17.52 9.871 33.53 25.484 41.333L77.33 93.88" stroke="#0BD6B9" stroke-width="3" stroke-linecap="round" stroke-linejoin="round"/><path d="M74.704 95.287l24.22-12.978c14.972-8.023 24.325-23.685 24.325-40.733v-15.11" stroke="#C37CED" stroke-width="3" stroke-linecap="round" stroke-linejoin="round"/><path fill="#0698FC" d="M108.36 127.84l-33.655 19.523-33.657-19.522V88.796l33.657-19.522 33.656 19.522z"/><path fill="#FFF" d="M55.057 113.518h3.557v-13.16h-3.557zm9.928-7.266h.645c.532 0 .953-.15 1.267-.449.314-.3.47-.714.47-1.243 0-.888-.49-1.332-1.469-1.332h-.913v3.024zm5.967-1.71c0 1.47-.432 2.607-1.295 3.407-.863.802-2.09 1.203-3.678 1.203h-.994v4.365h-3.54v-13.16h4.534c1.654 0 2.897.363 3.727 1.09.83.725 1.246 1.758 1.246 3.095zm2.087 8.975v-13.16h3.54v10.289h5.043v2.871zm18.124-6.733c0-1.207-.238-2.1-.711-2.682-.476-.582-1.197-.874-2.165-.874h-1.029v7.373h.787c1.076 0 1.865-.314 2.366-.941.5-.627.752-1.586.752-2.876m3.673-.126c0 2.197-.6 3.89-1.805 5.077-1.203 1.188-2.894 1.782-5.075 1.782h-4.238v-13.16h4.533c2.102 0 3.726.54 4.87 1.62 1.144 1.08 1.715 2.64 1.715 4.681"/><path d="M1-6h147v188H1z"/></g></svg>