<?xml version="1.0" encoding="UTF-8" standalone="no"?>
<svg width="134px" height="81px" viewBox="0 0 134 81" version="1.1" xmlns="http://www.w3.org/2000/svg" xmlns:xlink="http://www.w3.org/1999/xlink">
    <!-- Generator: Sketch 43.2 (39069) - http://www.bohemiancoding.com/sketch -->
    <title>logotype_IPLD</title>
    <desc>Created with Sketch.</desc>
    <defs></defs>
    <g id="Page-1" stroke="none" stroke-width="1" fill="none" fill-rule="evenodd">
        <g id="Main_page" transform="translate(-250.000000, -20.000000)" fill-rule="nonzero">
            <g id="Menu">
                <g id="Group-9">
                    <g id="logotype_IPLD" transform="translate(250.000000, 20.000000)">
                        <g id="Layer_1">
                            <g id="Group">
                                <g transform="translate(0.000000, 0.000000)">
                                    <path d="M70.6376494,58.6959969 L70.6376494,21.9935428 C70.6376494,20.7436494 69.9709395,19.5889199 68.8884745,18.9638794 L37.1031934,0.612652326 C36.020916,-0.0122004906 34.6873085,-0.0122004906 33.6048435,0.612652326 L1.81956239,18.9638794 C0.737097329,19.5887322 0.0703874455,20.7436494 0.0703874455,21.9935428 L0.0703874455,58.6959969 C0.0703874455,59.9458903 0.737097329,61.1006198 1.81956239,61.7256603 L33.6048435,80.0768874 C34.6873085,80.7017402 36.0207283,80.7017402 37.1031934,80.0768874 L68.8884745,61.7256603 C69.9707518,61.1008075 70.6376494,59.9458903 70.6376494,58.6959969 Z" id="Shape" fill="#1D74F2"></path>
                                    <g transform="translate(3.753997, 4.692496)" fill="#FFFFFF">
                                        <path d="M31.6000213,70.2391626 L1.22962175,52.4559153 L1.22962175,19.0340792 L31.5990828,1.06557207 L31.6426292,1.09034846 L61.9706086,18.3174411 L61.9706086,52.4559153 L61.927813,52.4808794 L31.6000213,70.2391626 Z M1.40230561,52.3568098 L31.6000213,70.0390746 L61.797737,52.3568098 L61.797737,18.4178605 L31.6009598,1.26509702 L1.40230561,19.1324339 L1.40230561,52.3568098 Z" id="Shape"></path>
                                        <rect id="Rectangle-path" x="30.9090982" y="10.9530373" width="1.38184633" height="59.186269"></rect>
                                        <circle id="Oval" cx="31.6000213" cy="11.0680973" r="2.17544132"></circle>
                                        <polygon id="Shape" points="30.9387547 27.1269461 24.2973708 22.9314789 24.2973708 14.8825338 25.6792171 14.8825338 25.6792171 22.1701683 31.6769783 25.9587022"></polygon>
                                        <g transform="translate(31.345876, 32.284375)">
                                            <polygon id="Shape" points="0.783834593 22.4382037 0.0456110647 21.2699598 22.7768143 6.91092095 22.7768143 3.76901308 24.1586606 3.76901308 24.1586606 7.67241926"></polygon>
                                            <circle id="Oval" cx="23.4677374" cy="2.30776971" r="2.17544132"></circle>
                                        </g>
                                        <rect id="Rectangle-path" x="42.3571" y="31.1031798" width="1.38184633" height="16.1213528"></rect>
                                        <polygon id="Shape" points="31.0857237 43.631582 14.2599334 34.3834225 14.2599334 27.0088829 15.6417797 27.0088829 15.6417797 33.5887013 31.7805886 42.4374355"></polygon>
                                        <circle id="Oval" cx="14.9510442" cy="26.3962306" r="2.17544132"></circle>
                                        <circle id="Oval" cx="24.9884816" cy="16.5196519" r="2.17544132"></circle>
                                        <g transform="translate(31.158176, 22.148583)">
                                            <path d="M14.3081722,3.78440447 L14.3081722,6.92650004 L0.124069604,15.8865403 C0.134956195,16.4197956 0.153913881,16.9547402 0.172683866,17.4902479 L15.6900186,7.68799835 L15.6900186,3.78459217 L14.3081722,3.78459217 L14.3081722,3.78440447 Z" id="Shape"></path>
                                            <circle id="Oval" cx="14.9990954" cy="2.3231611" r="2.17544132"></circle>
                                        </g>
                                        <polygon id="Shape" points="32.0799699 31.1031798 38.7213538 26.9079004 38.7213538 18.8589552 37.3395075 18.8589552 37.3395075 26.1464021 31.3417463 29.9349359"></polygon>
                                        <circle id="Oval" cx="38.030243" cy="18.8589552" r="2.17544132"></circle>
                                        <circle id="Oval" cx="24.6571914" cy="30.3966776" r="2.17544132"></circle>
                                        <rect id="Rectangle-path" x="23.9664559" y="30.9171693" width="1.38184633" height="8.68731237"></rect>
                                        <g transform="translate(6.194095, 34.536773)">
                                            <polygon id="Shape" points="25.0312772 20.3673112 25.7695007 19.1990673 3.03829755 6.80430743 3.03829755 3.66221186 1.65645122 3.66221186 1.65645122 7.56580574"></polygon>
                                            <circle id="Oval" cx="2.34737438" cy="2.2011562" r="2.17544132"></circle>
                                        </g>
                                        <rect id="Rectangle-path" x="16.7799916" y="35.6522735" width="1.23769284" height="11.1713322"></rect>
                                        <circle id="Oval" cx="31.6000213" cy="69.9118141" r="1.21329186"></circle>
                                        <g transform="translate(0.000000, 18.019186)" id="Oval">
                                            <circle cx="1.22962175" cy="34.4367292" r="1.21329186"></circle>
                                            <circle cx="1.22962175" cy="1.35050045" r="1.21329186"></circle>
                                        </g>
                                        <g transform="translate(60.627053, 18.019186)" id="Oval">
                                            <circle cx="1.34336786" cy="34.3592092" r="1.21329186"></circle>
                                            <circle cx="1.34336786" cy="1.27316811" r="1.21329186"></circle>
                                        </g>
                                        <circle id="Oval" cx="31.5990828" cy="1.39292062" r="1.21329186"></circle>
                                    </g>
                                </g>
                                <g transform="translate(80.335538, 24.025581)" id="Shape" fill="#1D74F2">
                                    <polygon points="3.55747535 0.0681350472 3.55747535 31.277553 0.0797724382 31.277553 0.0797724382 0.0681350472"></polygon>
                                    <path d="M13.9453484,0.0681350472 C18.8497579,0.0681350472 20.9452391,2.9660331 20.9452391,7.69212774 L20.9452391,11.4373029 C20.9452391,16.386385 18.6267705,18.9721382 13.6778761,18.9721382 L10.6014755,18.9721382 L10.6014755,31.2777407 L7.12377258,31.2777407 L7.12377258,0.0681350472 L13.9453484,0.0681350472 Z M13.6778761,15.8512527 C16.2636293,15.8512527 17.5122087,14.6473459 17.5122087,11.6602904 L17.5122087,7.51381288 C17.5122087,4.66039969 16.4868044,3.2336931 13.9453484,3.2336931 L10.6016632,3.2336931 L10.6016632,15.8512527 L13.6778761,15.8512527 Z"></path>
                                    <polygon points="23.7986523 31.2777407 23.7986523 0.0681350472 27.2763552 0.0681350472 27.2763552 28.1119949 36.1934122 28.1119949 36.1934122 31.277553 23.7986523 31.277553"></polygon>
                                    <path d="M46.1358735,0.0681350472 C50.9956104,0.0681350472 53.2249216,3.01070567 53.2249216,7.82595774 L53.2249216,23.5644029 C53.2249216,28.3351701 50.9956104,31.2777407 46.1358735,31.2777407 L38.8238379,31.2777407 L38.8238379,0.0681350472 L46.1358735,0.0681350472 Z M46.0913886,28.1119949 C48.5881721,28.1119949 49.7918912,26.551646 49.7918912,23.6980451 L49.7918912,7.64745518 C49.7918912,4.79404199 48.5881721,3.2335054 46.046716,3.2335054 L42.3017285,3.2335054 L42.3017285,28.1118072 L46.0913886,28.1118072 L46.0913886,28.1119949 Z"></path>
                                </g>
                            </g>
                        </g>
                    </g>
                </g>
            </g>
        </g>
    </g>
</svg>