<svg width="154" height="176" viewBox="0 0 154 176" xmlns="http://www.w3.org/2000/svg"><title>Group</title><g fill="none" fill-rule="evenodd"><path fill="#0698FC" d="M101.735 100.94l-24.65 14.232-24.651-14.232V72.475l24.65-14.231 24.651 14.231z"/><path stroke="#CBDFFC" stroke-width="2.169" stroke-linecap="round" stroke-linejoin="round" d="M101.735 100.94l-24.65 14.232-24.651-14.232V72.475l24.65-14.231 24.651 14.231z"/><path d="M121.592 70.527a47.966 47.966 0 0 1 3.303 17.55c0 6.19-1.17 12.108-3.3 17.543m-71-57.865a47.861 47.861 0 0 1 26.213-7.766c8.189 0 15.9 2.048 22.65 5.658M31.062 102.94a48.035 48.035 0 0 1-2.34-14.863c0-6.192 1.169-12.11 3.3-17.547m71.003 57.866a47.866 47.866 0 0 1-26.217 7.769A47.86 47.86 0 0 1 50.6 128.4" stroke="#CBDFFC" stroke-width="2.301" stroke-linecap="round" stroke-linejoin="round"/><path fill="#F6AC47" d="M39.22 70.534L28.43 56.466l10.79-14.068 10.79 14.068z"/><path stroke="#CBDFFC" stroke-width="2.1" d="M39.22 70.534L28.43 56.466l10.79-14.068 10.79 14.068z"/><path fill="#6D81D9" d="M105.538 65.14h18.723V46.416h-18.723z"/><path stroke="#CBDFFC" stroke-width="2.1" d="M105.538 65.14h18.723V46.416h-18.723z"/><path d="M50.602 118.917C50.69 125.55 45.384 131 38.75 131.09c-6.636.088-12.085-5.219-12.173-11.853-.089-6.635 5.218-12.084 11.852-12.173 6.634-.088 12.085 5.219 12.173 11.853" fill="#17CEC1"/><path d="M50.602 118.917C50.69 125.55 45.384 131 38.75 131.09c-6.636.088-12.085-5.219-12.173-11.853-.089-6.635 5.218-12.084 11.852-12.173 6.634-.088 12.085 5.219 12.173 11.853z" stroke="#CBDFFC" stroke-width="2.1" stroke-linecap="round" stroke-linejoin="round"/><path fill="#16BBEF" d="M114.9 132.24l-13.165-13.163 13.164-13.165 13.164 13.165z"/><path stroke="#CBDFFC" stroke-width="2.1" stroke-linecap="round" stroke-linejoin="round" d="M114.9 132.24l-13.165-13.163 13.164-13.165 13.164 13.165z"/><path d="M79.969 136.164a3.023 3.023 0 1 1-6.045 0 3.023 3.023 0 0 1 6.045 0" fill="#DCF3FF"/><path d="M79.969 136.164a3.023 3.023 0 1 1-6.045 0 3.023 3.023 0 0 1 6.045 0z" stroke="#CBDFFC" stroke-width="1.643"/><path d="M79.969 39.99a3.023 3.023 0 1 1-6.045 0 3.023 3.023 0 0 1 6.045 0" fill="#DCF3FF"/><path d="M79.969 39.99a3.023 3.023 0 1 1-6.045 0 3.023 3.023 0 0 1 6.045 0z" stroke="#CBDFFC" stroke-width="1.643"/><path d="M127.917 88.35a3.023 3.023 0 1 1-6.045 0 3.023 3.023 0 0 1 6.045 0" fill="#DCF3FF"/><path d="M127.917 88.35a3.023 3.023 0 1 1-6.045 0 3.023 3.023 0 0 1 6.045 0z" stroke="#CBDFFC" stroke-width="1.643"/><path d="M31.07 86.502a2.785 2.785 0 1 1-5.57 0 2.785 2.785 0 0 1 5.57 0" fill="#DCF3FF"/><path d="M31.07 86.502a2.785 2.785 0 1 1-5.57 0 2.785 2.785 0 0 1 5.57 0z" stroke="#CBDFFC" stroke-width="1.515"/><path stroke="#CBDFFC" stroke-width="2.169" stroke-linecap="round" stroke-linejoin="round" d="M5.664 47.018l71.117-41.06 71.117 41.06v82.118l-71.117 41.06-71.117-41.06z"/><path d="M81.577 170.196a4.491 4.491 0 1 1-8.984 0 4.491 4.491 0 1 1 8.984 0" fill="#DCF3FF"/><path d="M81.577 170.196a4.491 4.491 0 1 1-8.984 0 4.491 4.491 0 1 1 8.984 0z" stroke="#CBDFFC" stroke-width="1.697"/><path d="M81.577 5.958a4.491 4.491 0 1 1-8.984 0 4.491 4.491 0 1 1 8.984 0" fill="#DCF3FF"/><path d="M81.577 5.958a4.491 4.491 0 1 1-8.984 0 4.491 4.491 0 1 1 8.984 0z" stroke="#CBDFFC" stroke-width="1.697"/><path d="M152.39 46.851a4.491 4.491 0 1 1-8.984 0 4.491 4.491 0 1 1 8.984 0" fill="#DCF3FF"/><path d="M152.39 46.851a4.491 4.491 0 1 1-8.984 0 4.491 4.491 0 1 1 8.984 0z" stroke="#CBDFFC" stroke-width="1.697"/><path d="M10.156 46.851a4.491 4.491 0 1 1-8.984 0 4.491 4.491 0 1 1 8.984 0" fill="#DCF3FF"/><path d="M10.156 46.851a4.491 4.491 0 1 1-8.984 0 4.491 4.491 0 1 1 8.984 0z" stroke="#CBDFFC" stroke-width="1.697"/><path d="M152.39 129.015a4.491 4.491 0 1 1-8.984 0 4.491 4.491 0 1 1 8.984 0" fill="#DCF3FF"/><path d="M152.39 129.015a4.491 4.491 0 1 1-8.984 0 4.491 4.491 0 1 1 8.984 0z" stroke="#CBDFFC" stroke-width="1.697"/><path d="M10.156 129.015a4.491 4.491 0 1 1-8.984 0 4.491 4.491 0 1 1 8.984 0" fill="#DCF3FF"/><path d="M10.156 129.015a4.491 4.491 0 1 1-8.984 0 4.491 4.491 0 1 1 8.984 0z" stroke="#CBDFFC" stroke-width="1.697"/><text font-family="OpenSans-Extrabold, Open Sans" font-size="13.15" font-weight="600" fill="#FFF" transform="translate(1 1)"><tspan x="60.674" y="89.053">IPLD</tspan></text><path d="M1-5h152v188H1z"/></g></svg>