<svg width="335" height="317" viewBox="0 0 335 317" xmlns="http://www.w3.org/2000/svg" xmlns:xlink="http://www.w3.org/1999/xlink"><title>Group 6</title><defs><path id="a" d="M0 22.097V.109h22.42v21.988z"/></defs><g fill="none" fill-rule="evenodd"><path d="M176.85 169.753l50.118-28.748" stroke="#1D74F2" stroke-width="3"/><path d="M263.788 140.093v-19.312a1.84 1.84 0 0 0-.92-1.594l-16.726-9.657a1.841 1.841 0 0 0-1.84 0l-16.726 9.657a1.84 1.84 0 0 0-.92 1.594v19.312c0 .658.35 1.266.92 1.595l16.725 9.656a1.84 1.84 0 0 0 1.841 0l16.725-9.656c.57-.33.92-.937.92-1.595" stroke="#F7931A" stroke-width="3"/><g transform="translate(234.666 119.153)"><mask id="b" fill="#fff"><use xlink:href="#a"/></mask><path d="M22.085 13.763c-1.498 5.89-7.581 9.473-13.588 8.005-6.004-1.469-9.66-7.434-8.161-13.323C1.832 2.555 7.916-1.03 13.92.438c6.006 1.469 9.661 7.435 8.164 13.325" fill="#F8931A" mask="url(#b)"/></g><path d="M248.388 128.669c-.347 1.362-2.488.67-3.182.5l.612-2.408c.694.17 2.93.486 2.57 1.908m-.38 3.886c-.38 1.498-2.953.688-3.787.485l.676-2.655c.834.204 3.508.608 3.11 2.17m2.81-3.865c.224-1.462-.912-2.249-2.465-2.774l.504-1.981-1.23-.3-.49 1.929c-.324-.08-.656-.154-.987-.228l.494-1.942-1.229-.3-.504 1.98c-.268-.06-.53-.119-.785-.18l.001-.007-1.696-.415-.328 1.288s.913.205.894.218c.498.122.588.445.573.701l-.574 2.258c.035.009.079.021.128.04l-.13-.031-.804 3.162c-.061.149-.216.371-.564.287.012.017-.894-.22-.894-.22l-.611 1.382 1.601.39c.297.074.59.15.877.223l-.51 2.004 1.23.3.504-1.982c.335.089.66.172.98.25l-.502 1.973 1.23.3.509-2c2.097.39 3.674.232 4.339-1.628.535-1.498-.027-2.362-1.13-2.925.803-.183 1.408-.7 1.57-1.772" fill="#FFF"/><path d="M156.043 162.602l-34.72-19.916" stroke="#1D74F2" stroke-width="3"/><path d="M61.59 140.546v-31.377a2.99 2.99 0 0 1 1.495-2.59l27.173-15.688a2.991 2.991 0 0 1 2.991 0l27.173 15.688a2.99 2.99 0 0 1 1.495 2.59v31.377a2.99 2.99 0 0 1-1.495 2.59l-27.173 15.688a2.991 2.991 0 0 1-2.99 0l-27.174-15.688a2.99 2.99 0 0 1-1.495-2.59" stroke="#5FCACE" stroke-width="3"/><g fill-rule="nonzero"><path fill="#4A9EA1" d="M74.152 133.757l17.236 9.952 17.237-9.952v-19.903l-17.237-9.951-17.236 9.951z"/><path d="M89.61 106.3l-12.498 7.215c.025.222.025.446 0 .668l12.498 7.215a2.985 2.985 0 0 1 3.545 0l12.498-7.215a2.981 2.981 0 0 1 0-.668L93.156 106.3a2.986 2.986 0 0 1-3.545 0h-.002zm17.243 9.876l-12.511 7.296a2.986 2.986 0 0 1-1.773 3.07l.014 14.35c.205.09.399.202.578.335l12.499-7.216a2.986 2.986 0 0 1 1.772-3.07V116.51a2.985 2.985 0 0 1-.578-.334h-.001zm-30.93.08a2.937 2.937 0 0 1-.577.334v14.43a2.986 2.986 0 0 1 1.772 3.071l12.497 7.216c.18-.133.374-.245.579-.334v-14.431a2.986 2.986 0 0 1-1.773-3.07l-12.497-7.216z" fill="#63D3D7"/><g fill="#000"><path fill-opacity=".251" d="M91.389 143.709l17.236-9.952v-19.903l-17.236 9.951z"/><path fill-opacity=".039" d="M91.389 143.709v-19.904l-17.237-9.951v19.903z"/><path fill-opacity=".13" d="M74.152 113.854l17.236 9.951 17.237-9.951-17.237-9.952z"/></g><path d="M79.5 118.363h-2.27v10.978h2.27zm3.956 10.978v-4.027c.56.046 1.12.046 1.586.046 3.234 0 4.167-1.601 4.167-3.576 0-2.395-1.71-3.421-4.354-3.421h-3.67v10.978h2.271zm1.228-5.582c-.42 0-1.041 0-1.228-.016v-3.732h1.415c1.368 0 2.146.653 2.146 1.85v.032c0 .933-.342 1.866-2.333 1.866zm12.299-5.396h-6.889v10.978h2.27v-4.836h4.308v-1.648h-4.323v-2.83h4.478zm7.429 2.146l.591-1.524c-.886-.638-2.084-.87-3.592-.87-2.192 0-3.996 1.025-3.996 3.125 0 1.881 1.384 2.628 2.768 3.078l1.384.467c.948.326 1.726.637 1.726 1.664 0 .933-.809 1.306-2.037 1.306-1.244 0-2.582-.373-3.344-.855l-.59 1.648c.995.637 2.254.948 3.95.948 2.41 0 4.275-1.057 4.275-3.312 0-2.099-1.601-2.767-3.218-3.312l-1.509-.497c-.653-.218-1.15-.513-1.15-1.353 0-.855.7-1.197 1.741-1.197 1.275 0 2.27.233 3.001.684z" fill="#FFF"/></g><path d="M190.135 182.446l36.38 21.37" stroke="#1D74F2" stroke-width="3"/><path d="M280.297 233.59a2.69 2.69 0 0 1-1.346 2.33l-24.456 14.12a2.69 2.69 0 0 1-2.692 0l-24.456-14.12a2.692 2.692 0 0 1-1.346-2.33v-28.24c0-.962.513-1.85 1.346-2.332l24.456-14.12a2.692 2.692 0 0 1 2.692 0l24.456 14.12a2.692 2.692 0 0 1 1.346 2.332v28.24z" stroke="#EF5133" stroke-width="3"/><path d="M270.658 218.178L254.75 202.27a2.347 2.347 0 0 0-3.319 0l-3.303 3.304 4.19 4.19a2.786 2.786 0 0 1 3.529 3.553l4.039 4.038a2.791 2.791 0 1 1-1.672 1.574l-3.767-3.766v9.912a2.793 2.793 0 1 1-2.295-.081V214.99a2.792 2.792 0 0 1-1.516-3.662l-4.131-4.131-10.909 10.907a2.348 2.348 0 0 0 0 3.32l15.91 15.907a2.347 2.347 0 0 0 3.318 0l15.834-15.834a2.347 2.347 0 0 0 0-3.32" fill="#F05033"/><g stroke="#B8B8B8" stroke-width="3"><path d="M55.128 275.022v9.06a.864.864 0 0 1-.432.747l-7.846 4.53a.864.864 0 0 1-.864 0l-7.846-4.53a.864.864 0 0 1-.432-.747v-9.06c0-.309.165-.594.432-.748l7.846-4.53a.864.864 0 0 1 .864 0l7.846 4.53a.863.863 0 0 1 .432.748m-29.512-51.9v9.06a.864.864 0 0 1-.431.748l-7.847 4.53a.864.864 0 0 1-.863 0l-7.847-4.53a.864.864 0 0 1-.431-.748v-9.06c0-.309.164-.594.431-.748l7.847-4.53a.864.864 0 0 1 .863 0l7.847 4.53c.267.154.431.44.431.748"/><path d="M25.306 233.008l20.06 11.582a2.208 2.208 0 0 1 1.105 1.912v23.165"/></g><path d="M156.043 181.937l-50.119 28.749" stroke="#1D74F2" stroke-width="3"/><path d="M62.15 211.625v23.165c0 .789.42 1.517 1.104 1.912l20.06 11.582a2.208 2.208 0 0 0 2.209 0l20.06-11.582a2.208 2.208 0 0 0 1.105-1.912v-23.165c0-.789-.421-1.517-1.104-1.912l-20.061-11.582a2.208 2.208 0 0 0-2.208 0l-20.061 11.582a2.208 2.208 0 0 0-1.104 1.912" stroke="#B8B8B8" stroke-width="3"/><g fill-rule="nonzero"><path fill="#343434" d="M84.94 205.477l-.226.769v22.316l.226.226 10.359-6.123z"/><path fill="#8C8C8C" d="M84.94 205.477l-10.359 17.188 10.36 6.123v-10.832z"/><path fill="#3C3C3B" d="M84.94 230.75l-.127.155v7.95l.127.372 10.365-14.598z"/><path fill="#8C8C8C" d="M84.94 239.227v-8.478l-10.359-6.12z"/><path fill="#141414" d="M84.94 228.788l10.359-6.123-10.359-4.709z"/><path fill="#393939" d="M74.581 222.665l10.359 6.123v-10.832z"/></g><path d="M207.748 154.046c0-1.25-.667-2.404-1.749-3.029l-31.773-18.344a3.497 3.497 0 0 0-3.497 0l-31.774 18.344a3.497 3.497 0 0 0-1.749 3.029v36.689c0 1.25.667 2.404 1.749 3.028l31.774 18.345a3.497 3.497 0 0 0 3.497 0l31.773-18.345a3.497 3.497 0 0 0 1.749-3.028v-36.689z" stroke="#1D74F2" stroke-width="5" fill="#FFF"/><g stroke="#F7931A" stroke-width="3"><path d="M309.718 139.754l10.531 6.08c.359.207.8.207 1.16 0l10.53-6.08c.36-.207.58-.59.58-1.004v-12.16c0-.414-.22-.797-.58-1.004l-10.53-6.08a1.16 1.16 0 0 0-1.16 0l-10.53 6.08a1.16 1.16 0 0 0-.58 1.004v12.16c0 .414.22.797.579 1.004M269.196 70.62l10.531 6.08c.359.208.8.207 1.16 0l10.53-6.08c.36-.207.58-.59.58-1.004v-12.16c0-.414-.22-.797-.58-1.004l-10.53-6.08a1.16 1.16 0 0 0-1.16 0l-10.531 6.08a1.16 1.16 0 0 0-.58 1.004v12.16c0 .414.221.797.58 1.004"/><path d="M280.896 76.894v31.092c0 1.058.565 2.037 1.482 2.566l26.926 15.546m-27.381-16.996l-18.039 10.415"/></g><g stroke="#5FCACE" stroke-width="3"><path d="M121.64 67.847l7.847-4.53a.864.864 0 0 0 .431-.748v-9.06a.864.864 0 0 0-.431-.748l-7.847-4.53a.864.864 0 0 0-.863 0l-7.847 4.53a.864.864 0 0 0-.431.748v9.06c0 .308.164.593.431.748l7.847 4.53a.864.864 0 0 0 .863 0m-59.702.392l7.846-4.53a.864.864 0 0 0 .432-.748V53.9a.864.864 0 0 0-.432-.748l-7.846-4.53a.864.864 0 0 0-.864 0l-7.846 4.53a.864.864 0 0 0-.432.748v9.06c0 .308.165.593.432.748l7.846 4.53a.864.864 0 0 0 .864 0"/><path d="M70.345 63.027l20.06 11.582a2.208 2.208 0 0 0 2.208 0l20.061-11.582M91.508 74.362V89.88M48.509 16.283v-9.06a.864.864 0 0 0-.432-.747l-7.846-4.53a.864.864 0 0 0-.864 0l-7.846 4.53a.864.864 0 0 0-.432.747v9.06c0 .309.165.594.432.748l7.846 4.53a.864.864 0 0 0 .864 0l7.846-4.53a.864.864 0 0 0 .432-.748m-29.512 51.9v-9.06a.864.864 0 0 0-.432-.748l-7.846-4.53a.864.864 0 0 0-.864 0l-7.846 4.53a.864.864 0 0 0-.432.748v9.06c0 .309.165.594.432.748l7.846 4.53a.864.864 0 0 0 .864 0l7.846-4.53a.864.864 0 0 0 .432-.748"/><path d="M18.687 58.297l20.06-11.582a2.208 2.208 0 0 0 1.105-1.912V21.638m-.767 23.998l13.44 7.76"/></g><g stroke="#EF5133" stroke-width="3"><path d="M275.407 266.358l5.779 3.337a.636.636 0 0 1 .318.55v6.673a.636.636 0 0 1-.318.55l-5.779 3.336a.636.636 0 0 1-.636 0l-5.778-3.336a.636.636 0 0 1-.318-.55v-6.673c0-.227.121-.437.318-.55l5.778-3.337a.636.636 0 0 1 .636 0m-43.967-.288l5.778 3.336a.636.636 0 0 1 .318.55v6.673a.636.636 0 0 1-.318.55l-5.778 3.337a.636.636 0 0 1-.636 0l-5.779-3.336a.636.636 0 0 1-.318-.551v-6.672c0-.228.122-.438.318-.551l5.779-3.336a.636.636 0 0 1 .636 0"/><path d="M237.63 269.908l14.775-8.53a1.626 1.626 0 0 1 1.626 0l14.773 8.53m-15.587-8.348v-11.429m31.478 54.677v6.673c0 .227.121.437.318.55l5.778 3.337c.197.113.44.113.636 0l5.779-3.337a.636.636 0 0 0 .318-.55v-6.673a.636.636 0 0 0-.318-.55l-5.779-3.336a.636.636 0 0 0-.636 0l-5.778 3.336a.636.636 0 0 0-.318.55m21.734-38.221v6.672c0 .228.12.437.318.551l5.778 3.336c.197.114.44.114.636 0l5.778-3.336a.636.636 0 0 0 .318-.55v-6.673a.636.636 0 0 0-.318-.55l-5.778-3.337a.636.636 0 0 0-.636 0l-5.778 3.336a.636.636 0 0 0-.318.551"/><path d="M306.657 273.868l-14.774 8.53c-.503.29-.813.827-.813 1.408v17.059m.565-17.673l-9.898-5.715"/></g><path d="M62.056 236.246l-16.027 9.159" stroke="#B8B8B8" stroke-width="3"/><text fill="#1D74F2" font-family="OpenSans-Bold, Open Sans" font-size="20" font-weight="bold" transform="translate(-31 -21.21)"><tspan x="181.37" y="199.499">IPLD</tspan></text></g></svg>