<svg width="134" height="155" viewBox="0 0 134 155" xmlns="http://www.w3.org/2000/svg">
  <title>
    Page 1
  </title>
  <g fill="none" fill-rule="evenodd">
    <path d="M72.06 26.309a5.15 5.15 0 1 1-5.15-5.15 5.15 5.15 0 0 1 5.15 5.15M86.505 43.1a5.15 5.15 0 1 1-5.15-5.15 5.15 5.15 0 0 1 5.15 5.15M58.782 38.48a5.15 5.15 0 1 1-5.15-5.15 5.15 5.15 0 0 1 5.15 5.15M58.101 67.606a5.15 5.15 0 1 1-5.15-5.15 5.15 5.15 0 0 1 5.15 5.15M37.485 59.11a5.15 5.15 0 1 1-5.15-5.15 5.15 5.15 0 0 1 5.15 5.15M103.766 55.022a5.15 5.15 0 1 1-5.15-5.15 5.15 5.15 0 0 1 5.15 5.15M24.553 81.138a5.15 5.15 0 1 1-5.15-5.15 5.15 5.15 0 0 1 5.15 5.15M122.152 77.112a5.15 5.15 0 1 1-5.15-5.15 5.15 5.15 0 0 1 5.15 5.15" fill="#FFF"/>
    <path d="M52.95 67.606v19.011M91.956 69.107v33.39M37.636 78.064v24.433M53.631 38.132l.023 12.269L66.91 59.11M81.354 43.1v15.593L66.91 68.713M98.616 54.489v10.803L66.91 85.696M32.335 59.11v16L67.254 94.6M18.721 81.138v10.55l48.19 26.397M66.91 118.084l50.091-30.92V76.516M66.91 26.309V152.29" stroke="#FFF" stroke-width="4"/>
    <path stroke="#FFF" stroke-width="4" stroke-linecap="round" stroke-linejoin="round" d="M132 114.583l-65 37.528-65-37.528V39.527L67 2l65 37.527z"/>
  </g>
</svg>
