<svg viewBox="0 0 64.9 63.6" xmlns="http://www.w3.org/2000/svg"><path d="M30 47c.6.4 1.1 1.2 1.1 2v13.8c0 .7-.5 1-1.1.7l-12-6.9c-.6-.4-1.1-1.2-1.1-2V40.7c0-.7.5-1 1.1-.7l12 7zm18-12c0 .7-.5 1.6-1.1 2l-12 6.9c-.6.4-1.1.1-1.1-.7V29.4c0-.7.5-1.6 1.1-2l12-6.9c.6-.4 1.1-.1 1.1.7V35zm-2.4-18.1c.6.4.6 1 0 1.3l-12 6.9c-.6.4-1.7.4-2.3 0L2.5 8.5c-.6-.4-.6-1 0-1.3l12-6.9c.6-.4 1.7-.4 2.3 0l28.8 16.6zM14.2 53c0 .7-.5 1-1.1.7l-12-6.9c-.6-.4-1.1-1.3-1.1-2V11.5c0-.7.5-1 1.1-.7L30 27.4c.6.4 1.1 1.2 1.1 2v13.8c0 .7-.5 1-1.1.7l-14.6-8.4c-.6-.4-1.1-.1-1.1.7V53h-.1zm36.5-33.3c0-.7.5-1.6 1.1-2l12-6.9c.6-.4 1.1-.1 1.1.7v33.3c0 .7-.5 1.6-1.1 2L34.9 63.4c-.6.4-1.1.1-1.1-.7V48.9c0-.7.5-1.6 1.1-2l14.6-8.4c.6-.4 1.1-1.2 1.1-2l.1-16.8zM36.2 8.5c-.6-.4-.6-1 0-1.3l12-6.9c.6-.4 1.6-.4 2.3 0l12 6.9c.6.4.6 1 0 1.3l-12 6.9c-.6.4-1.6.4-2.3 0l-12-6.9z" fill="#FFF"/></svg>