<?xml version="1.0" encoding="UTF-8" standalone="no"?>
<svg viewBox="0 0 64.9 63.6" version="1.1" xmlns="http://www.w3.org/2000/svg" xmlns:xlink="http://www.w3.org/1999/xlink">
  <path id="logotype" d="M30,47c0.6,0.4,1.1,1.2,1.1,2v13.8c0,0.7-0.5,1-1.1,0.7l-12-6.9c-0.6-0.4-1.1-1.2-1.1-2V40.7c0-0.7,0.5-1,1.1-0.7L30,47L30,47z M48,35c0,0.7-0.5,1.6-1.1,2l-12,6.9c-0.6,0.4-1.1,0.1-1.1-0.7V29.4c0-0.7,0.5-1.6,1.1-2l12-6.9c0.6-0.4,1.1-0.1,1.1,0.7L48,35L48,35z M45.6,16.9c0.6,0.4,0.6,1,0,1.3l-12,6.9c-0.6,0.4-1.7,0.4-2.3,0L2.5,8.5c-0.6-0.4-0.6-1,0-1.3l12-6.9c0.6-0.4,1.7-0.4,2.3,0L45.6,16.9L45.6,16.9z M14.2,53c0,0.7-0.5,1-1.1,0.7l-12-6.9c-0.6-0.4-1.1-1.3-1.1-2V11.5c0-0.7,0.5-1,1.1-0.7L30,27.4c0.6,0.4,1.1,1.2,1.1,2v13.8c0,0.7-0.5,1-1.1,0.7l-14.6-8.4c-0.6-0.4-1.1-0.1-1.1,0.7V53L14.2,53z M50.7,19.7c0-0.7,0.5-1.6,1.1-2l12-6.9c0.6-0.4,1.1-0.1,1.1,0.7v33.3c0,0.7-0.5,1.6-1.1,2L34.9,63.4c-0.6,0.4-1.1,0.1-1.1-0.7V48.9c0-0.7,0.5-1.6,1.1-2l14.6-8.4c0.6-0.4,1.1-1.2,1.1-2L50.7,19.7L50.7,19.7z M36.2,8.5c-0.6-0.4-0.6-1,0-1.3l12-6.9c0.6-0.4,1.6-0.4,2.3,0l12,6.9c0.6,0.4,0.6,1,0,1.3l-12,6.9c-0.6,0.4-1.6,0.4-2.3,0L36.2,8.5L36.2,8.5z" fill="#FFFFFF"></path>
</svg>
