<?xml version="1.0" encoding="iso-8859-1"?>
<!-- Generator: Adobe Illustrator 19.0.0, SVG Export Plug-In . SVG Version: 6.00 Build 0)  -->
<svg version="1.1" id="icon" xmlns="http://www.w3.org/2000/svg" xmlns:xlink="http://www.w3.org/1999/xlink" x="0px" y="0px"
	 viewBox="0 0 489.9 489.9" style="enable-background:new 0 0 489.9 489.9;" xml:space="preserve">
<g>
	<g>
		<path d="M302.75,89.8c10.6-23.4,6.4-52-12.9-71.2c-24.8-24.8-65.1-24.8-89.9,0s-24.8,65.1,0,89.9c19.3,19.3,47.8,23.5,71.2,12.9
			l74.3,74.3c3.9-6.4,8.5-12.4,13.9-17.8c5.4-5.4,11.4-10,17.7-13.8L302.75,89.8z M262.85,81.3c-9.9,9.9-25.9,9.9-35.8,0
			c-9.9-9.9-9.9-25.9,0-35.8c9.9-9.9,25.9-9.9,35.8,0C272.75,55.4,272.75,71.4,262.85,81.3z"/>
	</g>
</g>
<g>
	<g>
		<path d="M289.85,381.4c-19.3-19.3-47.8-23.5-71.2-12.9l-74.3-74.3c-3.8,6.3-8.4,12.3-13.8,17.7c-5.4,5.4-11.4,10-17.7,13.8
			l74.3,74.3c-10.7,23.5-6.4,52,12.8,71.3c24.8,24.8,65.1,24.8,89.9,0S314.65,406.2,289.85,381.4z M262.85,444.3
			c-9.9,9.9-25.9,9.9-35.8,0c-9.9-9.9-9.9-25.9,0-35.8c9.9-9.9,25.9-9.9,35.8,0C272.75,418.4,272.75,434.4,262.85,444.3z"/>
	</g>
</g>
<g>
	<g>
		<path d="M471.25,199.8c-24.7-24.7-65-24.7-89.8,0.1c-19.3,19.3-23.5,47.8-12.9,71.2l-74.3,74.3c6.3,3.8,12.3,8.4,17.7,13.8
			c5.4,5.4,10,11.4,13.8,17.7l74.3-74.3c23.4,10.6,52,6.4,71.2-12.9C496.05,264.9,496.05,224.6,471.25,199.8z M444.25,262.8
			c-9.9,9.9-25.9,9.9-35.8,0c-9.9-9.9-9.9-25.9,0-35.8c9.9-9.9,25.9-9.9,35.8,0C454.15,236.9,454.15,252.9,444.25,262.8z"/>
	</g>
</g>
<g>
	<g>
		<path d="M195.65,144.4c-6.3-3.8-12.3-8.4-17.7-13.8c-5.4-5.4-10-11.4-13.8-17.7l-74.3,74.3c-23.4-10.6-52-6.4-71.2,12.9
			c-24.8,24.8-24.8,65.1,0,89.9c24.7,24.7,65,24.7,89.8-0.1c19.3-19.3,23.5-47.8,12.9-71.2L195.65,144.4z M81.45,262.8
			c-9.9,9.9-25.9,9.9-35.8,0c-9.9-9.9-9.9-25.9,0-35.8c9.9-9.9,25.9-9.9,35.8,0C91.35,236.9,91.35,252.9,81.45,262.8z"/>
	</g>
</g>
<g>
</g>
<g>
</g>
<g>
</g>
<g>
</g>
<g>
</g>
<g>
</g>
<g>
</g>
<g>
</g>
<g>
</g>
<g>
</g>
<g>
</g>
<g>
</g>
<g>
</g>
<g>
</g>
<g>
</g>
</svg>
