<svg width="1000" height="800" viewBox="0 0 1000 800" fill="none" xmlns="http://www.w3.org/2000/svg">
<rect width="1000" height="800" fill="white"/>
<path d="M139.707 157.293C139.317 156.902 138.683 156.902 138.293 157.293L131.929 163.657C131.538 164.047 131.538 164.681 131.929 165.071C132.319 165.462 132.953 165.462 133.343 165.071L139 159.414L144.657 165.071C145.047 165.462 145.681 165.462 146.071 165.071C146.462 164.681 146.462 164.047 146.071 163.657L139.707 157.293ZM138.293 203.707C138.683 204.098 139.317 204.098 139.707 203.707L146.071 197.343C146.462 196.953 146.462 196.319 146.071 195.929C145.681 195.538 145.047 195.538 144.657 195.929L139 201.586L133.343 195.929C132.953 195.538 132.319 195.538 131.929 195.929C131.538 196.319 131.538 196.953 131.929 197.343L138.293 203.707ZM138 158L138 203L140 203L140 158L138 158Z" fill="#B2BBBC"/>
<path d="M272.707 157.293C272.317 156.902 271.683 156.902 271.293 157.293L264.929 163.657C264.538 164.047 264.538 164.681 264.929 165.071C265.319 165.462 265.953 165.462 266.343 165.071L272 159.414L277.657 165.071C278.047 165.462 278.681 165.462 279.071 165.071C279.462 164.681 279.462 164.047 279.071 163.657L272.707 157.293ZM271.293 203.707C271.683 204.098 272.317 204.098 272.707 203.707L279.071 197.343C279.462 196.953 279.462 196.319 279.071 195.929C278.681 195.538 278.047 195.538 277.657 195.929L272 201.586L266.343 195.929C265.953 195.538 265.319 195.538 264.929 195.929C264.538 196.319 264.538 196.953 264.929 197.343L271.293 203.707ZM271 158L271 203L273 203L273 158L271 158Z" fill="#B2BBBC"/>
<path d="M272.707 421.293C272.317 420.902 271.683 420.902 271.293 421.293L264.929 427.657C264.538 428.047 264.538 428.681 264.929 429.071C265.319 429.462 265.953 429.462 266.343 429.071L272 423.414L277.657 429.071C278.047 429.462 278.681 429.462 279.071 429.071C279.462 428.681 279.462 428.047 279.071 427.657L272.707 421.293ZM271.293 456.707C271.683 457.098 272.317 457.098 272.707 456.707L279.071 450.343C279.462 449.953 279.462 449.319 279.071 448.929C278.681 448.538 278.047 448.538 277.657 448.929L272 454.586L266.343 448.929C265.953 448.538 265.319 448.538 264.929 448.929C264.538 449.319 264.538 449.953 264.929 450.343L271.293 456.707ZM271 422L271 456L273 456L273 422L271 422Z" fill="#B2BBBC"/>
<path d="M272.707 513.293C272.317 512.902 271.683 512.902 271.293 513.293L264.929 519.657C264.538 520.047 264.538 520.681 264.929 521.071C265.319 521.462 265.953 521.462 266.343 521.071L272 515.414L277.657 521.071C278.047 521.462 278.681 521.462 279.071 521.071C279.462 520.681 279.462 520.047 279.071 519.657L272.707 513.293ZM271.293 549.707C271.683 550.098 272.317 550.098 272.707 549.707L279.071 543.343C279.462 542.953 279.462 542.319 279.071 541.929C278.681 541.538 278.047 541.538 277.657 541.929L272 547.586L266.343 541.929C265.953 541.538 265.319 541.538 264.929 541.929C264.538 542.319 264.538 542.953 264.929 543.343L271.293 549.707ZM271 514L271 549L273 549L273 514L271 514Z" fill="#B2BBBC"/>
<path d="M272.707 606.293C272.317 605.902 271.683 605.902 271.293 606.293L264.929 612.657C264.538 613.047 264.538 613.681 264.929 614.071C265.319 614.462 265.953 614.462 266.343 614.071L272 608.414L277.657 614.071C278.047 614.462 278.681 614.462 279.071 614.071C279.462 613.681 279.462 613.047 279.071 612.657L272.707 606.293ZM271.293 642.707C271.683 643.098 272.317 643.098 272.707 642.707L279.071 636.343C279.462 635.953 279.462 635.319 279.071 634.929C278.681 634.538 278.047 634.538 277.657 634.929L272 640.586L266.343 634.929C265.953 634.538 265.319 634.538 264.929 634.929C264.538 635.319 264.538 635.953 264.929 636.343L271.293 642.707ZM271 607L271 642L273 642L273 607L271 607Z" fill="#B2BBBC"/>
<path d="M538.707 157.293C538.317 156.902 537.683 156.902 537.293 157.293L530.929 163.657C530.538 164.047 530.538 164.681 530.929 165.071C531.319 165.462 531.953 165.462 532.343 165.071L538 159.414L543.657 165.071C544.047 165.462 544.681 165.462 545.071 165.071C545.462 164.681 545.462 164.047 545.071 163.657L538.707 157.293ZM537.293 203.707C537.683 204.098 538.317 204.098 538.707 203.707L545.071 197.343C545.462 196.953 545.462 196.319 545.071 195.929C544.681 195.538 544.047 195.538 543.657 195.929L538 201.586L532.343 195.929C531.953 195.538 531.319 195.538 530.929 195.929C530.538 196.319 530.538 196.953 530.929 197.343L537.293 203.707ZM537 158L537 203L539 203L539 158L537 158Z" fill="#B2BBBC"/>
<path d="M671.707 157.293C671.317 156.902 670.683 156.902 670.293 157.293L663.929 163.657C663.538 164.047 663.538 164.681 663.929 165.071C664.319 165.462 664.953 165.462 665.343 165.071L671 159.414L676.657 165.071C677.047 165.462 677.681 165.462 678.071 165.071C678.462 164.681 678.462 164.047 678.071 163.657L671.707 157.293ZM670.293 203.707C670.683 204.098 671.317 204.098 671.707 203.707L678.071 197.343C678.462 196.953 678.462 196.319 678.071 195.929C677.681 195.538 677.047 195.538 676.657 195.929L671 201.586L665.343 195.929C664.953 195.538 664.319 195.538 663.929 195.929C663.538 196.319 663.538 196.953 663.929 197.343L670.293 203.707ZM670 158L670 203L672 203L672 158L670 158Z" fill="#B2BBBC"/>
<path d="M803.707 157.293C803.317 156.902 802.683 156.902 802.293 157.293L795.929 163.657C795.538 164.047 795.538 164.681 795.929 165.071C796.319 165.462 796.953 165.462 797.343 165.071L803 159.414L808.657 165.071C809.047 165.462 809.681 165.462 810.071 165.071C810.462 164.681 810.462 164.047 810.071 163.657L803.707 157.293ZM802.293 203.707C802.683 204.098 803.317 204.098 803.707 203.707L810.071 197.343C810.462 196.953 810.462 196.319 810.071 195.929C809.681 195.538 809.047 195.538 808.657 195.929L803 201.586L797.343 195.929C796.953 195.538 796.319 195.538 795.929 195.929C795.538 196.319 795.538 196.953 795.929 197.343L802.293 203.707ZM802 158L802 203L804 203L804 158L802 158Z" fill="#B2BBBC"/>
<path d="M405.707 157.293C405.317 156.902 404.683 156.902 404.293 157.293L397.929 163.657C397.538 164.047 397.538 164.681 397.929 165.071C398.319 165.462 398.953 165.462 399.343 165.071L405 159.414L410.657 165.071C411.047 165.462 411.681 165.462 412.071 165.071C412.462 164.681 412.462 164.047 412.071 163.657L405.707 157.293ZM404.293 203.707C404.683 204.098 405.317 204.098 405.707 203.707L412.071 197.343C412.462 196.953 412.462 196.319 412.071 195.929C411.681 195.538 411.047 195.538 410.657 195.929L405 201.586L399.343 195.929C398.953 195.538 398.319 195.538 397.929 195.929C397.538 196.319 397.538 196.953 397.929 197.343L404.293 203.707ZM404 158L404 203L406 203L406 158L404 158Z" fill="#B2BBBC"/>
<rect x="197" y="456.59" width="150" height="57" rx="7" fill="#00D588"/>
<rect x="197" y="549.59" width="150" height="57" rx="7" fill="#04CC9C"/>
<path d="M272.707 304.293C272.317 303.902 271.683 303.902 271.293 304.293L264.929 310.657C264.538 311.047 264.538 311.681 264.929 312.071C265.319 312.462 265.953 312.462 266.343 312.071L272 306.414L277.657 312.071C278.047 312.462 278.681 312.462 279.071 312.071C279.462 311.681 279.462 311.047 279.071 310.657L272.707 304.293ZM271.293 350.707C271.683 351.098 272.317 351.098 272.707 350.707L279.071 344.343C279.462 343.953 279.462 343.319 279.071 342.929C278.681 342.538 278.047 342.538 277.657 342.929L272 348.586L266.343 342.929C265.953 342.538 265.319 342.538 264.929 342.929C264.538 343.319 264.538 343.953 264.929 344.343L271.293 350.707ZM271 305L271 350L273 350L273 305L271 305Z" fill="#B2BBBC"/>
<rect x="665" y="351" width="156" height="70" rx="7" fill="#73AAFA"/>
<rect x="485" y="351" width="156" height="70" rx="7" fill="#73AAFA"/>
<path d="M257.685 490.862L257.181 489.406C256.495 489.924 255.641 490.148 254.773 490.148C253.051 490.148 251.819 488.944 251.819 486.592C251.819 484.436 253.051 483.092 254.787 483.092C255.963 483.092 256.565 483.414 257.139 483.89L257.671 482.448C256.789 481.664 255.669 481.482 254.675 481.482C251.889 481.482 249.747 483.442 249.747 486.578C249.747 489.868 252.001 491.73 254.661 491.73C255.641 491.73 256.649 491.604 257.685 490.862ZM261.997 484.044C259.631 484.044 258.413 485.654 258.413 487.908C258.413 490.12 259.631 491.73 261.997 491.73C264.363 491.73 265.581 490.12 265.581 487.908C265.581 485.654 264.363 484.044 261.997 484.044ZM261.997 490.316C260.961 490.316 260.275 489.49 260.275 487.908C260.275 486.284 260.975 485.472 261.997 485.472C263.019 485.472 263.733 486.284 263.733 487.908C263.733 489.49 263.033 490.316 261.997 490.316ZM271.913 491.59H273.803V481.356H271.871V485.15C271.605 484.618 270.989 484.044 269.757 484.044C267.629 484.044 266.467 485.808 266.467 487.852C266.467 490.036 267.601 491.688 269.701 491.73H269.799C270.863 491.73 271.521 491.226 271.871 490.568L271.913 491.59ZM270.135 490.302C269.267 490.302 268.329 489.756 268.329 487.908C268.329 485.962 269.281 485.472 270.135 485.472C271.003 485.472 271.899 486.06 271.899 487.908C271.899 489.784 271.031 490.302 270.135 490.302ZM276.847 487.306C276.945 485.85 277.883 485.472 278.513 485.472C279.437 485.472 279.955 486.06 279.955 487.236V487.306H276.847ZM281.705 488.342V488.314C281.705 488.132 281.719 487.95 281.719 487.768V487.74C281.719 485.794 280.697 484.044 278.485 484.044C276.231 484.044 274.929 485.752 274.929 487.894C274.929 490.232 276.287 491.73 278.807 491.73C280.039 491.73 280.865 491.366 281.495 490.876L280.963 489.686C280.529 490.008 279.773 490.33 278.877 490.33C277.617 490.33 276.875 489.672 276.833 488.342H281.705ZM286.353 490.33C285.163 490.33 284.365 489.616 284.365 487.866C284.365 486.172 285.233 485.472 286.311 485.472C286.955 485.472 287.669 485.78 287.963 485.99L288.271 484.702C287.697 484.282 287.123 484.058 286.129 484.044H286.073C284.239 484.044 282.503 485.262 282.503 487.796C282.503 490.456 284.085 491.73 286.213 491.73H286.241C287.151 491.73 287.725 491.506 288.355 491.086L287.991 489.784C287.599 490.064 287.025 490.33 286.353 490.33ZM294.122 484.632C293.534 484.226 292.708 484.044 291.672 484.044C290.104 484.044 288.984 484.758 288.984 486.27C288.984 487.474 289.824 488.006 290.874 488.398L291.966 488.804C292.526 489.014 292.68 489.168 292.68 489.588C292.68 490.12 292.246 490.33 291.7 490.33C290.986 490.33 289.866 490.12 289.264 489.728L288.886 490.988C289.6 491.492 290.58 491.716 291.938 491.716C293.646 491.716 294.444 490.61 294.444 489.378C294.444 488.258 293.534 487.6 292.638 487.292L291.518 486.9C290.888 486.676 290.664 486.55 290.692 486.046C290.72 485.64 291.042 485.444 291.826 485.444C292.372 485.444 293.296 485.626 293.786 485.892L294.122 484.632Z" fill="white"/>
<path d="M259.67 580.692C259.67 579.502 259.138 578.676 258.088 578.228C258.816 577.794 259.348 577.206 259.348 576.212C259.348 574.168 257.598 573.706 255.33 573.706H251.97V583.59H255.722C258.032 583.59 259.67 582.792 259.67 580.692ZM257.374 576.492C257.374 577.388 256.702 577.64 255.568 577.64H254.014V575.106H254.966C256.464 575.106 257.374 575.218 257.374 576.492ZM257.654 580.622C257.654 581.868 256.856 582.204 255.456 582.204H254.014V578.998H255.582C256.996 578.998 257.654 579.376 257.654 580.622ZM262.829 573.356L260.897 573.482V580.482C260.897 582.344 261.247 583.674 263.445 583.674C264.075 583.674 264.453 583.59 264.453 583.59L264.369 582.204C264.369 582.204 264.313 582.232 263.963 582.232C262.927 582.232 262.829 581.854 262.829 580.748V573.356ZM268.587 576.044C266.221 576.044 265.003 577.654 265.003 579.908C265.003 582.12 266.221 583.73 268.587 583.73C270.953 583.73 272.171 582.12 272.171 579.908C272.171 577.654 270.953 576.044 268.587 576.044ZM268.587 582.316C267.551 582.316 266.865 581.49 266.865 579.908C266.865 578.284 267.565 577.472 268.587 577.472C269.609 577.472 270.323 578.284 270.323 579.908C270.323 581.49 269.623 582.316 268.587 582.316ZM276.892 582.33C275.702 582.33 274.904 581.616 274.904 579.866C274.904 578.172 275.772 577.472 276.85 577.472C277.494 577.472 278.208 577.78 278.502 577.99L278.81 576.702C278.236 576.282 277.662 576.058 276.668 576.044H276.612C274.778 576.044 273.042 577.262 273.042 579.796C273.042 582.456 274.624 583.73 276.752 583.73H276.78C277.69 583.73 278.264 583.506 278.894 583.086L278.53 581.784C278.138 582.064 277.564 582.33 276.892 582.33ZM279.748 573.356V583.59H281.694V580.426L282.198 580.048L284.676 583.59H287.042L283.822 579.306L286.72 576.324H284.41L281.694 579.082V573.356H279.748ZM292.236 576.632C291.648 576.226 290.822 576.044 289.786 576.044C288.218 576.044 287.098 576.758 287.098 578.27C287.098 579.474 287.938 580.006 288.988 580.398L290.08 580.804C290.64 581.014 290.794 581.168 290.794 581.588C290.794 582.12 290.36 582.33 289.814 582.33C289.1 582.33 287.98 582.12 287.378 581.728L287 582.988C287.714 583.492 288.694 583.716 290.052 583.716C291.76 583.716 292.558 582.61 292.558 581.378C292.558 580.258 291.648 579.6 290.752 579.292L289.632 578.9C289.002 578.676 288.778 578.55 288.806 578.046C288.834 577.64 289.156 577.444 289.94 577.444C290.486 577.444 291.41 577.626 291.9 577.892L292.236 576.632Z" fill="white"/>
<path d="M563.707 304.523C563.317 304.132 562.683 304.132 562.293 304.523L555.929 310.887C555.538 311.277 555.538 311.911 555.929 312.301C556.319 312.692 556.953 312.692 557.343 312.301L563 306.644L568.657 312.301C569.047 312.692 569.681 312.692 570.071 312.301C570.462 311.911 570.462 311.277 570.071 310.887L563.707 304.523ZM562.293 350.937C562.683 351.328 563.317 351.328 563.707 350.937L570.071 344.573C570.462 344.183 570.462 343.549 570.071 343.159C569.681 342.768 569.047 342.768 568.657 343.159L563 348.816L557.343 343.159C556.953 342.768 556.319 342.768 555.929 343.159C555.538 343.549 555.538 344.183 555.929 344.573L562.293 350.937ZM562 305.23L562 350.23L564 350.23L564 305.23L562 305.23Z" fill="#B2BBBC"/>
<path d="M743.707 304.523C743.317 304.132 742.683 304.132 742.293 304.523L735.929 310.887C735.538 311.277 735.538 311.911 735.929 312.301C736.319 312.692 736.953 312.692 737.343 312.301L743 306.644L748.657 312.301C749.047 312.692 749.681 312.692 750.071 312.301C750.462 311.911 750.462 311.277 750.071 310.887L743.707 304.523ZM742.293 350.937C742.683 351.328 743.317 351.328 743.707 350.937L750.071 344.573C750.462 344.183 750.462 343.549 750.071 343.159C749.681 342.768 749.047 342.768 748.657 343.159L743 348.816L737.343 343.159C736.953 342.768 736.319 342.768 735.929 343.159C735.538 343.549 735.538 344.183 735.929 344.573L742.293 350.937ZM742 305.23L742 350.23L744 350.23L744 305.23L742 305.23Z" fill="#B2BBBC"/>
<rect x="77" y="204" width="789" height="100" rx="16" fill="#1D74F2"/>
<rect x="77" y="100" width="123" height="57" rx="7" fill="#B2BBBC"/>
<rect x="343" y="100" width="123" height="57" rx="7" fill="#B2BBBC"/>
<rect x="609" y="100" width="123" height="57" rx="7" fill="#B2BBBC"/>
<rect x="210" y="100" width="123" height="57" rx="7" fill="#B2BBBC"/>
<rect x="476" y="100" width="123" height="57" rx="7" fill="#B2BBBC"/>
<rect x="742" y="100" width="123" height="57" rx="7" fill="#B2BBBC"/>
<path d="M114.706 124.614H117.604V123.116H109.792V124.614H112.676V133H114.706V124.614ZM121.905 125.734C120.995 125.734 120.519 126.084 120.057 126.728L119.917 125.734H118.125V133H120.057V128.996C120.057 127.918 120.309 127.204 121.681 127.204H122.199L122.101 125.734H121.905ZM126.933 132.216L127.129 133H128.613V127.82C128.613 126.238 127.521 125.454 125.841 125.454H125.673C124.469 125.482 123.545 125.692 122.873 126L123.251 127.386C123.573 127.274 124.791 126.882 125.505 126.882H125.603C126.597 126.924 126.667 127.288 126.667 128.142V128.478L126.149 128.562C123.741 128.912 122.453 129.206 122.453 131.054C122.453 132.342 123.391 133.14 124.749 133.14C125.687 133.14 126.303 132.748 126.933 132.216ZM125.085 131.894C124.483 131.894 124.189 131.516 124.189 130.984C124.189 129.976 125.071 129.808 126.149 129.654L126.667 129.57V131.292C126.149 131.642 125.757 131.894 125.085 131.894ZM133.296 130.97L131.35 125.734H129.32L132.372 133H134.178L136.852 125.734H134.85L133.296 130.97ZM139.218 128.716C139.316 127.26 140.254 126.882 140.884 126.882C141.808 126.882 142.326 127.47 142.326 128.646V128.716H139.218ZM144.076 129.752V129.724C144.076 129.542 144.09 129.36 144.09 129.178V129.15C144.09 127.204 143.068 125.454 140.856 125.454C138.602 125.454 137.3 127.162 137.3 129.304C137.3 131.642 138.658 133.14 141.178 133.14C142.41 133.14 143.236 132.776 143.866 132.286L143.334 131.096C142.9 131.418 142.144 131.74 141.248 131.74C139.988 131.74 139.246 131.082 139.204 129.752H144.076ZM148.92 125.734C148.01 125.734 147.534 126.084 147.072 126.728L146.932 125.734H145.14V133H147.072V128.996C147.072 127.918 147.324 127.204 148.696 127.204H149.214L149.116 125.734H148.92ZM154.607 126.042C154.019 125.636 153.193 125.454 152.157 125.454C150.589 125.454 149.469 126.168 149.469 127.68C149.469 128.884 150.309 129.416 151.359 129.808L152.451 130.214C153.011 130.424 153.165 130.578 153.165 130.998C153.165 131.53 152.731 131.74 152.185 131.74C151.471 131.74 150.351 131.53 149.749 131.138L149.371 132.398C150.085 132.902 151.065 133.126 152.423 133.126C154.131 133.126 154.929 132.02 154.929 130.788C154.929 129.668 154.019 129.01 153.123 128.702L152.003 128.31C151.373 128.086 151.149 127.96 151.177 127.456C151.205 127.05 151.527 126.854 152.311 126.854C152.857 126.854 153.781 127.036 154.271 127.302L154.607 126.042ZM160.17 132.216L160.366 133H161.85V127.82C161.85 126.238 160.758 125.454 159.078 125.454H158.91C157.706 125.482 156.782 125.692 156.11 126L156.488 127.386C156.81 127.274 158.028 126.882 158.742 126.882H158.84C159.834 126.924 159.904 127.288 159.904 128.142V128.478L159.386 128.562C156.978 128.912 155.69 129.206 155.69 131.054C155.69 132.342 156.628 133.14 157.986 133.14C158.924 133.14 159.54 132.748 160.17 132.216ZM158.322 131.894C157.72 131.894 157.426 131.516 157.426 130.984C157.426 129.976 158.308 129.808 159.386 129.654L159.904 129.57V131.292C159.386 131.642 158.994 131.894 158.322 131.894ZM165.286 122.766L163.354 122.892V129.892C163.354 131.754 163.704 133.084 165.902 133.084C166.532 133.084 166.91 133 166.91 133L166.826 131.614C166.826 131.614 166.77 131.642 166.42 131.642C165.384 131.642 165.286 131.264 165.286 130.158V122.766Z" fill="white"/>
<path d="M375.866 260.552C373.298 260.552 372.482 259.328 372.482 256.52V246.056H368.978V256.688C368.978 260.912 371.21 263.24 375.866 263.24C380.522 263.24 382.754 260.912 382.754 256.688V246.056H379.274V256.52C379.274 259.328 378.434 260.552 375.866 260.552ZM393.62 255.728V263H396.956V255.416C396.956 252.344 395.66 250.112 392.636 250.064C390.764 250.04 389.204 251.048 388.22 252.2L387.956 250.544H385.172V263H388.508V254.504C389.036 253.496 390.332 252.512 391.556 252.512C393.524 252.512 393.62 254 393.62 255.728ZM402.812 250.544H399.5V263H402.812V250.544ZM402.836 245.672H399.5V248.408H402.836V245.672ZM411.016 259.52L407.68 250.544H404.2L409.432 263H412.528L417.112 250.544H413.68L411.016 259.52ZM421.169 255.656C421.337 253.16 422.945 252.512 424.025 252.512C425.609 252.512 426.497 253.52 426.497 255.536V255.656H421.169ZM429.497 257.432V257.384C429.497 257.072 429.521 256.76 429.521 256.448V256.4C429.521 253.064 427.769 250.064 423.977 250.064C420.113 250.064 417.881 252.992 417.881 256.664C417.881 260.672 420.209 263.24 424.529 263.24C426.641 263.24 428.057 262.616 429.137 261.776L428.225 259.736C427.481 260.288 426.185 260.84 424.649 260.84C422.489 260.84 421.217 259.712 421.145 257.432H429.497ZM437.801 250.544C436.241 250.544 435.425 251.144 434.633 252.248L434.393 250.544H431.321V263H434.633V256.136C434.633 254.288 435.065 253.064 437.417 253.064H438.305L438.137 250.544H437.801ZM447.549 251.072C446.541 250.376 445.125 250.064 443.349 250.064C440.661 250.064 438.741 251.288 438.741 253.88C438.741 255.944 440.181 256.856 441.981 257.528L443.853 258.224C444.813 258.584 445.077 258.848 445.077 259.568C445.077 260.48 444.333 260.84 443.397 260.84C442.173 260.84 440.253 260.48 439.221 259.808L438.573 261.968C439.797 262.832 441.477 263.216 443.805 263.216C446.733 263.216 448.101 261.32 448.101 259.208C448.101 257.288 446.541 256.16 445.005 255.632L443.085 254.96C442.005 254.576 441.621 254.36 441.669 253.496C441.717 252.8 442.269 252.464 443.613 252.464C444.549 252.464 446.133 252.776 446.973 253.232L447.549 251.072ZM457.085 261.656L457.421 263H459.965V254.12C459.965 251.408 458.093 250.064 455.213 250.064H454.925C452.861 250.112 451.277 250.472 450.125 251L450.773 253.376C451.325 253.184 453.413 252.512 454.637 252.512H454.805C456.509 252.584 456.629 253.208 456.629 254.672V255.248L455.741 255.392C451.613 255.992 449.405 256.496 449.405 259.664C449.405 261.872 451.013 263.24 453.341 263.24C454.949 263.24 456.005 262.568 457.085 261.656ZM453.917 261.104C452.885 261.104 452.381 260.456 452.381 259.544C452.381 257.816 453.893 257.528 455.741 257.264L456.629 257.12V260.072C455.741 260.672 455.069 261.104 453.917 261.104ZM465.856 245.456L462.544 245.672V257.672C462.544 260.864 463.144 263.144 466.912 263.144C467.992 263.144 468.64 263 468.64 263L468.496 260.624C468.496 260.624 468.4 260.672 467.8 260.672C466.024 260.672 465.856 260.024 465.856 258.128V245.456ZM479.107 246.056H475.603V263H479.107V246.056ZM490.3 255.728V263H493.636V255.416C493.636 252.344 492.34 250.112 489.316 250.064C487.444 250.04 485.884 251.048 484.9 252.2L484.636 250.544H481.852V263H485.188V254.504C485.716 253.496 487.012 252.512 488.236 252.512C490.204 252.512 490.3 254 490.3 255.728ZM499.827 252.536H502.899V250.544H499.827V246.008H497.331L496.515 250.544H494.547L494.355 252.536H496.515V257.648C496.515 261.296 497.283 263.144 501.147 263.144C501.795 263.144 503.019 263 503.019 263L502.827 260.552C502.827 260.552 501.843 260.624 501.771 260.624C499.947 260.624 499.827 259.952 499.827 257.84V252.536ZM507.77 255.656C507.938 253.16 509.546 252.512 510.626 252.512C512.21 252.512 513.098 253.52 513.098 255.536V255.656H507.77ZM516.098 257.432V257.384C516.098 257.072 516.122 256.76 516.122 256.448V256.4C516.122 253.064 514.37 250.064 510.578 250.064C506.714 250.064 504.482 252.992 504.482 256.664C504.482 260.672 506.81 263.24 511.13 263.24C513.242 263.24 514.658 262.616 515.738 261.776L514.826 259.736C514.082 260.288 512.786 260.84 511.25 260.84C509.09 260.84 507.818 259.712 507.746 257.432H516.098ZM524.403 250.544C522.843 250.544 522.027 251.144 521.235 252.248L520.995 250.544H517.923V263H521.235V256.136C521.235 254.288 521.667 253.064 524.019 253.064H524.907L524.739 250.544H524.403ZM526.639 250.16V250.544H524.623V252.512H526.639V263H529.951V252.512H532.735V250.544H529.951V249.512C529.951 247.976 530.263 247.352 531.751 247.352H532.831L532.543 244.88H531.439C526.999 244.88 526.639 246.848 526.639 250.16ZM541.156 261.656L541.492 263H544.036V254.12C544.036 251.408 542.164 250.064 539.284 250.064H538.996C536.932 250.112 535.348 250.472 534.196 251L534.844 253.376C535.396 253.184 537.484 252.512 538.708 252.512H538.876C540.58 252.584 540.7 253.208 540.7 254.672V255.248L539.812 255.392C535.684 255.992 533.476 256.496 533.476 259.664C533.476 261.872 535.084 263.24 537.412 263.24C539.02 263.24 540.076 262.568 541.156 261.656ZM537.988 261.104C536.956 261.104 536.452 260.456 536.452 259.544C536.452 257.816 537.964 257.528 539.812 257.264L540.7 257.12V260.072C539.812 260.672 539.14 261.104 537.988 261.104ZM552.567 260.84C550.527 260.84 549.159 259.616 549.159 256.616C549.159 253.712 550.647 252.512 552.495 252.512C553.599 252.512 554.823 253.04 555.327 253.4L555.855 251.192C554.871 250.472 553.887 250.088 552.183 250.064H552.087C548.943 250.064 545.967 252.152 545.967 256.496C545.967 261.056 548.679 263.24 552.327 263.24H552.375C553.935 263.24 554.919 262.856 555.999 262.136L555.375 259.904C554.703 260.384 553.719 260.84 552.567 260.84ZM560.317 255.656C560.485 253.16 562.093 252.512 563.173 252.512C564.757 252.512 565.645 253.52 565.645 255.536V255.656H560.317ZM568.645 257.432V257.384C568.645 257.072 568.669 256.76 568.669 256.448V256.4C568.669 253.064 566.917 250.064 563.125 250.064C559.261 250.064 557.029 252.992 557.029 256.664C557.029 260.672 559.357 263.24 563.677 263.24C565.789 263.24 567.205 262.616 568.285 261.776L567.373 259.736C566.629 260.288 565.333 260.84 563.797 260.84C561.637 260.84 560.365 259.712 560.293 257.432H568.645Z" fill="white"/>
<path d="M259.447 133V129.374C259.951 129.416 260.455 129.416 260.875 129.416C263.787 129.416 264.627 127.974 264.627 126.196C264.627 124.04 263.087 123.116 260.707 123.116H257.403V133H259.447ZM260.553 127.974C260.175 127.974 259.615 127.974 259.447 127.96V124.6H260.721C261.953 124.6 262.653 125.188 262.653 126.266V126.294C262.653 127.134 262.345 127.974 260.553 127.974ZM269.288 125.734C268.378 125.734 267.902 126.084 267.44 126.728L267.3 125.734H265.508V133H267.44V128.996C267.44 127.918 267.692 127.204 269.064 127.204H269.582L269.484 125.734H269.288ZM272.174 125.734H270.242V133H272.174V125.734ZM272.188 122.892H270.242V124.488H272.188V122.892ZM278.584 128.758V133H280.53V128.576C280.53 126.784 279.774 125.482 278.01 125.454C276.918 125.44 276.008 126.028 275.434 126.7L275.28 125.734H273.656V133H275.602V128.044C275.91 127.456 276.666 126.882 277.38 126.882C278.528 126.882 278.584 127.75 278.584 128.758ZM284.142 126.896H285.934V125.734H284.142V123.088H282.686L282.21 125.734H281.062L280.95 126.896H282.21V129.878C282.21 132.006 282.658 133.084 284.912 133.084C285.29 133.084 286.004 133 286.004 133L285.892 131.572C285.892 131.572 285.318 131.614 285.276 131.614C284.212 131.614 284.142 131.222 284.142 129.99V126.896Z" fill="white"/>
<path d="M383.149 125.048L383.681 123.676C382.883 123.102 381.805 122.892 380.447 122.892C378.473 122.892 376.849 123.816 376.849 125.706C376.849 127.4 378.095 128.072 379.341 128.478L380.587 128.898C381.441 129.192 382.141 129.472 382.141 130.396C382.141 131.236 381.413 131.572 380.307 131.572C379.187 131.572 377.983 131.236 377.297 130.802L376.765 132.286C377.661 132.86 378.795 133.14 380.321 133.14C382.491 133.14 384.171 132.188 384.171 130.158C384.171 128.268 382.729 127.666 381.273 127.176L379.915 126.728C379.327 126.532 378.879 126.266 378.879 125.51C378.879 124.74 379.509 124.432 380.447 124.432C381.595 124.432 382.491 124.642 383.149 125.048ZM386.831 128.716C386.929 127.26 387.867 126.882 388.497 126.882C389.421 126.882 389.939 127.47 389.939 128.646V128.716H386.831ZM391.689 129.752V129.724C391.689 129.542 391.703 129.36 391.703 129.178V129.15C391.703 127.204 390.681 125.454 388.469 125.454C386.215 125.454 384.913 127.162 384.913 129.304C384.913 131.642 386.271 133.14 388.791 133.14C390.023 133.14 390.849 132.776 391.479 132.286L390.947 131.096C390.513 131.418 389.757 131.74 388.861 131.74C387.601 131.74 386.859 131.082 386.817 129.752H391.689ZM394.798 122.766L392.866 122.892V129.892C392.866 131.754 393.216 133.084 395.414 133.084C396.044 133.084 396.422 133 396.422 133L396.338 131.614C396.338 131.614 396.282 131.642 395.932 131.642C394.896 131.642 394.798 131.264 394.798 130.158V122.766ZM398.89 128.716C398.988 127.26 399.926 126.882 400.556 126.882C401.48 126.882 401.998 127.47 401.998 128.646V128.716H398.89ZM403.748 129.752V129.724C403.748 129.542 403.762 129.36 403.762 129.178V129.15C403.762 127.204 402.74 125.454 400.528 125.454C398.274 125.454 396.972 127.162 396.972 129.304C396.972 131.642 398.33 133.14 400.85 133.14C402.082 133.14 402.908 132.776 403.538 132.286L403.006 131.096C402.572 131.418 401.816 131.74 400.92 131.74C399.66 131.74 398.918 131.082 398.876 129.752H403.748ZM408.396 131.74C407.206 131.74 406.408 131.026 406.408 129.276C406.408 127.582 407.276 126.882 408.354 126.882C408.998 126.882 409.712 127.19 410.006 127.4L410.314 126.112C409.74 125.692 409.166 125.468 408.172 125.454H408.116C406.282 125.454 404.546 126.672 404.546 129.206C404.546 131.866 406.128 133.14 408.256 133.14H408.284C409.194 133.14 409.768 132.916 410.398 132.496L410.034 131.194C409.642 131.474 409.068 131.74 408.396 131.74ZM413.561 126.896H415.353V125.734H413.561V123.088H412.105L411.629 125.734H410.481L410.369 126.896H411.629V129.878C411.629 132.006 412.077 133.084 414.331 133.084C414.709 133.084 415.423 133 415.423 133L415.311 131.572C415.311 131.572 414.737 131.614 414.695 131.614C413.631 131.614 413.561 131.222 413.561 129.99V126.896ZM419.861 125.454C417.495 125.454 416.277 127.064 416.277 129.318C416.277 131.53 417.495 133.14 419.861 133.14C422.227 133.14 423.445 131.53 423.445 129.318C423.445 127.064 422.227 125.454 419.861 125.454ZM419.861 131.726C418.825 131.726 418.139 130.9 418.139 129.318C418.139 127.694 418.839 126.882 419.861 126.882C420.883 126.882 421.597 127.694 421.597 129.318C421.597 130.9 420.897 131.726 419.861 131.726ZM428.362 125.734C427.452 125.734 426.976 126.084 426.514 126.728L426.374 125.734H424.582V133H426.514V128.996C426.514 127.918 426.766 127.204 428.138 127.204H428.656L428.558 125.734H428.362ZM434.048 126.042C433.46 125.636 432.634 125.454 431.598 125.454C430.03 125.454 428.91 126.168 428.91 127.68C428.91 128.884 429.75 129.416 430.8 129.808L431.892 130.214C432.452 130.424 432.606 130.578 432.606 130.998C432.606 131.53 432.172 131.74 431.626 131.74C430.912 131.74 429.792 131.53 429.19 131.138L428.812 132.398C429.526 132.902 430.506 133.126 431.864 133.126C433.572 133.126 434.37 132.02 434.37 130.788C434.37 129.668 433.46 129.01 432.564 128.702L431.444 128.31C430.814 128.086 430.59 127.96 430.618 127.456C430.646 127.05 430.968 126.854 431.752 126.854C432.298 126.854 433.222 127.036 433.712 127.302L434.048 126.042Z" fill="white"/>
<path d="M511.418 124.614H514.316V123.116H506.504V124.614H509.388V133H511.418V124.614ZM518.617 125.734C517.707 125.734 517.231 126.084 516.769 126.728L516.629 125.734H514.837V133H516.769V128.996C516.769 127.918 517.021 127.204 518.393 127.204H518.911L518.813 125.734H518.617ZM523.645 132.216L523.841 133H525.325V127.82C525.325 126.238 524.233 125.454 522.553 125.454H522.385C521.181 125.482 520.257 125.692 519.585 126L519.963 127.386C520.285 127.274 521.503 126.882 522.217 126.882H522.315C523.309 126.924 523.379 127.288 523.379 128.142V128.478L522.861 128.562C520.453 128.912 519.165 129.206 519.165 131.054C519.165 132.342 520.103 133.14 521.461 133.14C522.399 133.14 523.015 132.748 523.645 132.216ZM521.797 131.894C521.195 131.894 520.901 131.516 520.901 130.984C520.901 129.976 521.783 129.808 522.861 129.654L523.379 129.57V131.292C522.861 131.642 522.469 131.894 521.797 131.894ZM531.632 128.758V133H533.578V128.576C533.578 126.784 532.822 125.482 531.058 125.454C529.966 125.44 529.056 126.028 528.482 126.7L528.328 125.734H526.704V133H528.65V128.044C528.958 127.456 529.714 126.882 530.428 126.882C531.576 126.882 531.632 127.75 531.632 128.758ZM539.793 126.042C539.205 125.636 538.379 125.454 537.343 125.454C535.775 125.454 534.655 126.168 534.655 127.68C534.655 128.884 535.495 129.416 536.545 129.808L537.637 130.214C538.197 130.424 538.351 130.578 538.351 130.998C538.351 131.53 537.917 131.74 537.371 131.74C536.657 131.74 535.537 131.53 534.935 131.138L534.557 132.398C535.271 132.902 536.251 133.126 537.609 133.126C539.317 133.126 540.115 132.02 540.115 130.788C540.115 129.668 539.205 129.01 538.309 128.702L537.189 128.31C536.559 128.086 536.335 127.96 536.363 127.456C536.391 127.05 536.713 126.854 537.497 126.854C538.043 126.854 538.967 127.036 539.457 127.302L539.793 126.042ZM541.632 125.51V125.734H540.456V126.882H541.632V133H543.564V126.882H545.188V125.734H543.564V125.132C543.564 124.236 543.746 123.872 544.614 123.872H545.244L545.076 122.43H544.432C541.842 122.43 541.632 123.578 541.632 125.51ZM549.176 125.454C546.81 125.454 545.592 127.064 545.592 129.318C545.592 131.53 546.81 133.14 549.176 133.14C551.542 133.14 552.76 131.53 552.76 129.318C552.76 127.064 551.542 125.454 549.176 125.454ZM549.176 131.726C548.14 131.726 547.454 130.9 547.454 129.318C547.454 127.694 548.154 126.882 549.176 126.882C550.198 126.882 550.912 127.694 550.912 129.318C550.912 130.9 550.212 131.726 549.176 131.726ZM557.677 125.734C556.767 125.734 556.291 126.084 555.829 126.728L555.689 125.734H553.897V133H555.829V128.996C555.829 127.918 556.081 127.204 557.453 127.204H557.971L557.873 125.734H557.677ZM560.396 128.03C560.69 127.526 561.208 126.882 562.048 126.882C563.014 126.882 563.14 127.722 563.14 128.828V133H565.072V128.044C565.38 127.484 565.842 126.91 566.752 126.882H566.794C567.648 126.882 567.76 127.54 567.76 128.954V133H569.692V128.548C569.692 126.798 569.09 125.454 567.298 125.454H567.214C566.136 125.454 565.324 125.93 564.68 126.686C564.386 125.944 563.784 125.454 562.804 125.454H562.72C561.656 125.482 560.774 126.042 560.256 126.7L560.102 125.734H558.464V133H560.396V128.03Z" fill="white"/>
<path d="M655.638 133V129.374C656.142 129.416 656.646 129.416 657.066 129.416C659.978 129.416 660.818 127.974 660.818 126.196C660.818 124.04 659.278 123.116 656.898 123.116H653.594V133H655.638ZM656.744 127.974C656.366 127.974 655.806 127.974 655.638 127.96V124.6H656.912C658.144 124.6 658.844 125.188 658.844 126.266V126.294C658.844 127.134 658.536 127.974 656.744 127.974ZM665.94 132.216L666.136 133H667.62V127.82C667.62 126.238 666.528 125.454 664.848 125.454H664.68C663.476 125.482 662.552 125.692 661.88 126L662.258 127.386C662.58 127.274 663.798 126.882 664.512 126.882H664.61C665.604 126.924 665.674 127.288 665.674 128.142V128.478L665.156 128.562C662.748 128.912 661.46 129.206 661.46 131.054C661.46 132.342 662.398 133.14 663.756 133.14C664.694 133.14 665.31 132.748 665.94 132.216ZM664.092 131.894C663.49 131.894 663.196 131.516 663.196 130.984C663.196 129.976 664.078 129.808 665.156 129.654L665.674 129.57V131.292C665.156 131.642 664.764 131.894 664.092 131.894ZM671.309 126.896H673.101V125.734H671.309V123.088H669.853L669.377 125.734H668.228L668.116 126.896H669.377V129.878C669.377 132.006 669.825 133.084 672.079 133.084C672.457 133.084 673.171 133 673.171 133L673.059 131.572C673.059 131.572 672.485 131.614 672.443 131.614C671.379 131.614 671.309 131.222 671.309 129.99V126.896ZM677.874 131.74C676.684 131.74 675.886 131.026 675.886 129.276C675.886 127.582 676.754 126.882 677.832 126.882C678.476 126.882 679.19 127.19 679.484 127.4L679.792 126.112C679.218 125.692 678.644 125.468 677.65 125.454H677.594C675.76 125.454 674.024 126.672 674.024 129.206C674.024 131.866 675.606 133.14 677.734 133.14H677.762C678.672 133.14 679.246 132.916 679.876 132.496L679.512 131.194C679.12 131.474 678.546 131.74 677.874 131.74ZM682.675 133V128.114C683.039 127.512 683.753 126.882 684.565 126.882C685.461 126.882 685.657 127.554 685.657 128.632V133H687.603V128.576C687.603 126.266 686.385 125.454 685.013 125.454C684.061 125.454 683.277 125.916 682.675 126.532V122.766H680.729V133H682.675Z" fill="white"/>
<path d="M774.231 123.116H772.271L775.141 133H777.031L779.467 125.734L781.581 133H783.499L786.677 123.116H784.731L782.547 130.424L780.321 123.116H778.641L776.177 130.354L774.231 123.116ZM789.206 133V128.114C789.57 127.512 790.284 126.882 791.096 126.882C791.992 126.882 792.188 127.554 792.188 128.632V133H794.134V128.576C794.134 126.266 792.916 125.454 791.544 125.454C790.592 125.454 789.808 125.916 789.206 126.532V122.766H787.26V133H789.206ZM799.706 132.216L799.902 133H801.386V127.82C801.386 126.238 800.294 125.454 798.614 125.454H798.446C797.242 125.482 796.318 125.692 795.646 126L796.024 127.386C796.346 127.274 797.564 126.882 798.278 126.882H798.376C799.37 126.924 799.44 127.288 799.44 128.142V128.478L798.922 128.562C796.514 128.912 795.226 129.206 795.226 131.054C795.226 132.342 796.164 133.14 797.522 133.14C798.46 133.14 799.076 132.748 799.706 132.216ZM797.858 131.894C797.256 131.894 796.962 131.516 796.962 130.984C796.962 129.976 797.844 129.808 798.922 129.654L799.44 129.57V131.292C798.922 131.642 798.53 131.894 797.858 131.894ZM805.074 126.896H806.866V125.734H805.074V123.088H803.618L803.142 125.734H801.994L801.882 126.896H803.142V129.878C803.142 132.006 803.59 133.084 805.844 133.084C806.222 133.084 806.936 133 806.936 133L806.824 131.572C806.824 131.572 806.25 131.614 806.208 131.614C805.144 131.614 805.074 131.222 805.074 129.99V126.896ZM809.707 128.716C809.805 127.26 810.743 126.882 811.373 126.882C812.297 126.882 812.815 127.47 812.815 128.646V128.716H809.707ZM814.565 129.752V129.724C814.565 129.542 814.579 129.36 814.579 129.178V129.15C814.579 127.204 813.557 125.454 811.345 125.454C809.091 125.454 807.789 127.162 807.789 129.304C807.789 131.642 809.147 133.14 811.667 133.14C812.899 133.14 813.725 132.776 814.355 132.286L813.823 131.096C813.389 131.418 812.633 131.74 811.737 131.74C810.477 131.74 809.735 131.082 809.693 129.752H814.565ZM818.92 130.97L816.974 125.734H814.944L817.996 133H819.802L822.476 125.734H820.474L818.92 130.97ZM824.842 128.716C824.94 127.26 825.878 126.882 826.508 126.882C827.432 126.882 827.95 127.47 827.95 128.646V128.716H824.842ZM829.7 129.752V129.724C829.7 129.542 829.714 129.36 829.714 129.178V129.15C829.714 127.204 828.692 125.454 826.48 125.454C824.226 125.454 822.924 127.162 822.924 129.304C822.924 131.642 824.282 133.14 826.802 133.14C828.034 133.14 828.86 132.776 829.49 132.286L828.958 131.096C828.524 131.418 827.768 131.74 826.872 131.74C825.612 131.74 824.87 131.082 824.828 129.752H829.7ZM834.544 125.734C833.634 125.734 833.158 126.084 832.696 126.728L832.556 125.734H830.764V133H832.696V128.996C832.696 127.918 832.948 127.204 834.32 127.204H834.838L834.74 125.734H834.544Z" fill="white"/>
<rect x="197" y="643" width="150" height="57" rx="7" fill="#FFDB20"/>
<path d="M235.799 668.048L236.331 666.676C235.533 666.102 234.455 665.892 233.097 665.892C231.123 665.892 229.499 666.816 229.499 668.706C229.499 670.4 230.745 671.072 231.991 671.478L233.237 671.898C234.091 672.192 234.791 672.472 234.791 673.396C234.791 674.236 234.063 674.572 232.957 674.572C231.837 674.572 230.633 674.236 229.947 673.802L229.415 675.286C230.311 675.86 231.445 676.14 232.971 676.14C235.141 676.14 236.821 675.188 236.821 673.158C236.821 671.268 235.379 670.666 233.923 670.176L232.565 669.728C231.977 669.532 231.529 669.266 231.529 668.51C231.529 667.74 232.159 667.432 233.097 667.432C234.245 667.432 235.141 667.642 235.799 668.048ZM239.482 671.716C239.58 670.26 240.518 669.882 241.148 669.882C242.072 669.882 242.59 670.47 242.59 671.646V671.716H239.482ZM244.34 672.752V672.724C244.34 672.542 244.354 672.36 244.354 672.178V672.15C244.354 670.204 243.332 668.454 241.12 668.454C238.866 668.454 237.564 670.162 237.564 672.304C237.564 674.642 238.922 676.14 241.442 676.14C242.674 676.14 243.5 675.776 244.13 675.286L243.598 674.096C243.164 674.418 242.408 674.74 241.512 674.74C240.252 674.74 239.51 674.082 239.468 672.752H244.34ZM249.184 668.734C248.274 668.734 247.798 669.084 247.336 669.728L247.196 668.734H245.404V676H247.336V671.996C247.336 670.918 247.588 670.204 248.96 670.204H249.478L249.38 668.734H249.184ZM252.071 668.734H250.139V676H252.071V668.734ZM252.085 665.892H250.139V667.488H252.085V665.892ZM257.808 675.216L258.004 676H259.488V670.82C259.488 669.238 258.396 668.454 256.716 668.454H256.548C255.344 668.482 254.42 668.692 253.748 669L254.126 670.386C254.448 670.274 255.666 669.882 256.38 669.882H256.478C257.472 669.924 257.542 670.288 257.542 671.142V671.478L257.024 671.562C254.616 671.912 253.328 672.206 253.328 674.054C253.328 675.342 254.266 676.14 255.624 676.14C256.562 676.14 257.178 675.748 257.808 675.216ZM255.96 674.894C255.358 674.894 255.064 674.516 255.064 673.984C255.064 672.976 255.946 672.808 257.024 672.654L257.542 672.57V674.292C257.024 674.642 256.632 674.894 255.96 674.894ZM262.925 665.766L260.993 665.892V672.892C260.993 674.754 261.343 676.084 263.541 676.084C264.171 676.084 264.549 676 264.549 676L264.465 674.614C264.465 674.614 264.409 674.642 264.059 674.642C263.023 674.642 262.925 674.264 262.925 673.158V665.766ZM267.465 668.734H265.533V676H267.465V668.734ZM267.479 665.892H265.533V667.488H267.479V665.892ZM274.505 674.712H271.103L274.393 669.728V668.734H268.877V669.966H272.013L268.709 674.894V676H274.505V674.712ZM277.216 671.716C277.314 670.26 278.252 669.882 278.882 669.882C279.806 669.882 280.324 670.47 280.324 671.646V671.716H277.216ZM282.074 672.752V672.724C282.074 672.542 282.088 672.36 282.088 672.178V672.15C282.088 670.204 281.066 668.454 278.854 668.454C276.6 668.454 275.298 670.162 275.298 672.304C275.298 674.642 276.656 676.14 279.176 676.14C280.408 676.14 281.234 675.776 281.864 675.286L281.332 674.096C280.898 674.418 280.142 674.74 279.246 674.74C277.986 674.74 277.244 674.082 277.202 672.752H282.074ZM288.332 676H290.222V665.766H288.29V669.56C288.024 669.028 287.408 668.454 286.176 668.454C284.048 668.454 282.886 670.218 282.886 672.262C282.886 674.446 284.02 676.098 286.12 676.14H286.218C287.282 676.14 287.94 675.636 288.29 674.978L288.332 676ZM286.554 674.712C285.686 674.712 284.748 674.166 284.748 672.318C284.748 670.372 285.7 669.882 286.554 669.882C287.422 669.882 288.318 670.47 288.318 672.318C288.318 674.194 287.45 674.712 286.554 674.712ZM296.904 666.116H294.86V676H296.904V666.116ZM303.755 665.766H302.173L298.169 677.218H299.737L303.755 665.766ZM312.508 671.058C312.508 673.144 311.528 674.558 309.582 674.558C307.65 674.558 306.684 673.144 306.684 671.058C306.684 668.972 307.636 667.502 309.582 667.502C311.542 667.502 312.508 668.972 312.508 671.058ZM304.612 671.03C304.612 674.25 306.74 676.14 309.568 676.14C312.396 676.14 314.538 674.25 314.538 671.03C314.538 667.782 312.41 665.892 309.568 665.892C306.74 665.892 304.612 667.782 304.612 671.03Z" fill="white"/>
<rect x="122" y="351" width="300" height="70" rx="7" fill="#73AAFA"/>
<path d="M228.713 383.93C228.713 381.634 227.257 381.116 224.947 381.116H221.139V391H223.183V386.912C223.183 386.912 224.919 386.912 225.213 386.94C225.213 386.94 225.829 388.116 226.081 388.648L227.159 391H229.301L227.901 388.144C227.593 387.514 227.369 387.038 226.949 386.548C228.083 386.128 228.713 385.316 228.713 383.93ZM226.823 383.958C226.823 385.036 226.277 385.47 225.003 385.47H223.183V382.6H225.045C226.207 382.6 226.823 383.006 226.823 383.958ZM234.156 390.216L234.352 391H235.836V385.82C235.836 384.238 234.744 383.454 233.064 383.454H232.896C231.692 383.482 230.768 383.692 230.096 384L230.474 385.386C230.796 385.274 232.014 384.882 232.728 384.882H232.826C233.82 384.924 233.89 385.288 233.89 386.142V386.478L233.372 386.562C230.964 386.912 229.676 387.206 229.676 389.054C229.676 390.342 230.614 391.14 231.972 391.14C232.91 391.14 233.526 390.748 234.156 390.216ZM232.308 389.894C231.706 389.894 231.412 389.516 231.412 388.984C231.412 387.976 232.294 387.808 233.372 387.654L233.89 387.57V389.292C233.372 389.642 232.98 389.894 232.308 389.894ZM244.634 388.368L243.178 383.734H241.498L239.776 388.396L238.474 383.734H236.542L238.852 391H240.448L242.296 385.764L243.822 391H245.432L248.078 383.734H246.16L244.634 388.368ZM257.038 391H258.928V380.766H256.996V384.56C256.73 384.028 256.114 383.454 254.882 383.454C252.754 383.454 251.592 385.218 251.592 387.262C251.592 389.446 252.726 391.098 254.826 391.14H254.924C255.988 391.14 256.646 390.636 256.996 389.978L257.038 391ZM255.26 389.712C254.392 389.712 253.454 389.166 253.454 387.318C253.454 385.372 254.406 384.882 255.26 384.882C256.128 384.882 257.024 385.47 257.024 387.318C257.024 389.194 256.156 389.712 255.26 389.712ZM264.562 390.216L264.758 391H266.242V385.82C266.242 384.238 265.15 383.454 263.47 383.454H263.302C262.098 383.482 261.174 383.692 260.502 384L260.88 385.386C261.202 385.274 262.42 384.882 263.134 384.882H263.232C264.226 384.924 264.296 385.288 264.296 386.142V386.478L263.778 386.562C261.37 386.912 260.082 387.206 260.082 389.054C260.082 390.342 261.02 391.14 262.378 391.14C263.316 391.14 263.932 390.748 264.562 390.216ZM262.714 389.894C262.112 389.894 261.818 389.516 261.818 388.984C261.818 387.976 262.7 387.808 263.778 387.654L264.296 387.57V389.292C263.778 389.642 263.386 389.894 262.714 389.894ZM269.931 384.896H271.723V383.734H269.931V381.088H268.475L267.999 383.734H266.851L266.739 384.896H267.999V387.878C267.999 390.006 268.447 391.084 270.701 391.084C271.079 391.084 271.793 391 271.793 391L271.681 389.572C271.681 389.572 271.107 389.614 271.065 389.614C270.001 389.614 269.931 389.222 269.931 387.99V384.896ZM277.154 390.216L277.35 391H278.834V385.82C278.834 384.238 277.742 383.454 276.062 383.454H275.894C274.69 383.482 273.766 383.692 273.094 384L273.472 385.386C273.794 385.274 275.012 384.882 275.726 384.882H275.824C276.818 384.924 276.888 385.288 276.888 386.142V386.478L276.37 386.562C273.962 386.912 272.674 387.206 272.674 389.054C272.674 390.342 273.612 391.14 274.97 391.14C275.908 391.14 276.524 390.748 277.154 390.216ZM275.306 389.894C274.704 389.894 274.41 389.516 274.41 388.984C274.41 387.976 275.292 387.808 276.37 387.654L276.888 387.57V389.292C276.37 389.642 275.978 389.894 275.306 389.894ZM285.194 386.03C285.488 385.526 286.006 384.882 286.846 384.882C287.812 384.882 287.938 385.722 287.938 386.828V391H289.87V386.044C290.178 385.484 290.64 384.91 291.55 384.882H291.592C292.446 384.882 292.558 385.54 292.558 386.954V391H294.49V386.548C294.49 384.798 293.888 383.454 292.096 383.454H292.012C290.934 383.454 290.122 383.93 289.478 384.686C289.184 383.944 288.582 383.454 287.602 383.454H287.518C286.454 383.482 285.572 384.042 285.054 384.7L284.9 383.734H283.262V391H285.194V386.03ZM299.13 383.454C296.764 383.454 295.546 385.064 295.546 387.318C295.546 389.53 296.764 391.14 299.13 391.14C301.496 391.14 302.714 389.53 302.714 387.318C302.714 385.064 301.496 383.454 299.13 383.454ZM299.13 389.726C298.094 389.726 297.408 388.9 297.408 387.318C297.408 385.694 298.108 384.882 299.13 384.882C300.152 384.882 300.866 385.694 300.866 387.318C300.866 388.9 300.166 389.726 299.13 389.726ZM309.045 391H310.935V380.766H309.003V384.56C308.737 384.028 308.121 383.454 306.889 383.454C304.761 383.454 303.599 385.218 303.599 387.262C303.599 389.446 304.733 391.098 306.833 391.14H306.931C307.995 391.14 308.653 390.636 309.003 389.978L309.045 391ZM307.267 389.712C306.399 389.712 305.461 389.166 305.461 387.318C305.461 385.372 306.413 384.882 307.267 384.882C308.135 384.882 309.031 385.47 309.031 387.318C309.031 389.194 308.163 389.712 307.267 389.712ZM313.98 386.716C314.078 385.26 315.016 384.882 315.646 384.882C316.57 384.882 317.088 385.47 317.088 386.646V386.716H313.98ZM318.838 387.752V387.724C318.838 387.542 318.852 387.36 318.852 387.178V387.15C318.852 385.204 317.83 383.454 315.618 383.454C313.364 383.454 312.062 385.162 312.062 387.304C312.062 389.642 313.42 391.14 315.94 391.14C317.172 391.14 317.998 390.776 318.628 390.286L318.096 389.096C317.662 389.418 316.906 389.74 316.01 389.74C314.75 389.74 314.008 389.082 313.966 387.752H318.838ZM321.946 380.766L320.014 380.892V387.892C320.014 389.754 320.364 391.084 322.562 391.084C323.192 391.084 323.57 391 323.57 391L323.486 389.614C323.486 389.614 323.43 389.642 323.08 389.642C322.044 389.642 321.946 389.264 321.946 388.158V380.766Z" fill="white"/>
<path d="M542.092 383.278L542.624 381.906C541.826 381.332 540.748 381.122 539.39 381.122C537.416 381.122 535.792 382.046 535.792 383.936C535.792 385.63 537.038 386.302 538.284 386.708L539.53 387.128C540.384 387.422 541.084 387.702 541.084 388.626C541.084 389.466 540.356 389.802 539.25 389.802C538.13 389.802 536.926 389.466 536.24 389.032L535.708 390.516C536.604 391.09 537.738 391.37 539.264 391.37C541.434 391.37 543.114 390.418 543.114 388.388C543.114 386.498 541.672 385.896 540.216 385.406L538.858 384.958C538.27 384.762 537.822 384.496 537.822 383.74C537.822 382.97 538.452 382.662 539.39 382.662C540.538 382.662 541.434 382.872 542.092 383.278ZM547.707 389.97C546.517 389.97 545.719 389.256 545.719 387.506C545.719 385.812 546.587 385.112 547.665 385.112C548.309 385.112 549.023 385.42 549.317 385.63L549.625 384.342C549.051 383.922 548.477 383.698 547.483 383.684H547.427C545.593 383.684 543.857 384.902 543.857 387.436C543.857 390.096 545.439 391.37 547.567 391.37H547.595C548.505 391.37 549.079 391.146 549.709 390.726L549.345 389.424C548.953 389.704 548.379 389.97 547.707 389.97ZM552.508 391.23V386.344C552.872 385.742 553.586 385.112 554.398 385.112C555.294 385.112 555.49 385.784 555.49 386.862V391.23H557.436V386.806C557.436 384.496 556.218 383.684 554.846 383.684C553.894 383.684 553.11 384.146 552.508 384.762V380.996H550.562V391.23H552.508ZM560.417 386.946C560.515 385.49 561.453 385.112 562.083 385.112C563.007 385.112 563.525 385.7 563.525 386.876V386.946H560.417ZM565.275 387.982V387.954C565.275 387.772 565.289 387.59 565.289 387.408V387.38C565.289 385.434 564.267 383.684 562.055 383.684C559.801 383.684 558.499 385.392 558.499 387.534C558.499 389.872 559.857 391.37 562.377 391.37C563.609 391.37 564.435 391.006 565.065 390.516L564.533 389.326C564.099 389.648 563.343 389.97 562.447 389.97C561.187 389.97 560.445 389.312 560.403 387.982H565.275ZM568.272 386.26C568.566 385.756 569.084 385.112 569.924 385.112C570.89 385.112 571.016 385.952 571.016 387.058V391.23H572.948V386.274C573.256 385.714 573.718 385.14 574.628 385.112H574.67C575.524 385.112 575.636 385.77 575.636 387.184V391.23H577.568V386.778C577.568 385.028 576.966 383.684 575.174 383.684H575.09C574.012 383.684 573.2 384.16 572.556 384.916C572.262 384.174 571.66 383.684 570.68 383.684H570.596C569.532 383.712 568.65 384.272 568.132 384.93L567.978 383.964H566.34V391.23H568.272V386.26ZM583.132 390.446L583.328 391.23H584.812V386.05C584.812 384.468 583.72 383.684 582.04 383.684H581.872C580.668 383.712 579.744 383.922 579.072 384.23L579.45 385.616C579.772 385.504 580.99 385.112 581.704 385.112H581.802C582.796 385.154 582.866 385.518 582.866 386.372V386.708L582.348 386.792C579.94 387.142 578.652 387.436 578.652 389.284C578.652 390.572 579.59 391.37 580.948 391.37C581.886 391.37 582.502 390.978 583.132 390.446ZM581.284 390.124C580.682 390.124 580.388 389.746 580.388 389.214C580.388 388.206 581.27 388.038 582.348 387.884L582.866 387.8V389.522C582.348 389.872 581.956 390.124 581.284 390.124ZM591.105 384.272C590.517 383.866 589.691 383.684 588.655 383.684C587.087 383.684 585.967 384.398 585.967 385.91C585.967 387.114 586.807 387.646 587.857 388.038L588.949 388.444C589.509 388.654 589.663 388.808 589.663 389.228C589.663 389.76 589.229 389.97 588.683 389.97C587.969 389.97 586.849 389.76 586.247 389.368L585.869 390.628C586.583 391.132 587.563 391.356 588.921 391.356C590.629 391.356 591.427 390.25 591.427 389.018C591.427 387.898 590.517 387.24 589.621 386.932L588.501 386.54C587.871 386.316 587.647 386.19 587.675 385.686C587.703 385.28 588.025 385.084 588.809 385.084C589.355 385.084 590.279 385.266 590.769 385.532L591.105 384.272Z" fill="white"/>
<path d="M734.436 391.23H736.368L736.088 390.404L732.854 381.346H730.936L727.604 390.404L727.338 391.23H729.354L730.432 388.192H733.358L734.436 391.23ZM730.866 386.946L731.902 383.6L732.882 386.946H730.866ZM746.011 386.316C746.011 382.69 743.491 381.346 739.781 381.346H737.107V391.23H740.397C743.715 391.23 746.011 389.536 746.011 386.316ZM743.981 386.344C743.981 388.514 742.749 389.704 740.523 389.704H739.151V382.886H739.935C742.637 382.886 743.981 383.74 743.981 386.344ZM749.378 389.746V381.346H747.334V391.23H753.284L753.396 389.746H749.378ZM758.971 384.272C758.383 383.866 757.557 383.684 756.521 383.684C754.953 383.684 753.833 384.398 753.833 385.91C753.833 387.114 754.673 387.646 755.723 388.038L756.815 388.444C757.375 388.654 757.529 388.808 757.529 389.228C757.529 389.76 757.095 389.97 756.549 389.97C755.835 389.97 754.715 389.76 754.113 389.368L753.735 390.628C754.449 391.132 755.429 391.356 756.787 391.356C758.495 391.356 759.293 390.25 759.293 389.018C759.293 387.898 758.383 387.24 757.487 386.932L756.367 386.54C755.737 386.316 755.513 386.19 755.541 385.686C755.569 385.28 755.891 385.084 756.675 385.084C757.221 385.084 758.145 385.266 758.635 385.532L758.971 384.272Z" fill="white"/>
<path d="M866.392 238.293C866.001 238.683 866.001 239.317 866.392 239.707L872.756 246.071C873.146 246.462 873.78 246.462 874.17 246.071C874.561 245.681 874.561 245.047 874.17 244.657L868.513 239L874.17 233.343C874.561 232.953 874.561 232.319 874.17 231.929C873.78 231.538 873.146 231.538 872.756 231.929L866.392 238.293ZM923 239H924V238H923V239ZM923 509L922.998 510L924 510.002V509H923ZM563 508.129H562V509.127L562.998 509.129L563 508.129ZM563.707 421.293C563.317 420.902 562.683 420.902 562.293 421.293L555.929 427.657C555.538 428.047 555.538 428.681 555.929 429.071C556.319 429.462 556.953 429.462 557.343 429.071L563 423.414L568.657 429.071C569.047 429.462 569.681 429.462 570.071 429.071C570.462 428.681 570.462 428.047 570.071 427.657L563.707 421.293ZM867.099 240H923V238H867.099V240ZM922 239V509H924V239H922ZM923.002 508L563.002 507.129L562.998 509.129L922.998 510L923.002 508ZM564 508.129V422H562V508.129H564Z" fill="#B2BBBC"/>
<path d="M866.793 266.293C866.402 266.683 866.402 267.317 866.793 267.707L873.157 274.071C873.547 274.462 874.181 274.462 874.571 274.071C874.962 273.681 874.962 273.047 874.571 272.657L868.914 267L874.571 261.343C874.962 260.953 874.962 260.319 874.571 259.929C874.181 259.538 873.547 259.538 873.157 259.929L866.793 266.293ZM895 267H896V266H895V267ZM895 469L894.996 470L896 470.004V469H895ZM742 468.348H741V469.344L741.996 469.348L742 468.348ZM742.707 421.293C742.317 420.902 741.683 420.902 741.293 421.293L734.929 427.657C734.538 428.047 734.538 428.681 734.929 429.071C735.319 429.462 735.953 429.462 736.343 429.071L742 423.414L747.657 429.071C748.047 429.462 748.681 429.462 749.071 429.071C749.462 428.681 749.462 428.047 749.071 427.657L742.707 421.293ZM867.5 268H895V266H867.5V268ZM894 267V469H896V267H894ZM895.004 468L742.004 467.348L741.996 469.348L894.996 470L895.004 468ZM743 468.348V422H741V468.348H743Z" fill="#B2BBBC"/>
</svg>
