<svg width="183" height="156" viewBox="0 0 183 156" xmlns="http://www.w3.org/2000/svg"><g stroke="#0073F9" stroke-width="3" fill="none" fill-rule="evenodd"><path class="draw-hex" d="M18.89 142.297l19.767 11.413a2.174 2.174 0 0 0 2.177-.003l19.793-11.457a2.186 2.186 0 0 0 1.09-1.89l.026-22.869a2.175 2.175 0 0 0-1.086-1.887l-19.766-11.412a2.174 2.174 0 0 0-2.177.003L18.92 115.652a2.186 2.186 0 0 0-1.09 1.89l-.027 22.869c0 .778.413 1.498 1.087 1.886m81.24-22.437l19.767-11.413a2.174 2.174 0 0 0 1.087-1.887l-.026-22.87a2.186 2.186 0 0 0-1.091-1.888l-19.793-11.458a2.174 2.174 0 0 0-2.177-.002L78.131 81.754a2.174 2.174 0 0 0-1.087 1.887l.027 22.87c0 .778.416 1.498 1.09 1.888l19.793 11.458c.674.39 1.504.39 2.177.002m20.473-81.479V15.554c0-.777-.416-1.495-1.091-1.884L99.694 2.259a2.186 2.186 0 0 0-2.181 0L77.694 13.67a2.174 2.174 0 0 0-1.09 1.884v22.824c0 .778.415 1.496 1.09 1.885l19.819 11.412a2.186 2.186 0 0 0 2.181 0l19.819-11.412a2.175 2.175 0 0 0 1.09-1.885m17.287 103.919l19.767 11.413a2.174 2.174 0 0 0 2.177-.003l19.793-11.457a2.186 2.186 0 0 0 1.09-1.89l.026-22.869a2.175 2.175 0 0 0-1.086-1.887l-19.766-11.412a2.174 2.174 0 0 0-2.177.003l-19.793 11.457a2.186 2.186 0 0 0-1.09 1.89l-.027 22.869c0 .778.413 1.498 1.087 1.886"/><path class="draw-line" d="M17.979 116.367l-16.802-9.7m76.042 1.017l-16.802 9.7m38.187-65.25v19.402m38.375 44.831l-16.802-9.7"/></g></svg>