<svg width="179" height="203" viewBox="0 0 179 203" xmlns="http://www.w3.org/2000/svg"><title>Ethereum to IPFS</title><g fill="none" fill-rule="evenodd"><path d="M176.907 146.63v-90.6a8.633 8.633 0 0 0-4.325-7.48L93.997 3.25a8.662 8.662 0 0 0-8.65 0L6.762 48.55a8.633 8.633 0 0 0-4.325 7.48v90.6a8.633 8.633 0 0 0 4.325 7.48l78.585 45.3a8.662 8.662 0 0 0 8.65 0l78.585-45.3a8.634 8.634 0 0 0 4.325-7.48" stroke="#CBDFFC" stroke-width="4" fill="#FAFCFF"/><g transform="rotate(-23 173.93 -110.15)" stroke="#B6C8E4"><path d="M4.963 5.648A30.745 30.745 0 0 1 22.376.999c14.698.513 26.634 11.207 29.235 25.05" stroke-width="4" stroke-linecap="round"/><circle stroke-width="3" fill="#F9FCFF" cx="51" cy="26" r="4"/><circle stroke-width="3" fill="#F9FCFF" cx="4.309" cy="5.646" r="4"/></g><g transform="rotate(159 74.551 77.32)"><path d="M59.892 6.56a30.39 30.39 0 0 1 17.04-5.192c14.538 0 26.698 10.152 29.745 23.737" stroke="#B6C8E4" stroke-width="4" stroke-linecap="round"/><circle stroke="#B6C8E4" stroke-width="3" fill="#F9FCFF" cx="58.476" cy="7.559" r="4"/><circle stroke="#B6C8E4" stroke-width="3" fill="#F9FCFF" cx="105.85" cy="26.271" r="4"/><g fill-rule="nonzero"><path fill="#4A9EA1" d="M61.903 32.2L44.409 10.643l-27.425 4.314-9.931 25.871 17.494 21.556 27.425-4.314z"/><path d="M28.061 60.159l19.884-3.129c.079-.3.19-.592.334-.868l-12.685-15.63a4.175 4.175 0 0 1-4.62-1.773L11.09 41.887c-.079.3-.19.592-.334.868l12.684 15.63a4.175 4.175 0 0 1 4.62 1.773h.001zm-17.54-21.463l19.942-3.226a4.155 4.155 0 0 1 3.842-3.104l7.142-18.66a4.168 4.168 0 0 1-.587-.724L20.975 16.11a4.155 4.155 0 0 1-3.842 3.104l-7.2 18.758c.222.219.419.461.587.723v.001zm40.34 15.366c.3-.083.609-.131.92-.145l7.2-18.758a4.155 4.155 0 0 1-.777-4.877L45.52 14.652a4.17 4.17 0 0 1-.92.145l-7.2 18.758a4.155 4.155 0 0 1 .777 4.877l12.684 15.63z" fill="#63D3D7"/><g fill="#000"><path fill-opacity=".251" d="M44.408 10.643l-27.425 4.314-9.93 25.871 27.424-4.314z"/><path fill-opacity=".039" d="M44.408 10.643l-9.93 25.871L51.97 58.071 61.902 32.2z"/><path fill-opacity=".13" d="M51.972 58.071L34.478 36.514 7.053 40.828l17.494 21.557z"/></g><path d="M47.253 49.534l2.958 1.136 5.477-14.27-2.958-1.135zm.323-16.248l-2.01 5.235c-.706-.34-1.435-.62-2.043-.854-4.214-1.618-6.23-.002-7.215 2.565-1.194 3.112.522 5.302 3.967 6.624l4.781 1.835 5.478-14.27-2.958-1.135zm-4.386 6.642c.547.21 1.357.521 1.593.635l-1.862 4.85-1.844-.707c-1.783-.685-2.47-1.923-1.873-3.479l.016-.04c.465-1.213 1.376-2.255 3.97-1.26zm-18.717.862l8.976 3.446 5.477-14.27-2.958-1.136-2.413 6.286-5.612-2.154-.823 2.143 5.633 2.162-1.412 3.678-5.835-2.24zm-8.61-6.505l-1.53 1.685c.836 1.272 2.28 2.174 4.245 2.929 2.857 1.096 5.72.664 6.767-2.064.939-2.446-.492-4.108-2.07-5.387l-1.57-1.298c-1.074-.899-1.932-1.692-1.42-3.026.466-1.213 1.706-1.294 3.306-.68 1.621.623 3.178 1.777 3.93 2.785l1.592-1.847c-.978-1.327-2.464-2.36-4.673-3.209-3.14-1.205-6.1-.764-7.224 2.167-1.048 2.728.706 4.399 2.541 5.915l1.717 1.401c.743.61 1.243 1.243.825 2.334-.427 1.112-1.51 1.206-2.867.685-1.662-.638-2.842-1.438-3.57-2.39z" fill="#FFF"/></g></g><g fill-rule="nonzero"><path fill="#343434" d="M45.293 67.122l-.44 1.492v43.297l.44.438 20.147-11.88z"/><path fill="#8C8C8C" d="M45.294 67.122L25.147 100.47l20.147 11.88V91.334z"/><path fill="#3C3C3B" d="M45.293 116.155l-.248.301v15.423l.248.723 20.16-28.321z"/><path fill="#8C8C8C" d="M45.294 132.602v-16.448l-20.147-11.873z"/><path fill="#141414" d="M45.293 112.35l20.147-11.88-20.147-9.135z"/><path fill="#393939" d="M25.147 100.47l20.146 11.88V91.334z"/></g></g></svg>