<svg width="64" height="74" viewBox="0 0 64 74" xmlns="http://www.w3.org/2000/svg"><title>IPFS</title><g fill="none"><path fill="#4A9EA1" d="M.184 55.22l31.439 18.152L63.06 55.221V18.918L31.623.768.184 18.92z"/><path d="M28.377 5.14L5.583 18.3c.046.405.046.814 0 1.219l22.796 13.16a5.445 5.445 0 0 1 6.466 0L57.64 19.52a5.437 5.437 0 0 1 0-1.218L34.846 5.14a5.446 5.446 0 0 1-6.466 0h-.003zM59.83 23.154L37.009 36.46a5.445 5.445 0 0 1-3.233 5.6l.026 26.175c.373.163.727.367 1.055.609l22.795-13.16a5.446 5.446 0 0 1 3.233-5.6V23.762a5.445 5.445 0 0 1-1.055-.609h-.001zM3.417 23.3a5.443 5.443 0 0 1-1.055.61v26.32a5.445 5.445 0 0 1 3.233 5.6l22.794 13.16a5.445 5.445 0 0 1 1.055-.609v-26.32a5.445 5.445 0 0 1-3.233-5.6L3.417 23.3z" fill="#63D3D7"/><g fill="#000"><path fill-opacity=".251" d="M31.623 73.372l31.439-18.151V18.918L31.623 37.07z"/><path fill-opacity=".039" d="M31.623 73.372V37.07L.184 18.92v36.3z"/><path fill-opacity=".13" d="M.184 18.918L31.623 37.07 63.06 18.92 31.623.766z"/></g><path d="M9.94 27.143H5.797v20.023H9.94zm7.214 20.023v-7.345c1.021.085 2.042.085 2.893.085 5.9 0 7.601-2.922 7.601-6.524 0-4.367-3.12-6.24-7.941-6.24h-6.693v20.024h4.14zm2.241-10.182c-.766 0-1.9 0-2.24-.028v-6.807h2.58c2.496 0 3.914 1.191 3.914 3.375v.057c0 1.702-.624 3.403-4.254 3.403zm22.431-9.841H29.262v20.023h4.14v-8.82h7.857v-3.007h-7.885v-5.161h8.168zm13.551 3.914l1.078-2.78c-1.617-1.162-3.8-1.588-6.552-1.588-3.999 0-7.289 1.872-7.289 5.7 0 3.433 2.525 4.794 5.049 5.616l2.524.851c1.73.596 3.148 1.163 3.148 3.035 0 1.702-1.475 2.382-3.715 2.382-2.27 0-4.708-.68-6.098-1.56l-1.078 3.007c1.815 1.162 4.113 1.73 7.204 1.73 4.396 0 7.8-1.929 7.8-6.041 0-3.83-2.922-5.049-5.871-6.041l-2.751-.908c-1.192-.397-2.1-.936-2.1-2.467 0-1.56 1.277-2.184 3.177-2.184 2.326 0 4.141.425 5.474 1.248z" fill="#FFF"/></g></svg>