<svg width="158" height="139" viewBox="0 0 158 139" xmlns="http://www.w3.org/2000/svg"><title>Group</title><g fill="none" fill-rule="evenodd"><path d="M70.277 15.273c-7.566 0-13.72 5.976-13.72 13.32 0 4.796 2.612 9.11 6.732 11.466v48.857L46.911 78.473l-.022-11.379c4.106-2.36 6.71-6.667 6.71-11.45 0-7.345-6.156-13.32-13.72-13.32-7.567 0-13.722 5.975-13.722 13.32 0 4.807 2.622 9.126 6.755 11.48l.031 16.588a3.858 3.858 0 0 0 1.804 3.238l28.544 18.204.027 29.165c.002 2.142 1.792 3.88 4 3.88h5.976a4.066 4.066 0 0 0 2.833-1.141 3.828 3.828 0 0 0 1.167-2.754v-.545l-.022-7.38 31.34-21.104a3.85 3.85 0 0 0 1.72-3.191V77.378c4.12-2.357 6.733-6.67 6.733-11.465 0-7.345-6.155-13.32-13.72-13.32-7.566 0-13.722 5.975-13.722 13.32 0 4.795 2.613 9.107 6.732 11.465v19.637L77.266 109.87V40.059c4.12-2.358 6.732-6.67 6.732-11.465 0-7.345-6.155-13.32-13.72-13.32m9.72 13.32c0 4.198-2.827 7.752-6.732 8.977v79.717l27.09-18.24V74.89c-3.906-1.225-6.733-4.779-6.733-8.977 0-5.213 4.352-9.437 9.721-9.437 5.37 0 9.721 4.224 9.721 9.437 0 4.198-2.827 7.753-6.733 8.977v27.194L73.266 124.35l.027 9.42.001.545h-5.976l-.029-31.257-30.346-19.353-.036-19.078c-3.915-1.218-6.75-4.778-6.75-8.983 0-5.213 4.352-9.437 9.721-9.437 5.368 0 9.72 4.224 9.72 9.437 0 4.191-2.818 7.74-6.714 8.97l.031 15.955L67.29 96.114V37.57c-3.906-1.224-6.733-4.779-6.733-8.977 0-5.213 4.352-9.437 9.721-9.437 5.37 0 9.721 4.224 9.721 9.437zm77.387 97.639l-1.808 2.74a1.94 1.94 0 0 1-2.687.55l-23.65-15.608 3.945-5.977 23.65 15.608a1.94 1.94 0 0 1 .55 2.687" fill="#FFF"/><path d="M136.453 106.044l-6.952 10.534a4.88 4.88 0 0 1-6.76 1.385l-3.326-2.195 12.328-18.679 3.325 2.195a4.88 4.88 0 0 1 1.385 6.76" fill="#FFF"/><path d="M106.303 13.13c31 20.459 39.545 62.174 19.086 93.174-20.459 30.999-62.174 39.544-93.174 19.086-31-20.459-39.545-62.175-19.086-93.174 20.46-31 62.174-39.545 93.174-19.086z" stroke="#FFF" stroke-width="4" stroke-linecap="round" stroke-linejoin="round"/><path d="M2-5h156v151H2z"/></g></svg>