<svg style="max-width:100%" width="532" viewBox="0 0 532 368" xmlns="http://www.w3.org/2000/svg" xmlns:xlink="http://www.w3.org/1999/xlink"><title>ipld-hero</title><defs><path id="a" d="M0 53.068V.262h53.845v52.806z"/></defs><g fill="none" fill-rule="evenodd"><path class="ipld-logo-connector" d="M189.02 141.763l-75.641-44.46m227.625 45.691l79.152-45.996m-78.504 128.48l77.485 46.395m-229.121-45.602l-76.711 44.849" stroke="#1D74F2" stroke-width="4"/><g class="ipld-logo"><path d="M353.101 229.707v-91.575c0-3.118-1.663-6-4.364-7.559l-79.306-45.787a8.73 8.73 0 0 0-8.729 0l-79.306 45.787a8.728 8.728 0 0 0-4.364 7.56v91.574c0 3.119 1.663 6 4.364 7.56l79.306 45.787a8.73 8.73 0 0 0 8.729 0l79.306-45.788a8.729 8.729 0 0 0 4.364-7.559z" fill="#1D74F2" fill-rule="nonzero"/><g transform="translate(186.222 94.965)" fill-rule="nonzero" fill="#FFF"><path d="M78.844 175.25L3.068 130.88V47.492L78.842 2.66l.108.061 75.67 42.983v85.178l-.106.062-75.67 44.308zM3.499 130.634l75.345 44.119 75.345-44.119v-84.68L78.846 3.157 3.5 47.736v82.897z"/><g transform="translate(0 44.959)"><circle cx="3.068" cy="85.922" r="3.027"/><circle cx="3.068" cy="3.37" r="3.027"/></g><g transform="translate(151.268 44.959)"><circle cx="3.352" cy="85.728" r="3.027"/><circle cx="3.352" cy="3.177" r="3.027"/></g><circle cx="78.844" cy="174.434" r="3.027"/><circle cx="78.842" cy="3.475" r="3.027"/></g><g transform="translate(202 117)"><path class="ipld-logo-trunk" d="M63 149.5V9" stroke="#FFF" stroke-width="4" stroke-linecap="square"/><path class="ipld-logo-branch" stroke="#FFF" stroke-width="4" stroke-linecap="square" d="M64.5 112.5L121 77v-9.513M61.5 112.5L6 82v-9.014M61.5 84.5l-40-22V47.492m43 26.008l35-22V43m-72 48.5v-24m34-24l-15-9V22.99M46 73.5v-16m18.5-4l15-9.5V29m12 65.5v-37"/><circle class="ipld-logo-leaf" fill="#FFF" cx="5.5" cy="69.5" r="5.5"/><circle class="ipld-logo-leaf" fill="#FFF" cx="21.5" cy="43.5" r="5.5"/><circle class="ipld-logo-leaf" fill="#FFF" cx="45.5" cy="53.5" r="5.5"/><circle class="ipld-logo-leaf" fill="#FFF" cx="46.5" cy="19.5" r="5.5"/><circle class="ipld-logo-leaf" fill="#FFF" cx="62.5" cy="5.5" r="5.5"/><circle class="ipld-logo-leaf" fill="#FFF" cx="79.5" cy="24.5" r="5.5"/><circle class="ipld-logo-leaf" fill="#FFF" cx="99.5" cy="39.5" r="5.5"/><circle class="ipld-logo-leaf" fill="#FFF" cx="121.5" cy="64.5" r="5.5"/></g></g><path d="M114 94.778V36.622c0-1.98-1.058-3.81-2.776-4.801L60.776 2.743a5.56 5.56 0 0 0-5.552 0L4.776 31.82A5.541 5.541 0 0 0 2 36.621v58.157c0 1.98 1.058 3.81 2.776 4.801l50.448 29.078a5.56 5.56 0 0 0 5.552 0l50.448-29.078a5.542 5.542 0 0 0 2.776-4.8" stroke="#A5BCE7" stroke-width="3.2" fill="#FFF"/><g fill-rule="nonzero"><path fill="#343434" d="M57.975 31.152l-.46 1.564V78.09l.46.459L79.037 66.1z"/><path fill="#8C8C8C" d="M57.975 31.152L36.912 66.1l21.063 12.45V56.526z"/><path fill="#3C3C3B" d="M57.975 82.538l-.26.316v16.164l.26.757 21.075-29.68z"/><path fill="#8C8C8C" d="M57.975 99.775V82.538L36.912 70.094z"/><path fill="#141414" d="M57.975 78.55L79.037 66.1l-21.062-9.573z"/><path fill="#393939" d="M36.912 66.1l21.063 12.45V56.527z"/></g><path d="M530 331.578v-58.156c0-1.98-1.058-3.81-2.776-4.801l-50.448-29.078a5.56 5.56 0 0 0-5.552 0l-50.448 29.077a5.541 5.541 0 0 0-2.776 4.801v58.157c0 1.98 1.058 3.81 2.776 4.801l50.448 29.078a5.56 5.56 0 0 0 5.552 0l50.448-29.078a5.542 5.542 0 0 0 2.776-4.8" stroke="#A5BCE7" stroke-width="3.2" fill="#FFF"/><g fill-rule="nonzero"><path fill="#4A9EA1" d="M448.548 316.577l25.15 14.521 25.152-14.521v-29.042l-25.151-14.52-25.151 14.521z"/><path d="M471.102 276.513l-18.235 10.528c.037.324.037.65 0 .974l18.237 10.529a4.356 4.356 0 0 1 5.172 0l18.237-10.529a4.35 4.35 0 0 1 0-.974l-18.236-10.528a4.356 4.356 0 0 1-5.173 0h-.002zm25.162 14.41l-18.256 10.647a4.356 4.356 0 0 1-2.587 4.48l.02 20.94c.3.13.583.294.845.487l18.236-10.529a4.356 4.356 0 0 1 2.587-4.48v-21.057a4.356 4.356 0 0 1-.844-.487h-.001zm-45.13.118a4.355 4.355 0 0 1-.844.487v21.057a4.356 4.356 0 0 1 2.586 4.48l18.236 10.527c.262-.194.545-.357.844-.487v-21.056a4.356 4.356 0 0 1-2.587-4.48l-18.235-10.529z" fill="#63D3D7"/><g fill="#000"><path fill-opacity=".251" d="M473.698 331.099l25.15-14.522v-29.042l-25.15 14.521z"/><path fill-opacity=".039" d="M473.698 331.099v-29.044l-25.151-14.52v29.042z"/><path fill-opacity=".13" d="M448.547 287.535l25.15 14.521 25.152-14.521-25.151-14.521z"/></g><path d="M456.352 294.114h-3.314v16.018h3.313zm5.772 16.018v-5.876c.817.068 1.633.068 2.314.068 4.72 0 6.08-2.337 6.08-5.219 0-3.494-2.495-4.991-6.352-4.991h-5.355v16.018h3.313zm1.792-8.145c-.612 0-1.52 0-1.792-.023v-5.444h2.064c1.997 0 3.132.953 3.132 2.7v.045c0 1.362-.5 2.723-3.404 2.723zm17.945-7.873H471.81v16.018h3.312v-7.056h6.285v-2.405H475.1v-4.131h6.534zm10.841 3.131l.862-2.224c-1.293-.93-3.04-1.27-5.241-1.27-3.2 0-5.831 1.497-5.831 4.56 0 2.746 2.02 3.835 4.038 4.493l2.02.68c1.384.477 2.518.93 2.518 2.428 0 1.361-1.18 1.906-2.972 1.906-1.815 0-3.766-.545-4.878-1.248l-.862 2.405c1.452.93 3.29 1.384 5.763 1.384 3.516 0 6.24-1.543 6.24-4.833 0-3.063-2.338-4.038-4.697-4.832l-2.201-.726c-.953-.318-1.68-.75-1.68-1.974 0-1.248 1.022-1.747 2.542-1.747 1.86 0 3.312.34 4.379.998z" fill="#FFF"/></g><path d="M114 331.578v-58.156c0-1.98-1.058-3.81-2.776-4.801l-50.448-29.078a5.56 5.56 0 0 0-5.552 0L4.776 268.62A5.541 5.541 0 0 0 2 273.421v58.157c0 1.98 1.058 3.81 2.776 4.801l50.448 29.078a5.56 5.56 0 0 0 5.552 0l50.448-29.078a5.542 5.542 0 0 0 2.776-4.8" stroke="#A5BCE7" stroke-width="3.2" fill="#FFF"/><g transform="translate(30.8 275.3)"><mask id="b" fill="#fff"><use xlink:href="#a"/></mask><path d="M53.04 33.053c-3.597 14.145-18.207 22.752-32.632 19.225C5.987 48.75-2.792 34.425.807 20.28 4.4 6.135 19.01-2.474 33.432 1.051 47.858 4.58 56.635 18.908 53.04 33.054" fill="#F8931A" mask="url(#b)"/></g><path d="M63.754 298.152c-.833 3.274-5.975 1.61-7.642 1.203l1.471-5.784c1.667.407 7.038 1.168 6.171 4.581m-.914 9.335c-.913 3.597-7.09 1.652-9.093 1.165l1.623-6.378c2.003.49 8.424 1.461 7.47 5.213m6.75-9.283c.535-3.512-2.192-5.4-5.923-6.661l1.211-4.759-2.955-.721-1.177 4.633c-.777-.19-1.574-.369-2.368-.546l1.187-4.665-2.952-.722-1.213 4.757a95.73 95.73 0 0 1-1.885-.434l.003-.015-4.074-.998-.787 3.094s2.193.494 2.146.523c1.196.293 1.413 1.07 1.377 1.685l-1.379 5.422c.083.021.19.051.308.096l-.312-.075-1.932 7.595c-.147.357-.518.891-1.355.688.03.042-2.146-.525-2.146-.525l-1.468 3.316 3.846.94c.714.175 1.415.36 2.106.533l-1.224 4.813 2.951.722 1.212-4.762c.806.213 1.588.412 2.354.599l-1.207 4.739 2.955.722 1.222-4.804c5.037.935 8.825.558 10.42-3.91 1.285-3.597-.064-5.672-2.714-7.025 1.93-.438 3.384-1.682 3.772-4.255" fill="#FFF"/><path d="M530 94.778V36.622c0-1.98-1.058-3.81-2.776-4.801L476.776 2.743a5.56 5.56 0 0 0-5.552 0L420.776 31.82A5.541 5.541 0 0 0 418 36.621v58.157c0 1.98 1.058 3.81 2.776 4.801l50.448 29.078a5.56 5.56 0 0 0 5.552 0l50.448-29.078a5.542 5.542 0 0 0 2.776-4.8" stroke="#A5BCE7" stroke-width="3.2" fill="#FFF"/><path d="M500.575 63.24l-24.116-24.115a3.557 3.557 0 0 0-5.03 0l-5.007 5.009 6.351 6.352a4.223 4.223 0 0 1 5.35 5.385l6.122 6.123a4.224 4.224 0 0 1 4.373 1.004 4.232 4.232 0 0 1 0 5.985 4.232 4.232 0 0 1-6.908-4.603L476 58.67v15.026c.403.2.783.465 1.12.8a4.234 4.234 0 1 1-4.6-.923V58.407a4.232 4.232 0 0 1-2.297-5.55l-6.263-6.263-16.536 16.534a3.56 3.56 0 0 0 0 5.032l24.117 24.115a3.558 3.558 0 0 0 5.03 0l24.004-24.003a3.558 3.558 0 0 0 0-5.032" fill="#F05033"/></g></svg>