<?xml version="1.0" encoding="UTF-8"?>
<svg style="height:561px;width:291px" contentScriptType="application/ecmascript" contentStyleType="text/css" preserveAspectRatio="none" version="1.1" viewBox="0 0 291 561" xmlns="http://www.w3.org/2000/svg" zoomAndPan="magnify">
<defs>
<filter id="a" x="-1" y="-1" width="300%" height="300%">
<feGaussianBlur result="blurOut" stdDeviation="2.0"/>
<feColorMatrix in="blurOut" result="blurOut2" values="0 0 0 0 0 0 0 0 0 0 0 0 0 0 0 0 0 0 .4 0"/>
<feOffset dx="4.0" dy="4.0" in="blurOut2" result="blurOut3"/>
<feBlend in="SourceGraphic" in2="blurOut3"/>
</filter>
</defs>
<line x1="23" x2="23" y1="86.297" y2="474.16" stroke="#A80036" stroke-dasharray="5.0,5.0"/>
<line x1="98.5" x2="98.5" y1="86.297" y2="474.16" stroke="#A80036" stroke-dasharray="5.0,5.0"/>
<line x1="190.5" x2="190.5" y1="86.297" y2="474.16" stroke="#A80036" stroke-dasharray="5.0,5.0"/>
<line x1="266.5" x2="266.5" y1="86.297" y2="474.16" stroke="#A80036" stroke-dasharray="5.0,5.0"/>
<text x="15.5" y="82.9951" fill="#000000" font-family="sans-serif" font-size="14" lengthAdjust="spacingAndGlyphs" textLength="9">A</text>
<ellipse cx="23" cy="13" rx="8" ry="8" fill="#FEFECE" filter="url(#a)" stroke="#A80036" stroke-width="2"/>
<path d="m23 21v27m-13-19h26m-13 19-13 15m13-15 13 15" fill="none" filter="url(#a)" stroke="#A80036" stroke-width="2"/>
<text x="15.5" y="486.1514" fill="#000000" font-family="sans-serif" font-size="14" lengthAdjust="spacingAndGlyphs" textLength="9">A</text>
<ellipse cx="23" cy="499.45" rx="8" ry="8" fill="#FEFECE" filter="url(#a)" stroke="#A80036" stroke-width="2"/>
<path d="m23 507.45v27m-13-19h26m-13 19-13 15m13-15 13 15" fill="none" filter="url(#a)" stroke="#A80036" stroke-width="2"/>
<rect x="58.5" y="51" width="77" height="30.297" fill="#FEFECE" filter="url(#a)" stroke="#A80036" stroke-width="1.5"/>
<text x="65.5" y="70.9951" fill="#000000" font-family="sans-serif" font-size="14" lengthAdjust="spacingAndGlyphs" textLength="63">Router_A</text>
<rect x="58.5" y="473.16" width="77" height="30.297" fill="#FEFECE" filter="url(#a)" stroke="#A80036" stroke-width="1.5"/>
<text x="65.5" y="493.1514" fill="#000000" font-family="sans-serif" font-size="14" lengthAdjust="spacingAndGlyphs" textLength="63">Router_A</text>
<rect x="149.5" y="51" width="78" height="30.297" fill="#FEFECE" filter="url(#a)" stroke="#A80036" stroke-width="1.5"/>
<text x="156.5" y="70.9951" fill="#000000" font-family="sans-serif" font-size="14" lengthAdjust="spacingAndGlyphs" textLength="64">Router_B</text>
<rect x="149.5" y="473.16" width="78" height="30.297" fill="#FEFECE" filter="url(#a)" stroke="#A80036" stroke-width="1.5"/>
<text x="156.5" y="493.1514" fill="#000000" font-family="sans-serif" font-size="14" lengthAdjust="spacingAndGlyphs" textLength="64">Router_B</text>
<text x="258.5" y="82.9951" fill="#000000" font-family="sans-serif" font-size="14" lengthAdjust="spacingAndGlyphs" textLength="10">B</text>
<ellipse cx="266.5" cy="13" rx="8" ry="8" fill="#FEFECE" filter="url(#a)" stroke="#A80036" stroke-width="2"/>
<path d="m266.5 21v27m-13-19h26m-13 19-13 15m13-15 13 15" fill="none" filter="url(#a)" stroke="#A80036" stroke-width="2"/>
<text x="258.5" y="486.1514" fill="#000000" font-family="sans-serif" font-size="14" lengthAdjust="spacingAndGlyphs" textLength="10">B</text>
<ellipse cx="266.5" cy="499.45" rx="8" ry="8" fill="#FEFECE" filter="url(#a)" stroke="#A80036" stroke-width="2"/>
<path d="m266.5 507.45v27m-13-19h26m-13 19-13 15m13-15 13 15" fill="none" filter="url(#a)" stroke="#A80036" stroke-width="2"/>
<polygon points="87 113.43 97 117.43 87 121.43 91 117.43" fill="#A80036" stroke="#A80036"/>
<line x1="23" x2="93" y1="117.43" y2="117.43" stroke="#A80036"/>
<text x="30" y="112.3638" fill="#000000" font-family="sans-serif" font-size="13" lengthAdjust="spacingAndGlyphs" textLength="52">PacketA</text>
<rect x="35" y="130.43" width="127" height="38" fill="#FBFB77" filter="url(#a)" stroke="#A80036"/>
<text x="39" y="146.4966" fill="#000000" font-family="sans-serif" font-size="13" lengthAdjust="spacingAndGlyphs" textLength="74">Add 5-tuple</text>
<text x="39" y="161.6294" fill="#000000" font-family="sans-serif" font-size="13" lengthAdjust="spacingAndGlyphs" textLength="119">to local state table</text>
<polygon points="201.5 190.83 191.5 194.83 201.5 198.83 197.5 194.83" fill="#A80036" stroke="#A80036"/>
<line x1="195.5" x2="265.5" y1="194.83" y2="194.83" stroke="#A80036"/>
<text x="207.5" y="189.7622" fill="#000000" font-family="sans-serif" font-size="13" lengthAdjust="spacingAndGlyphs" textLength="52">PacketB</text>
<rect x="127" y="207.83" width="127" height="38" fill="#FBFB77" filter="url(#a)" stroke="#A80036"/>
<text x="131" y="223.895" fill="#000000" font-family="sans-serif" font-size="13" lengthAdjust="spacingAndGlyphs" textLength="74">Add 5-tuple</text>
<text x="131" y="239.0278" fill="#000000" font-family="sans-serif" font-size="13" lengthAdjust="spacingAndGlyphs" textLength="119">to local state table</text>
<polygon points="178.5 268.23 188.5 272.23 178.5 276.23 182.5 272.23" fill="#A80036" stroke="#A80036"/>
<line x1="99" x2="184.5" y1="272.23" y2="272.23" stroke="#A80036"/>
<text x="106" y="267.1606" fill="#000000" font-family="sans-serif" font-size="13" lengthAdjust="spacingAndGlyphs" textLength="52">PacketA</text>
<polygon points="110 297.36 100 301.36 110 305.36 106 301.36" fill="#A80036" stroke="#A80036"/>
<line x1="104" x2="189.5" y1="301.36" y2="301.36" stroke="#A80036"/>
<text x="116" y="296.2935" fill="#000000" font-family="sans-serif" font-size="13" lengthAdjust="spacingAndGlyphs" textLength="52">PacketB</text>
<rect x="36" y="314.36" width="125" height="38" fill="#FBFB77" filter="url(#a)" stroke="#A80036"/>
<text x="40" y="330.4263" fill="#000000" font-family="sans-serif" font-size="13" lengthAdjust="spacingAndGlyphs" textLength="86">5-tuple exists</text>
<text x="40" y="345.5591" fill="#000000" font-family="sans-serif" font-size="13" lengthAdjust="spacingAndGlyphs" textLength="117">in local state table</text>
<polygon points="34 374.76 24 378.76 34 382.76 30 378.76" fill="#A80036" stroke="#A80036"/>
<line x1="28" x2="98" y1="378.76" y2="378.76" stroke="#A80036"/>
<text x="40" y="373.6919" fill="#000000" font-family="sans-serif" font-size="13" lengthAdjust="spacingAndGlyphs" textLength="52">PacketB</text>
<rect x="128" y="391.76" width="125" height="38" fill="#FBFB77" filter="url(#a)" stroke="#A80036"/>
<text x="132" y="407.8247" fill="#000000" font-family="sans-serif" font-size="13" lengthAdjust="spacingAndGlyphs" textLength="86">5-tuple exists</text>
<text x="132" y="422.9575" fill="#000000" font-family="sans-serif" font-size="13" lengthAdjust="spacingAndGlyphs" textLength="117">in local state table</text>
<polygon points="254.5 452.16 264.5 456.16 254.5 460.16 258.5 456.16" fill="#A80036" stroke="#A80036"/>
<line x1="190.5" x2="260.5" y1="456.16" y2="456.16" stroke="#A80036"/>
<text x="197.5" y="451.0903" fill="#000000" font-family="sans-serif" font-size="13" lengthAdjust="spacingAndGlyphs" textLength="52">PacketA</text>
</svg>
