<svg width="135" height="153" viewBox="0 0 135 153" fill="none" xmlns="http://www.w3.org/2000/svg">
<path d="M134.87 109.965V42.881C134.87 39.545 133.09 36.462 130.201 34.794L72.104 1.251C69.215 -0.417 65.655 -0.417 62.766 1.251L4.669 34.793C1.78 36.461 0 39.544 0 42.881V109.966C0 113.302 1.78 116.385 4.669 118.053L62.766 151.595C65.655 153.263 69.215 153.263 72.104 151.595L130.201 118.053C133.091 116.384 134.87 113.301 134.87 109.965Z" fill="#1D74F2"/>
<path d="M68.024 13.719L68.013 13.725L67.028 13.153L12.763 44.653V45.777V107.648V108.772L67.028 140.273L68.007 139.705L68.023 139.715L122.288 108.214V45.219L68.024 13.719ZM67.039 137.997L14.751 107.644V45.789L67.045 15.433L120.302 46.348V107.078L67.039 137.997Z" fill="white"/>
<path d="M109.397 76.378C109.397 74.367 107.767 72.736 105.755 72.736C103.744 72.736 102.113 74.366 102.113 76.378C102.113 77.985 103.154 79.345 104.598 79.829V84.084L87.216 95.064V71.705L92.421 68.417V62.888C93.865 62.404 94.906 61.043 94.906 59.437C94.906 57.426 93.276 55.795 91.264 55.795C89.253 55.795 87.622 57.425 87.622 59.437C87.622 61.044 88.663 62.404 90.107 62.888V67.143L68.117 81.034V70.274L78.816 63.515V53.492C80.26 53.008 81.301 51.647 81.301 50.041C81.301 48.03 79.671 46.399 77.659 46.399C75.648 46.399 74.017 48.029 74.017 50.041C74.017 51.648 75.059 53.009 76.502 53.492V62.24L68.116 67.537V40.426C69.526 39.923 70.536 38.581 70.536 36.999C70.536 34.988 68.906 33.357 66.894 33.357C64.883 33.357 63.252 34.987 63.252 36.999C63.252 38.63 64.324 40.01 65.802 40.474V61.155L56.982 55.584V49.576C58.426 49.092 59.467 47.731 59.467 46.125C59.467 44.114 57.837 42.483 55.825 42.483C53.814 42.483 52.183 44.113 52.183 46.125C52.183 47.731 53.224 49.092 54.668 49.576V56.858L65.786 63.881L65.801 63.857V88.746L56.427 83.607V72.805C57.871 72.321 58.912 70.96 58.912 69.354C58.912 67.343 57.282 65.712 55.27 65.712C53.259 65.712 51.628 67.343 51.628 69.354C51.628 70.961 52.67 72.321 54.113 72.805V82.338L40.178 74.697V66.108C41.622 65.624 42.663 64.263 42.663 62.657C42.663 60.646 41.033 59.015 39.021 59.015C37.01 59.015 35.379 60.645 35.379 62.657C35.379 64.263 36.42 65.624 37.864 66.108V76.027L42.083 78.346V94.564L29.448 87.675V83.42C30.892 82.936 31.933 81.575 31.933 79.969C31.933 77.958 30.303 76.327 28.291 76.327C26.279 76.327 24.649 77.957 24.649 79.969C24.649 81.576 25.691 82.936 27.134 83.42V88.949L65.798 110.124V137.996H68.111V109.864L106.905 85.358V79.829C108.356 79.345 109.397 77.984 109.397 76.378ZM44.16 95.694V79.486L65.805 91.383V107.497L44.16 95.694ZM68.118 83.769L84.904 73.166V96.525L68.118 107.128V83.769Z" fill="white"/>
<path d="M121.296 109.79C123.014 109.79 124.406 108.398 124.406 106.68C124.406 104.962 123.014 103.57 121.296 103.57C119.578 103.57 118.186 104.962 118.186 106.68C118.186 108.398 119.578 109.79 121.296 109.79Z" fill="white"/>
<path d="M121.296 49.063C123.014 49.063 124.406 47.6706 124.406 45.953C124.406 44.2354 123.014 42.843 121.296 42.843C119.578 42.843 118.186 44.2354 118.186 45.953C118.186 47.6706 119.578 49.063 121.296 49.063Z" fill="white"/>
<path d="M13.755 109.79C15.4726 109.79 16.865 108.398 16.865 106.68C16.865 104.962 15.4726 103.57 13.755 103.57C12.0374 103.57 10.645 104.962 10.645 106.68C10.645 108.398 12.0374 109.79 13.755 109.79Z" fill="white"/>
<path d="M13.755 49.063C15.4726 49.063 16.865 47.6706 16.865 45.953C16.865 44.2354 15.4726 42.843 13.755 42.843C12.0374 42.843 10.645 44.2354 10.645 45.953C10.645 47.6706 12.0374 49.063 13.755 49.063Z" fill="white"/>
<path d="M67.026 141.749C68.7436 141.749 70.136 140.357 70.136 138.639C70.136 136.921 68.7436 135.529 67.026 135.529C65.3084 135.529 63.916 136.921 63.916 138.639C63.916 140.357 65.3084 141.749 67.026 141.749Z" fill="white"/>
<path d="M67.466 17.402C69.1836 17.402 70.576 16.0096 70.576 14.292C70.576 12.5744 69.1836 11.182 67.466 11.182C65.7484 11.182 64.356 12.5744 64.356 14.292C64.356 16.0096 65.7484 17.402 67.466 17.402Z" fill="white"/>
</svg>
