<svg width="125" height="159" viewBox="0 0 125 159" xmlns="http://www.w3.org/2000/svg"><g stroke="#0073F9" stroke-width="3" fill="none" fill-rule="evenodd"><path class="draw-hex" d="M44.764 13.812L24.997 2.399a2.174 2.174 0 0 0-2.177.003L3.028 13.859a2.186 2.186 0 0 0-1.091 1.89L1.91 38.617a2.175 2.175 0 0 0 1.086 1.887l19.767 11.412a2.174 2.174 0 0 0 2.177-.003l19.792-11.457a2.186 2.186 0 0 0 1.091-1.89l.026-22.869a2.172 2.172 0 0 0-1.086-1.886m18.295 106.425v22.824c0 .778.415 1.496 1.09 1.884l19.819 11.413a2.186 2.186 0 0 0 2.181 0l19.819-11.413a2.174 2.174 0 0 0 1.09-1.884v-22.824c0-.778-.415-1.496-1.09-1.884l-19.819-11.413a2.186 2.186 0 0 0-2.181 0l-19.819 11.413a2.175 2.175 0 0 0-1.09 1.884m21.069-83.007L64.36 48.64a2.174 2.174 0 0 0-1.086 1.887l.026 22.87a2.187 2.187 0 0 0 1.09 1.888l19.793 11.458c.674.39 1.504.39 2.177.002l19.767-11.412a2.174 2.174 0 0 0 1.086-1.887l-.026-22.87c0-.778-.416-1.498-1.09-1.888L86.304 37.23a2.175 2.175 0 0 0-2.177-.002"/><path class="draw-line" d="M45.676 39.741l16.802 9.701m44.561-.038l16.802-9.7m-38.783 66.777V87.08"/></g></svg>