<svg width="185" height="124" viewBox="0 0 185 124" xmlns="http://www.w3.org/2000/svg"><g stroke="#0073F9" stroke-width="3" fill="none" fill-rule="evenodd"><path class="draw-hex" d="M166.047 13.481L146.28 2.07a2.174 2.174 0 0 0-2.177.002L124.311 13.53a2.186 2.186 0 0 0-1.09 1.889l-.027 22.87c0 .778.413 1.497 1.086 1.886l19.767 11.412a2.174 2.174 0 0 0 2.177-.002l19.793-11.458a2.186 2.186 0 0 0 1.09-1.889l.026-22.87a2.175 2.175 0 0 0-1.086-1.886M83.203 37.16L63.437 48.574a2.174 2.174 0 0 0-1.087 1.886l.026 22.87a2.19 2.19 0 0 0 1.091 1.89L83.26 86.674c.674.39 1.503.392 2.177.003l19.766-11.412a2.174 2.174 0 0 0 1.087-1.887l-.027-22.87c0-.778-.416-1.498-1.09-1.889L85.38 37.163a2.175 2.175 0 0 0-2.177-.002m40.856 72.785l19.766 11.412a2.174 2.174 0 0 0 2.177-.003l19.793-11.457a2.186 2.186 0 0 0 1.09-1.889l.027-22.87c0-.778-.413-1.498-1.087-1.886L146.06 71.84a2.174 2.174 0 0 0-2.177.002L124.089 83.3a2.186 2.186 0 0 0-1.09 1.89l-.026 22.87a2.175 2.175 0 0 0 1.086 1.886M45.046 13.481L25.28 2.07a2.174 2.174 0 0 0-2.177.002L3.31 13.53a2.186 2.186 0 0 0-1.09 1.889l-.027 22.87c0 .778.414 1.497 1.087 1.886l19.766 11.412a2.174 2.174 0 0 0 2.177-.002l19.793-11.458a2.186 2.186 0 0 0 1.09-1.889l.027-22.87c0-.778-.414-1.497-1.087-1.886"/><path class="draw-line" d="M166.959 39.411l16.802 9.7m-77.646.225l16.802-9.7m.23 44.38l-16.802-9.7M45.958 39.411l16.802 9.7"/></g></svg>