<?xml version="1.0" encoding="UTF-8"?>
<svg version="1.1" viewBox="0 0 665 200" xmlns="http://www.w3.org/2000/svg" xmlns:cc="http://creativecommons.org/ns#" xmlns:dc="http://purl.org/dc/elements/1.1/" xmlns:rdf="http://www.w3.org/1999/02/22-rdf-syntax-ns#">
<metadata>
<rdf:RDF>
<cc:Work rdf:about="">
<dc:format>image/svg+xml</dc:format>
<dc:type rdf:resource="http://purl.org/dc/dcmitype/StillImage"/>
<dc:title/>
</cc:Work>
</rdf:RDF>
</metadata>
<g transform="translate(0,-300)">
<text x="289.53937" y="752.03394" color="#000000" fill="#37384c" font-family="'IBM Plex Sans'" font-size="11px" letter-spacing="0px" stroke-width="1px" word-spacing="0px" style="line-height:1.39999998;text-decoration-line:none;text-indent:0;text-transform:none" xml:space="preserve"><tspan x="289.53937" y="762.81396" font-size="11px" style="line-height:1.39999998"/></text>
<path d="m61.295 323.61c46.024-19.725 75.799-4.0045 106.15-3.6041 28.539 0.37658 58.156-15.389 84.801-7.3385 54.979 16.611 60.666 59.257 48.147 100.67-6.891 22.797-26.388 30.807-45.788 45.461-15.843 11.968-28.706 33.105-58.714 31.137-66.75-4.377-85.352 24.074-135.69-9.8483s-88.21-118.21 1.0943-156.48z" color="#000000" fill="#ebf0f5" style="paint-order:normal"/>
<circle cx="65" cy="365" r="2.5" color="#000000" enable-background="new" fill="#242651" style="paint-order:normal"/>
<circle cx="45" cy="405" r="2.5" color="#000000" enable-background="new" fill="#242651" style="paint-order:normal"/>
<circle cx="125" cy="365" r="2.5" color="#000000" enable-background="new" fill="#242651" style="paint-order:normal"/>
<circle cx="115" cy="405" r="2.5" color="#000000" enable-background="new" fill="#242651" style="paint-order:normal"/>
<circle cx="130" cy="465" r="2.5" color="#000000" enable-background="new" fill="#242651" style="paint-order:normal"/>
<circle cx="210" cy="465" r="2.5" color="#000000" enable-background="new" fill="#242651" style="paint-order:normal"/>
<circle cx="175" cy="380" r="2.5" color="#000000" enable-background="new" fill="#242651" style="paint-order:normal"/>
<circle cx="240" cy="345" r="2.5" color="#000000" enable-background="new" fill="#242651" style="paint-order:normal"/>
<circle cx="250" cy="430" r="2.5" color="#000000" enable-background="new" fill="#242651" style="paint-order:normal"/>
<circle cx="175" cy="450" r="2.5" color="#000000" enable-background="new" fill="#242651" style="paint-order:normal"/>
<circle cx="180" cy="345" r="2.5" color="#000000" enable-background="new" fill="#242651" style="paint-order:normal"/>
<circle cx="75" cy="460" r="2.5" color="#000000" enable-background="new" fill="#242651" style="paint-order:normal"/>
<path d="m191 412c-4.986 0-9 4.014-9 9s4.014 9 9 9h42c2.1628 0 4.1407-0.75729 5.6894-2.0195 1.8732 1.2335 4.073 1.9465 6.3106 2.0195-1.8117-1.1086-3-3.1397-3-5.3066v-3.6934c0-4.986-4.014-9-9-9z" color="#000000" fill="#aa69ac" style="paint-order:normal"/>
<path d="m416.29 323.61c46.024-19.725 75.799-4.0045 106.15-3.6041 28.539 0.37658 58.156-15.389 84.801-7.3385 54.979 16.611 60.666 59.257 48.147 100.67-6.891 22.797-26.388 30.807-45.788 45.461-15.843 11.968-28.706 33.105-58.714 31.137-66.75-4.377-85.352 24.074-135.69-9.8483-50.336-33.922-88.21-118.21 1.0943-156.48z" color="#000000" fill="#ebf0f5" style="paint-order:normal"/>
<circle cx="420" cy="365" r="2.5" color="#000000" enable-background="new" fill="#242651" style="paint-order:normal"/>
<circle cx="400" cy="405" r="2.5" color="#000000" enable-background="new" fill="#242651" style="paint-order:normal"/>
<circle cx="480" cy="365" r="2.5" color="#000000" enable-background="new" fill="#242651" style="paint-order:normal"/>
<circle cx="470" cy="405" r="2.5" color="#000000" enable-background="new" fill="#242651" style="paint-order:normal"/>
<circle cx="485" cy="465" r="2.5" color="#000000" enable-background="new" fill="#242651" style="paint-order:normal"/>
<circle cx="565" cy="465" r="2.5" color="#000000" enable-background="new" fill="#242651" style="paint-order:normal"/>
<circle cx="530" cy="380" r="2.5" color="#000000" enable-background="new" fill="#242651" style="paint-order:normal"/>
<circle cx="595" cy="345" r="2.5" color="#000000" enable-background="new" fill="#242651" style="paint-order:normal"/>
<circle cx="605" cy="430" r="2.5" color="#000000" enable-background="new" fill="#242651" style="paint-order:normal"/>
<circle cx="530" cy="450" r="2.5" color="#000000" enable-background="new" fill="#242651" style="paint-order:normal"/>
<circle cx="535" cy="345" r="2.5" color="#000000" enable-background="new" fill="#242651" style="paint-order:normal"/>
<circle cx="430" cy="460" r="2.5" color="#000000" enable-background="new" fill="#242651" style="paint-order:normal"/>
<path d="m594.25 416c-2.493 0-4.5 2.007-4.5 4.5s2.007 4.5 4.5 4.5h21c1.0814 0 2.0704-0.37865 2.8447-1.0098 0.93657 0.61674 2.0365 0.97325 3.1553 1.0098-0.90587-0.55431-1.5-1.5698-1.5-2.6533v-1.8467c0-2.493-2.007-4.5-4.5-4.5z" color="#000000" fill="#aa69ac" style="paint-order:normal"/>
<path d="m554.25 451c-2.493 0-4.5 2.007-4.5 4.5s2.007 4.5 4.5 4.5h21c1.0814 0 2.0704-0.37865 2.8447-1.0098 0.93657 0.61674 2.0365 0.97325 3.1553 1.0098-0.90587-0.55431-1.5-1.5698-1.5-2.6533v-1.8467c0-2.493-2.007-4.5-4.5-4.5z" color="#000000" fill="#aa69ac" style="paint-order:normal"/>
<path d="m519.25 436c-2.493 0-4.5 2.007-4.5 4.5s2.007 4.5 4.5 4.5h21c1.0814 0 2.0704-0.37865 2.8447-1.0098 0.93657 0.61674 2.0365 0.97325 3.1553 1.0098-0.90587-0.55431-1.5-1.5698-1.5-2.6533v-1.8467c0-2.493-2.007-4.5-4.5-4.5z" color="#000000" fill="#aa69ac" style="paint-order:normal"/>
<path d="m474.25 451c-2.493 0-4.5 2.007-4.5 4.5s2.007 4.5 4.5 4.5h21c1.0814 0 2.0704-0.37865 2.8447-1.0098 0.93657 0.61674 2.0365 0.97325 3.1553 1.0098-0.90587-0.55431-1.5-1.5698-1.5-2.6533v-1.8467c0-2.493-2.007-4.5-4.5-4.5z" color="#000000" fill="#aa69ac" style="paint-order:normal"/>
<path d="m419.25 446c-2.493 0-4.5 2.007-4.5 4.5s2.007 4.5 4.5 4.5h21c1.0814 0 2.0704-0.37865 2.8447-1.0098 0.93657 0.61674 2.0365 0.97325 3.1553 1.0098-0.90587-0.55431-1.5-1.5698-1.5-2.6533v-1.8467c0-2.493-2.007-4.5-4.5-4.5z" color="#000000" fill="#aa69ac" style="paint-order:normal"/>
<path d="m389.25 391c-2.493 0-4.5 2.007-4.5 4.5s2.007 4.5 4.5 4.5h21c1.0814 0 2.0704-0.37865 2.8447-1.0098 0.93657 0.61674 2.0365 0.97325 3.1553 1.0098-0.90587-0.55431-1.5-1.5698-1.5-2.6533v-1.8467c0-2.493-2.007-4.5-4.5-4.5z" color="#000000" fill="#aa69ac" style="paint-order:normal"/>
<path d="m459.25 391c-2.493 0-4.5 2.007-4.5 4.5s2.007 4.5 4.5 4.5h21c1.0814 0 2.0704-0.37865 2.8447-1.0098 0.93657 0.61674 2.0365 0.97325 3.1553 1.0098-0.90587-0.55431-1.5-1.5698-1.5-2.6533v-1.8467c0-2.493-2.007-4.5-4.5-4.5z" color="#000000" fill="#aa69ac" style="paint-order:normal"/>
<path d="m519.25 366c-2.493 0-4.5 2.007-4.5 4.5s2.007 4.5 4.5 4.5h21c1.0814 0 2.0704-0.37865 2.8447-1.0098 0.93657 0.61674 2.0365 0.97325 3.1553 1.0098-0.90587-0.55431-1.5-1.5698-1.5-2.6533v-1.8467c0-2.493-2.007-4.5-4.5-4.5z" color="#000000" fill="#aa69ac" style="paint-order:normal"/>
<path d="m469.25 351c-2.493 0-4.5 2.007-4.5 4.5s2.007 4.5 4.5 4.5h21c1.0814 0 2.0704-0.37865 2.8447-1.0098 0.93657 0.61674 2.0365 0.97325 3.1553 1.0098-0.90587-0.55431-1.5-1.5698-1.5-2.6533v-1.8467c0-2.493-2.007-4.5-4.5-4.5z" color="#000000" fill="#aa69ac" style="paint-order:normal"/>
<path d="m409.25 351c-2.493 0-4.5 2.007-4.5 4.5s2.007 4.5 4.5 4.5h21c1.0814 0 2.0704-0.37865 2.8447-1.0098 0.93657 0.61674 2.0365 0.97325 3.1553 1.0098-0.90587-0.55431-1.5-1.5698-1.5-2.6533v-1.8467c0-2.493-2.007-4.5-4.5-4.5z" color="#000000" fill="#aa69ac" style="paint-order:normal"/>
<path d="m524.25 331c-2.493 0-4.5 2.007-4.5 4.5s2.007 4.5 4.5 4.5h21c1.0814 0 2.0704-0.37865 2.8447-1.0098 0.93657 0.61674 2.0365 0.97325 3.1553 1.0098-0.90587-0.55431-1.5-1.5698-1.5-2.6533v-1.8467c0-2.493-2.007-4.5-4.5-4.5z" color="#000000" fill="#aa69ac" style="paint-order:normal"/>
<path d="m584.25 331c-2.493 0-4.5 2.007-4.5 4.5s2.007 4.5 4.5 4.5h21c1.0814 0 2.0704-0.37865 2.8447-1.0098 0.93657 0.61674 2.0365 0.97325 3.1553 1.0098-0.90587-0.55431-1.5-1.5698-1.5-2.6533v-1.8467c0-2.493-2.007-4.5-4.5-4.5z" color="#000000" fill="#aa69ac" style="paint-order:normal"/>
<text x="210.42757" y="407.5" color="#000000" fill="#aa69ac" font-family="'IBM Plex Sans'" font-size="12px" letter-spacing="0px" stroke-width="1px" word-spacing="0px" style="line-height:1.25;text-decoration-line:none;text-indent:0;text-transform:none" xml:space="preserve"><tspan x="210.42757" y="407.5" fill="#aa69ac" font-size="12px" text-align="center" text-anchor="middle" style="line-height:1.25">Message</tspan></text>
<path d="m330 425 10-20-10-20z" color="#000000" fill="#37384c" style="paint-order:normal"/>
</g>
</svg>
