<?xml version="1.0" encoding="UTF-8"?>
<svg version="1.1" viewBox="0 0 800 300" xmlns="http://www.w3.org/2000/svg" xmlns:cc="http://creativecommons.org/ns#" xmlns:dc="http://purl.org/dc/elements/1.1/" xmlns:rdf="http://www.w3.org/1999/02/22-rdf-syntax-ns#">
<metadata>
<rdf:RDF>
<cc:Work rdf:about="">
<dc:format>image/svg+xml</dc:format>
<dc:type rdf:resource="http://purl.org/dc/dcmitype/StillImage"/>
<dc:title/>
</cc:Work>
</rdf:RDF>
</metadata>
<g transform="translate(0,-200)">
<rect x="628.5" y="476.5" width="12" height="18" rx="2" ry="2" color="#000000" fill="#eed9ee" stroke="#e1c5e2" style="paint-order:normal"/>
<rect x="483.5" y="476.5" width="12" height="18" rx="2" ry="2" color="#000000" fill="#eed9ee" stroke="#e1c5e2" style="paint-order:normal"/>
<rect x="339.5" y="476.5" width="12" height="18" rx="2" ry="2" color="#000000" fill="#eed9ee" stroke="#e1c5e2" style="paint-order:normal"/>
<path d="m774.07 272.72c-34.262-28.703-85.778-29.38-164.93-53.551s-179.29-17.691-224.18-5.4769-68.251 19.792-115.97 19.892-99.813 1.1936-135.6 5.0892-124.58 31.461-122.8 76.804 30.896 48.981 46.682 77.496 31.131 45.57 80.768 38.848c49.637-6.7222 109.96 29.49 152.81 34.404s67.209-12.168 118.14-11.301 100.59-12.995 149.01-13.667 74.84 14.674 163.92 4.3221c89.078-10.352 86.4-144.16 52.139-172.86z" color="#000000" fill="#ebf0f5" style="paint-order:normal"/>
<circle cx="605" cy="240" r="15" color="#000000" fill="#b3c6d9" style="paint-order:normal"/>
<circle cx="235" cy="370" r="15" color="#000000" fill="#b3c6d9" style="paint-order:normal"/>
<g transform="translate(-45,270)" fill="none" stroke="#37384c" stroke-width="2">
<path d="m180 40-110 10" color="#000000" enable-background="new" style="paint-order:normal"/>
<path d="m100 90-30-40" color="#000000" enable-background="new" style="paint-order:normal"/>
<path d="m120 10-50 40" color="#000000" enable-background="new" style="paint-order:normal"/>
<path d="m120 10 60 30" color="#000000" enable-background="new" style="paint-order:normal"/>
<path d="m120 10 80-20" color="#000000" enable-background="new" style="paint-order:normal"/>
<path d="m180 40 60 20" color="#000000" enable-background="new" style="paint-order:normal"/>
<path d="m220-20-20 10" color="#000000" enable-background="new" style="paint-order:normal"/>
<path d="m240 60-40-70" color="#000000" enable-background="new" style="paint-order:normal"/>
<path d="m220-20 50 80" color="#000000" enable-background="new" style="paint-order:normal"/>
<path d="m240 60h30" color="#000000" enable-background="new" style="paint-order:normal"/>
<path d="m280 100-10-40" color="#000000" enable-background="new" style="paint-order:normal"/>
<path d="m100 90 70 30" color="#000000" enable-background="new" style="paint-order:normal"/>
<path d="m100 90 50 50" color="#000000" enable-background="new" style="paint-order:normal"/>
<path d="m170 120-20 20" color="#000000" enable-background="new" style="paint-order:normal"/>
<path d="m230 150-80-10" color="#000000" enable-background="new" style="paint-order:normal"/>
<path d="m230 150-60-30" color="#000000" enable-background="new" style="paint-order:normal"/>
<path d="m230 150 35-5" color="#000000" enable-background="new" style="paint-order:normal"/>
<path d="m280 100-15 45" color="#000000" enable-background="new" style="paint-order:normal"/>
<path d="m320 170-55-25" color="#000000" enable-background="new" style="paint-order:normal"/>
<path d="m280 100 50-80" color="#000000" enable-background="new" style="paint-order:normal"/>
<path d="m220-20 130 10" color="#000000" enable-background="new" style="paint-order:normal"/>
<path d="m330 20 20-30" color="#000000" enable-background="new" style="paint-order:normal"/>
<path d="m360 50-10-60" color="#000000" enable-background="new" style="paint-order:normal"/>
<path d="m360 50-30-30" color="#000000" enable-background="new" style="paint-order:normal"/>
<path d="m320 170 20-40" color="#000000" enable-background="new" style="paint-order:normal"/>
<path d="m400 110 40 30" color="#000000" enable-background="new" style="paint-order:normal"/>
<path d="m400 110-10 50" color="#000000" enable-background="new" style="paint-order:normal"/>
<path d="m340 130 50 30" color="#000000" enable-background="new" style="paint-order:normal"/>
<path d="m320 170 70-10" color="#000000" enable-background="new" style="paint-order:normal"/>
<path d="m360 50 40 30" color="#000000" enable-background="new" style="paint-order:normal"/>
<path d="m400 110v-30" color="#000000" enable-background="new" style="paint-order:normal"/>
<path d="m450 90-50-10" color="#000000" enable-background="new" style="paint-order:normal"/>
<path d="m430 30 20 40" color="#000000" enable-background="new" style="paint-order:normal"/>
<path d="m450 90v-20" color="#000000" enable-background="new" style="paint-order:normal"/>
<path d="m470 60-20 10" color="#000000" enable-background="new" style="paint-order:normal"/>
<path d="m430 30 15.411-22.752" color="#000000" enable-background="new" style="paint-order:normal"/>
<path d="m520 60-74.589-52.752" color="#000000" enable-background="new" style="paint-order:normal"/>
<path d="m450 90-10 50" color="#000000" enable-background="new" style="paint-order:normal"/>
<path d="m470 160-30-20" color="#000000" enable-background="new" style="paint-order:normal"/>
<path d="m470 160 20-10" color="#000000" enable-background="new" style="paint-order:normal"/>
<path d="m560 150h-70" color="#000000" enable-background="new" style="paint-order:normal"/>
<path d="m560 150-40-40" color="#000000" enable-background="new" style="paint-order:normal"/>
<path d="m580 100-60 10" color="#000000" enable-background="new" style="paint-order:normal"/>
<path d="m580 100-60-40" color="#000000" enable-background="new" style="paint-order:normal"/>
<path d="m600 40-80 20" color="#000000" enable-background="new" style="paint-order:normal"/>
<path d="m600 40h70" color="#000000" enable-background="new" style="paint-order:normal"/>
<path d="m680 90-10-50" color="#000000" enable-background="new" style="paint-order:normal"/>
<path d="m680 90-50 60" color="#000000" enable-background="new" style="paint-order:normal"/>
<path d="m680 90 20 60" color="#000000" enable-background="new" style="paint-order:normal"/>
<path d="m730 100-30 50" color="#000000" enable-background="new" style="paint-order:normal"/>
<path d="m730 100 30-30" color="#000000" enable-background="new" style="paint-order:normal"/>
<path d="m750 30 10 40" color="#000000" enable-background="new" style="paint-order:normal"/>
<path d="m750 30h-50" color="#000000" enable-background="new" style="paint-order:normal"/>
<path d="m730 100 20 30" color="#000000" enable-background="new" style="paint-order:normal"/>
<path d="m770 150-20-20" color="#000000" enable-background="new" style="paint-order:normal"/>
<path d="m770 150 50-60" color="#000000" enable-background="new" style="paint-order:normal"/>
<path d="m750 30 60-10" color="#000000" enable-background="new" style="paint-order:normal"/>
<path d="m700 30-30 10" color="#000000" enable-background="new" style="paint-order:normal"/>
<path d="m700 30-20-30" color="#000000" enable-background="new" style="paint-order:normal"/>
<path d="m650-30 30 30" color="#000000" enable-background="new" style="paint-order:normal"/>
<path d="m650-30-90 20" color="#000000" enable-background="new" style="paint-order:normal"/>
<path d="m510-40 50 30" color="#000000" enable-background="new" style="paint-order:normal"/>
<path d="m510-40-64.589 47.248" color="#000000" enable-background="new" style="paint-order:normal"/>
<path d="m580 100 50 50" color="#000000" enable-background="new" style="paint-order:normal"/>
<path d="m560 150h70" color="#000000" enable-background="new" style="paint-order:normal"/>
<path d="m490 150 30-40" color="#000000" enable-background="new" style="paint-order:normal"/>
<path d="m470 60-40-30" color="#000000" enable-background="new" style="paint-order:normal"/>
<path d="m510-40 10 100" color="#000000" enable-background="new" style="paint-order:normal"/>
<path d="m600 40-40-50" color="#000000" enable-background="new" style="paint-order:normal"/>
<path d="m810 20-130-20" color="#000000" enable-background="new" style="paint-order:normal"/>
<path d="m760 70-10 60" color="#000000" enable-background="new" style="paint-order:normal"/>
<path d="m820 90-10-70" color="#000000" enable-background="new" style="paint-order:normal"/>
<path d="m470 60v100" color="#000000" enable-background="new" style="paint-order:normal"/>
<path d="m770 150h-70" color="#000000" enable-background="new" style="paint-order:normal"/>
<path d="m280 100 60 30" color="#000000" enable-background="new" style="paint-order:normal"/>
</g>
<text x="299.53937" y="712.03394" color="#000000" fill="#37384c" font-family="'IBM Plex Sans'" font-size="11px" letter-spacing="0px" stroke-width="1px" word-spacing="0px" style="line-height:1.39999998;text-decoration-line:none;text-indent:0;text-transform:none" xml:space="preserve"><tspan x="299.53937" y="722.81396" font-size="11px" style="line-height:1.39999998"/></text>
<circle cx="25" cy="320" r="2.5" color="#000000" enable-background="new" fill="#242651" style="paint-order:normal"/>
<circle cx="75" cy="280" r="2.5" color="#000000" enable-background="new" fill="#242651" style="paint-order:normal"/>
<circle cx="55" cy="360" r="2.5" color="#000000" enable-background="new" fill="#242651" style="paint-order:normal"/>
<circle cx="125" cy="390" r="2.5" color="#000000" enable-background="new" fill="#242651" style="paint-order:normal"/>
<circle cx="105" cy="410" r="2.5" color="#000000" enable-background="new" fill="#242651" style="paint-order:normal"/>
<circle cx="285" cy="290" r="2.5" color="#000000" enable-background="new" fill="#242651" style="paint-order:normal"/>
<circle cx="175" cy="250" r="2.5" color="#000000" enable-background="new" fill="#242651" style="paint-order:normal"/>
<circle cx="225" cy="330" r="2.5" color="#000000" enable-background="new" fill="#242651" style="paint-order:normal"/>
<circle cx="235" cy="370" r="2.5" color="#000000" enable-background="new" fill="#242651" style="paint-order:normal"/>
<circle cx="305" cy="260" r="2.5" color="#000000" enable-background="new" fill="#242651" style="paint-order:normal"/>
<circle cx="445" cy="420" r="2.5" color="#000000" enable-background="new" fill="#242651" style="paint-order:normal"/>
<circle cx="400.41" cy="277.25" r="2.5" color="#000000" enable-background="new" fill="#242651" style="paint-order:normal"/>
<circle cx="425" cy="330" r="2.5" color="#000000" enable-background="new" fill="#242651" style="paint-order:normal"/>
<circle cx="405" cy="360" r="2.5" color="#000000" enable-background="new" fill="#242651" style="paint-order:normal"/>
<circle cx="465" cy="230" r="2.5" color="#000000" enable-background="new" fill="#242651" style="paint-order:normal"/>
<circle cx="315" cy="320" r="2.5" color="#000000" enable-background="new" fill="#242651" style="paint-order:normal"/>
<circle cx="515" cy="260" r="2.5" color="#000000" enable-background="new" fill="#242651" style="paint-order:normal"/>
<circle cx="355" cy="350" r="2.5" color="#000000" enable-background="new" fill="#242651" style="paint-order:normal"/>
<circle cx="475" cy="330" r="2.5" color="#000000" enable-background="new" fill="#242651" style="paint-order:normal"/>
<circle cx="555" cy="310" r="2.5" color="#000000" enable-background="new" fill="#242651" style="paint-order:normal"/>
<circle cx="515" cy="420" r="2.5" color="#000000" enable-background="new" fill="#242651" style="paint-order:normal"/>
<circle cx="605" cy="240" r="2.5" color="#000000" enable-background="new" fill="#242651" style="paint-order:normal"/>
<circle cx="535" cy="370" r="2.5" color="#000000" enable-background="new" fill="#242651" style="paint-order:normal"/>
<circle cx="635" cy="270" r="2.5" color="#000000" enable-background="new" fill="#242651" style="paint-order:normal"/>
<circle cx="655" cy="300" r="2.5" color="#000000" enable-background="new" fill="#242651" style="paint-order:normal"/>
<circle cx="625" cy="310" r="2.5" color="#000000" enable-background="new" fill="#242651" style="paint-order:normal"/>
<circle cx="705" cy="300" r="2.5" color="#000000" enable-background="new" fill="#242651" style="paint-order:normal"/>
<circle cx="765" cy="290" r="2.5" color="#000000" enable-background="new" fill="#242651" style="paint-order:normal"/>
<circle cx="585" cy="420" r="2.5" color="#000000" enable-background="new" fill="#242651" style="paint-order:normal"/>
<circle cx="775" cy="360" r="2.5" color="#000000" enable-background="new" fill="#242651" style="paint-order:normal"/>
<circle cx="725" cy="420" r="2.5" color="#000000" enable-background="new" fill="#242651" style="paint-order:normal"/>
<circle cx="715" cy="340" r="2.5" color="#000000" enable-background="new" fill="#242651" style="paint-order:normal"/>
<circle cx="655" cy="420" r="2.5" color="#000000" enable-background="new" fill="#242651" style="paint-order:normal"/>
<circle cx="705" cy="400" r="2.5" color="#000000" enable-background="new" fill="#242651" style="paint-order:normal"/>
<circle cx="685" cy="370" r="2.5" color="#000000" enable-background="new" fill="#242651" style="paint-order:normal"/>
<circle cx="475" cy="380" r="2.5" color="#000000" enable-background="new" fill="#242651" style="paint-order:normal"/>
<circle cx="385" cy="300" r="2.5" color="#000000" enable-background="new" fill="#242651" style="paint-order:normal"/>
<circle cx="425" cy="430" r="2.5" color="#000000" enable-background="new" fill="#242651" style="paint-order:normal"/>
<circle cx="405" cy="340" r="2.5" color="#000000" enable-background="new" fill="#242651" style="paint-order:normal"/>
<circle cx="355" cy="380" r="2.5" color="#000000" enable-background="new" fill="#242651" style="paint-order:normal"/>
<circle cx="395" cy="410" r="2.5" color="#000000" enable-background="new" fill="#242651" style="paint-order:normal"/>
<circle cx="345" cy="430" r="2.5" color="#000000" enable-background="new" fill="#242651" style="paint-order:normal"/>
<circle cx="295" cy="400" r="2.5" color="#000000" enable-background="new" fill="#242651" style="paint-order:normal"/>
<circle cx="195" cy="330" r="2.5" color="#000000" enable-background="new" fill="#242651" style="paint-order:normal"/>
<circle cx="155" cy="260" r="2.5" color="#000000" enable-background="new" fill="#242651" style="paint-order:normal"/>
<circle cx="220" cy="415" r="2.5" color="#000000" enable-background="new" fill="#242651" style="paint-order:normal"/>
<circle cx="135" cy="310" r="2.5" color="#000000" enable-background="new" fill="#242651" style="paint-order:normal"/>
<circle cx="185" cy="420" r="2.5" color="#000000" enable-background="new" fill="#242651" style="paint-order:normal"/>
<circle cx="635" cy="360" r="2.5" color="#000000" enable-background="new" fill="#242651" style="paint-order:normal"/>
<circle cx="275" cy="440" r="2.5" color="#000000" enable-background="new" fill="#242651" style="paint-order:normal"/>
<text x="190" y="490" color="#000000" fill="#37384c" font-family="'IBM Plex Sans'" font-size="11px" letter-spacing="0px" stroke-width="1px" word-spacing="0px" style="text-decoration-line:none;text-indent:0;text-transform:none" xml:space="preserve"><tspan x="190" y="490" font-size="12px" font-weight="bold">Network peering degree = 3</tspan></text>
<g transform="translate(105.5,29.5)">
<path d="m75.975 460.82-7.4755-4.316" color="#000000" enable-background="new" fill="none" stroke="#37384c" stroke-width="2" style="paint-order:normal"/>
<path d="m61.025 460.82 7.4755-4.316" color="#000000" enable-background="new" fill="none" stroke="#37384c" stroke-width="2" style="paint-order:normal"/>
<path d="m68.5 447.5v8.632" color="#000000" enable-background="new" fill="none" stroke="#37384c" stroke-width="2" style="paint-order:normal"/>
<circle cx="68.5" cy="456.5" r="2.5" color="#000000" enable-background="new" fill="#242651" style="paint-order:normal"/>
</g>
<text x="214.19875" y="365" color="#000000" fill="#37384c" font-family="'IBM Plex Sans'" font-size="12px" letter-spacing="0px" stroke-width="1px" text-anchor="end" word-spacing="0px" style="text-decoration-line:none;text-indent:0;text-transform:none" xml:space="preserve"><tspan x="214.19875" y="365" text-align="end">Peer reached</tspan><tspan x="214.19875" y="380" text-align="end">upper bound</tspan></text>
<text x="550" y="270" color="#000000" fill="#37384c" font-family="'IBM Plex Sans'" font-size="12px" letter-spacing="0px" stroke-width="1px" word-spacing="0px" style="text-decoration-line:none;text-indent:0;text-transform:none" xml:space="preserve"><tspan x="550" y="270">Peer reached</tspan><tspan x="550" y="285">lower bound</tspan></text>
<text x="545" y="490" color="#000000" fill="#37384c" font-family="'IBM Plex Sans'" font-size="11px" letter-spacing="0px" stroke-width="1px" word-spacing="0px" style="text-decoration-line:none;text-indent:0;text-transform:none" xml:space="preserve"><tspan x="545" y="490" font-size="12px">Lower bound = 2</tspan></text>
<g transform="translate(460.5 29.5)">
<path d="m77.132 456.5h-8.632" color="#000000" enable-background="new" fill="none" stroke="#37384c" stroke-width="2" style="paint-order:normal"/>
<path d="m59.868 456.5h8.632" color="#000000" enable-background="new" fill="none" stroke="#37384c" stroke-width="2" style="paint-order:normal"/>
<circle cx="68.5" cy="456.5" r="2.5" color="#000000" enable-background="new" fill="#242651" style="paint-order:normal"/>
</g>
<g transform="translate(315.5,29.5)">
<path d="m77.132 456.5h-8.632" color="#000000" enable-background="new" fill="none" stroke="#37384c" stroke-width="2" style="paint-order:normal"/>
<path d="m68.5 465.13v-8.632" color="#000000" enable-background="new" fill="none" stroke="#37384c" stroke-width="2" style="paint-order:normal"/>
<path d="m59.868 456.5h8.632" color="#000000" enable-background="new" fill="none" stroke="#37384c" stroke-width="2" style="paint-order:normal"/>
<path d="m68.5 447.5v8.632" color="#000000" enable-background="new" fill="none" stroke="#37384c" stroke-width="2" style="paint-order:normal"/>
<circle cx="68.5" cy="456.5" r="2.5" color="#000000" enable-background="new" fill="#242651" style="paint-order:normal"/>
</g>
<text x="400" y="490" color="#000000" fill="#37384c" font-family="'IBM Plex Sans'" font-size="11px" letter-spacing="0px" stroke-width="1px" word-spacing="0px" style="text-decoration-line:none;text-indent:0;text-transform:none" xml:space="preserve"><tspan x="400" y="490" font-size="12px">Upper bound = 4</tspan></text>
<text x="10" y="220" color="#000000" fill="#37384c" font-family="'IBM Plex Sans'" font-size="11px" letter-spacing="0px" stroke-width=".6" word-spacing="0px" style="paint-order:normal;text-decoration-line:none;text-indent:0;text-transform:none" xml:space="preserve"><tspan x="10" y="220" fill="#37384c" font-size="16px" font-weight="bold" stroke-width=".6" style="paint-order:normal">Full-message network</tspan></text>
</g>
</svg>
