<?xml version="1.0" encoding="UTF-8"?>
<svg version="1.1" viewBox="0 0 535 165" xmlns="http://www.w3.org/2000/svg" xmlns:cc="http://creativecommons.org/ns#" xmlns:dc="http://purl.org/dc/elements/1.1/" xmlns:rdf="http://www.w3.org/1999/02/22-rdf-syntax-ns#">
<metadata>
<rdf:RDF>
<cc:Work rdf:about="">
<dc:format>image/svg+xml</dc:format>
<dc:type rdf:resource="http://purl.org/dc/dcmitype/StillImage"/>
<dc:title/>
</cc:Work>
</rdf:RDF>
</metadata>
<g transform="translate(0,-335)">
<path d="m340 405h190" color="#000000" enable-background="new" fill="none" stroke="#37384c" stroke-width="2" style="paint-order:normal"/>
<path d="m5 404.5h190" color="#000000" enable-background="new" fill="none" opacity=".3" stroke="#37384c" stroke-width=".6" style="paint-order:normal"/>
<circle cx="5" cy="405" r="2.5" color="#000000" enable-background="new" fill="#242651" style="paint-order:normal"/>
<circle cx="195" cy="405" r="2.5" color="#000000" enable-background="new" fill="#242651" style="paint-order:normal"/>
<path d="m137 339c4.986 0 9 4.014 9 9v36c0 4.986-4.014 9-9 9h-117c-2.1628 0-4.1407-0.7573-5.6894-2.0195-1.8732 1.2335-4.073 1.9465-6.3106 2.0195 1.8117-1.1086 3-3.1397 3-5.3066v-39.693c0-4.986 4.014-9 9-9z" color="#000000" fill="#ebf0f5" style="paint-order:normal"/>
<text x="21" y="355" color="#000000" fill="#37384c" font-family="'IBM Plex Sans'" font-size="12px" letter-spacing="0px" stroke-width="1px" word-spacing="0px" style="text-decoration-line:none;text-indent:0;text-transform:none" xml:space="preserve"><tspan x="21" y="355">I’m <tspan font-weight="bold">grafting</tspan> our</tspan><tspan x="21" y="370">connection into a</tspan><tspan x="21" y="385">full-message peering.</tspan></text>
<g transform="translate(-13,90.05)">
<path d="m68 310.5 34 1e-5" color="#000000" fill="none" stroke="#37384c" stroke-width=".6" style="paint-order:normal"/>
<path d="m101 308.05v2.75h10z" color="#000000" fill="#37384c" style="paint-order:normal"/>
</g>
<g transform="translate(-195,250)">
<path d="m200 245h190" color="#000000" enable-background="new" fill="none" stroke="#37384c" stroke-width="2" style="paint-order:normal"/>
<circle cx="200" cy="245" r="2.5" color="#000000" enable-background="new" fill="#242651" style="paint-order:normal"/>
<circle cx="390" cy="245" r="2.5" color="#000000" enable-background="new" fill="#242651" style="paint-order:normal"/>
</g>
<text x="100" y="485" color="#000000" fill="#37384c" font-family="'IBM Plex Sans'" font-size="11px" letter-spacing="0px" stroke-width="1px" word-spacing="0px" style="text-decoration-line:none;text-indent:0;text-transform:none" xml:space="preserve"><tspan x="100" y="485" font-size="12px" text-align="center" text-anchor="middle">Full-message peering</tspan></text>
<path d="m80 440 20 10 20-10z" color="#000000" fill="#37384c" style="paint-order:normal"/>
<circle cx="340" cy="405" r="2.5" color="#000000" enable-background="new" fill="#242651" style="paint-order:normal"/>
<circle cx="530" cy="405" r="2.5" color="#000000" enable-background="new" fill="#242651" style="paint-order:normal"/>
<path d="m483 339c4.986 0 9 4.014 9 9v36c0 4.986-4.014 9-9 9h-128c-2.1628 0-4.1407-0.7573-5.6894-2.0195-1.8732 1.2335-4.073 1.9465-6.3106 2.0195 1.8117-1.1086 3-3.1397 3-5.3066v-39.693c0-4.986 4.014-9 9-9z" color="#000000" fill="#ebf0f5" style="paint-order:normal"/>
<text x="356" y="355" color="#000000" fill="#37384c" font-family="'IBM Plex Sans'" font-size="12px" letter-spacing="0px" stroke-width="1px" word-spacing="0px" style="text-decoration-line:none;text-indent:0;text-transform:none" xml:space="preserve"><tspan x="356" y="355">I’m <tspan font-weight="bold">pruning</tspan> our</tspan><tspan x="356" y="370">connection back to a</tspan><tspan x="356" y="385">metadata-only peering.</tspan></text>
<g transform="translate(328,90.05)">
<path d="m68 310.5 34 1e-5" color="#000000" fill="none" stroke="#37384c" stroke-width=".6" style="paint-order:normal"/>
<path d="m101 308.05v2.75h10z" color="#000000" fill="#37384c" style="paint-order:normal"/>
</g>
<g transform="translate(140,250)">
<path d="m200 244.5h190" color="#000000" enable-background="new" fill="none" opacity=".3" stroke="#37384c" stroke-width=".6" style="paint-order:normal"/>
<circle cx="200" cy="245" r="2.5" color="#000000" enable-background="new" fill="#242651" style="paint-order:normal"/>
<circle cx="390" cy="245" r="2.5" color="#000000" enable-background="new" fill="#242651" style="paint-order:normal"/>
</g>
<text x="435" y="485" color="#000000" fill="#37384c" font-family="'IBM Plex Sans'" font-size="11px" letter-spacing="0px" stroke-width="1px" word-spacing="0px" style="text-decoration-line:none;text-indent:0;text-transform:none" xml:space="preserve"><tspan x="435" y="485" font-size="12px" text-align="center" text-anchor="middle">Metadata-only peering</tspan></text>
<path d="m415 440 20 10 20-10z" color="#000000" fill="#37384c" style="paint-order:normal"/>
</g>
</svg>
