<?xml version="1.0" encoding="UTF-8"?>
<svg version="1.1" viewBox="0 0 800 305" xmlns="http://www.w3.org/2000/svg" xmlns:cc="http://creativecommons.org/ns#" xmlns:dc="http://purl.org/dc/elements/1.1/" xmlns:rdf="http://www.w3.org/1999/02/22-rdf-syntax-ns#">
<metadata>
<rdf:RDF>
<cc:Work rdf:about="">
<dc:format>image/svg+xml</dc:format>
<dc:type rdf:resource="http://purl.org/dc/dcmitype/StillImage"/>
<dc:title/>
</cc:Work>
</rdf:RDF>
</metadata>
<g transform="translate(0,-195)">
<path d="m774.07 267.72c-34.262-28.703-90.451-19.088-164.93-48.551s-179.29-22.691-224.18-10.477-68.251 19.792-115.97 19.892-99.813 1.1936-135.6 5.0892-124.58 31.461-122.8 76.804 30.896 48.981 46.682 77.496 31.131 45.57 80.768 38.848c49.637-6.7222 109.96 29.49 152.81 34.404s67.209-12.168 118.14-11.301 100.59-12.995 149.01-13.667 74.84 14.674 163.92 4.3221c89.078-10.352 86.4-144.16 52.139-172.86z" color="#000000" fill="#ebf0f5" style="paint-order:normal"/>
<g transform="translate(-45,265)" fill="none" stroke="#37384c" stroke-width=".6">
<path d="m170 120-100-70" color="#000000" enable-background="new" opacity=".3" style="paint-order:normal"/>
<path d="m200-10-130 60" color="#000000" enable-background="new" opacity=".3" style="paint-order:normal"/>
<path d="m240 60-170-10" color="#000000" enable-background="new" opacity=".3" style="paint-order:normal"/>
<path d="m150 140-80-90" color="#000000" enable-background="new" opacity=".3" style="paint-order:normal"/>
<path d="m180 40-80 50" color="#000000" enable-background="new" opacity=".3" style="paint-order:normal"/>
<path d="m120 10-20 80" color="#000000" enable-background="new" opacity=".3" style="paint-order:normal"/>
<path d="m200-10-100 100" color="#000000" enable-background="new" opacity=".3" style="paint-order:normal"/>
<path d="m230 150-130-60" color="#000000" enable-background="new" opacity=".3" style="paint-order:normal"/>
<path d="m120 10 50 110" color="#000000" enable-background="new" opacity=".3" style="paint-order:normal"/>
<path d="m120 10 30 130" color="#000000" enable-background="new" opacity=".3" style="paint-order:normal"/>
<path d="m120 10 120 50" color="#000000" enable-background="new" opacity=".3" style="paint-order:normal"/>
<path d="m240 60-140 30" color="#000000" enable-background="new" opacity=".3" style="paint-order:normal"/>
<path d="m240 60-70 60" color="#000000" enable-background="new" opacity=".3" style="paint-order:normal"/>
<path d="m240 60-10 90" color="#000000" enable-background="new" opacity=".3" style="paint-order:normal"/>
<path d="m240 60-20-80" color="#000000" enable-background="new" opacity=".3" style="paint-order:normal"/>
<path d="m180 40 40-60" color="#000000" enable-background="new" opacity=".3" style="paint-order:normal"/>
<path d="m170 120 50-140" color="#000000" enable-background="new" opacity=".3" style="paint-order:normal"/>
<path d="m330 20-110-40" color="#000000" enable-background="new" opacity=".3" style="paint-order:normal"/>
<path d="m280 100-60-120" color="#000000" enable-background="new" opacity=".3" style="paint-order:normal"/>
<path d="m265 145-95-25" color="#000000" enable-background="new" opacity=".3" style="paint-order:normal"/>
<path d="m265 145 75-15" color="#000000" enable-background="new" opacity=".3" style="paint-order:normal"/>
<path d="m265 145 95-95" color="#000000" enable-background="new" opacity=".3" style="paint-order:normal"/>
<path d="m280 100 80-50" color="#000000" enable-background="new" opacity=".3" style="paint-order:normal"/>
<path d="m270 60 90-10" color="#000000" enable-background="new" opacity=".3" style="paint-order:normal"/>
<path d="m340 130 20-80" color="#000000" enable-background="new" opacity=".3" style="paint-order:normal"/>
<path d="m340 130 60-50" color="#000000" enable-background="new" opacity=".3" style="paint-order:normal"/>
<path d="m340 130 60-20" color="#000000" enable-background="new" opacity=".3" style="paint-order:normal"/>
<path d="m340 130-10-110" color="#000000" enable-background="new" opacity=".3" style="paint-order:normal"/>
<path d="m270 60 60-40" color="#000000" enable-background="new" opacity=".3" style="paint-order:normal"/>
<path d="m270 60 80-70" color="#000000" enable-background="new" opacity=".3" style="paint-order:normal"/>
<path d="m400 80-50-90" color="#000000" enable-background="new" opacity=".3" style="paint-order:normal"/>
<path d="m430 30-80-40" color="#000000" enable-background="new" opacity=".3" style="paint-order:normal"/>
<path d="m445.41 7.2479-95.411-17.248" color="#000000" enable-background="new" opacity=".3" style="paint-order:normal"/>
<path d="m445.41 7.2479 24.589 52.752" color="#000000" enable-background="new" opacity=".3" style="paint-order:normal"/>
<path d="m445.41 7.2479 4.5889 62.752" color="#000000" enable-background="new" opacity=".3" style="paint-order:normal"/>
<path d="m400 80 30-50" color="#000000" enable-background="new" opacity=".3" style="paint-order:normal"/>
<path d="m400 80 50-10" color="#000000" enable-background="new" opacity=".3" style="paint-order:normal"/>
<path d="m400 80 40 60" color="#000000" enable-background="new" opacity=".3" style="paint-order:normal"/>
<path d="m400 80-120 20" color="#000000" enable-background="new" opacity=".3" style="paint-order:normal"/>
<path d="m390 160 50-20" color="#000000" enable-background="new" opacity=".3" style="paint-order:normal"/>
<path d="m340 130 100 10" color="#000000" enable-background="new" opacity=".3" style="paint-order:normal"/>
<path d="m320 170 120-30" color="#000000" enable-background="new" opacity=".3" style="paint-order:normal"/>
<path d="m490 150-50-10" color="#000000" enable-background="new" opacity=".3" style="paint-order:normal"/>
<path d="m520 110-80 30" color="#000000" enable-background="new" opacity=".3" style="paint-order:normal"/>
<path d="m470 60-30 80" color="#000000" enable-background="new" opacity=".3" style="paint-order:normal"/>
<path d="m470 60-70 20" color="#000000" enable-background="new" opacity=".3" style="paint-order:normal"/>
<path d="m470 60h50" color="#000000" enable-background="new" opacity=".3" style="paint-order:normal"/>
<path d="m470 60 110 40" color="#000000" enable-background="new" opacity=".3" style="paint-order:normal"/>
<path d="m470 60 50 50" color="#000000" enable-background="new" opacity=".3" style="paint-order:normal"/>
<path d="m630 150-110-40" color="#000000" enable-background="new" opacity=".3" style="paint-order:normal"/>
<path d="m520 60v50" color="#000000" enable-background="new" opacity=".3" style="paint-order:normal"/>
<path d="m450 90 70 20" color="#000000" enable-background="new" opacity=".3" style="paint-order:normal"/>
<path d="m450 90-50 20" color="#000000" enable-background="new" opacity=".3" style="paint-order:normal"/>
<path d="m450 90 20-30" color="#000000" enable-background="new" opacity=".3" style="paint-order:normal"/>
<path d="m490 150-40-60" color="#000000" enable-background="new" opacity=".3" style="paint-order:normal"/>
<path d="m490 150 90-50" color="#000000" enable-background="new" opacity=".3" style="paint-order:normal"/>
<path d="m560 150 20-50" color="#000000" enable-background="new" opacity=".3" style="paint-order:normal"/>
<path d="m560 150 120-60" color="#000000" enable-background="new" opacity=".3" style="paint-order:normal"/>
<path d="m630 150 50-60" color="#000000" enable-background="new" opacity=".3" style="paint-order:normal"/>
<path d="m630 150h70" color="#000000" enable-background="new" opacity=".3" style="paint-order:normal"/>
<path d="m700 30v120" color="#000000" enable-background="new" opacity=".3" style="paint-order:normal"/>
<path d="m750 30-50 120" color="#000000" enable-background="new" opacity=".3" style="paint-order:normal"/>
<path d="m750 30-70 60" color="#000000" enable-background="new" opacity=".3" style="paint-order:normal"/>
<path d="m750 30-20 70" color="#000000" enable-background="new" opacity=".3" style="paint-order:normal"/>
<path d="m750 30-70-30" color="#000000" enable-background="new" opacity=".3" style="paint-order:normal"/>
<path d="m750 30 70 60" color="#000000" enable-background="new" opacity=".3" style="paint-order:normal"/>
<path d="m760 70 60 20" color="#000000" enable-background="new" opacity=".3" style="paint-order:normal"/>
<path d="m760 70 10 80" color="#000000" enable-background="new" opacity=".3" style="paint-order:normal"/>
<path d="m820 90-70 40" color="#000000" enable-background="new" opacity=".3" style="paint-order:normal"/>
<path d="m810 20-60 110" color="#000000" enable-background="new" opacity=".3" style="paint-order:normal"/>
<path d="m700 150 50-20" color="#000000" enable-background="new" opacity=".3" style="paint-order:normal"/>
<path d="m700 150-100-110" color="#000000" enable-background="new" opacity=".3" style="paint-order:normal"/>
<path d="m680 90 70 40" color="#000000" enable-background="new" opacity=".3" style="paint-order:normal"/>
<path d="m680 90 50 10" color="#000000" enable-background="new" opacity=".3" style="paint-order:normal"/>
<path d="m680 90 80-20" color="#000000" enable-background="new" opacity=".3" style="paint-order:normal"/>
<path d="m680 90 20-60" color="#000000" enable-background="new" opacity=".3" style="paint-order:normal"/>
<path d="m670 40 60 60" color="#000000" enable-background="new" opacity=".3" style="paint-order:normal"/>
<path d="m670 40 90 30" color="#000000" enable-background="new" opacity=".3" style="paint-order:normal"/>
<path d="m670 40-90 60" color="#000000" enable-background="new" opacity=".3" style="paint-order:normal"/>
<path d="m670 40-150 20" color="#000000" enable-background="new" opacity=".3" style="paint-order:normal"/>
<path d="m560-10-40 70" color="#000000" enable-background="new" opacity=".3" style="paint-order:normal"/>
<path d="m560-10 140 40" color="#000000" enable-background="new" opacity=".3" style="paint-order:normal"/>
<path d="m560-10 110 50" color="#000000" enable-background="new" opacity=".3" style="paint-order:normal"/>
<path d="m560-10 120 10" color="#000000" enable-background="new" opacity=".3" style="paint-order:normal"/>
<path d="m560-10-114.59 17.248" color="#000000" enable-background="new" opacity=".3" style="paint-order:normal"/>
<path d="m600 40-154.59-32.752" color="#000000" enable-background="new" opacity=".3" style="paint-order:normal"/>
<path d="m600 40 50-70" color="#000000" enable-background="new" opacity=".3" style="paint-order:normal"/>
<path d="m600 40 80-40" color="#000000" enable-background="new" opacity=".3" style="paint-order:normal"/>
<path d="m600 40 100-10" color="#000000" enable-background="new" opacity=".3" style="paint-order:normal"/>
<path d="m810 20-110 10" color="#000000" enable-background="new" opacity=".3" style="paint-order:normal"/>
<path d="m600 40-20 60" color="#000000" enable-background="new" opacity=".3" style="paint-order:normal"/>
<path d="m680 90-100 10" color="#000000" enable-background="new" opacity=".3" style="paint-order:normal"/>
<path d="m630 150-30-110" color="#000000" enable-background="new" opacity=".3" style="paint-order:normal"/>
<path d="m510-40 90 80" color="#000000" enable-background="new" opacity=".3" style="paint-order:normal"/>
<path d="m510-40-40 100" color="#000000" enable-background="new" opacity=".3" style="paint-order:normal"/>
<path d="m445.41 7.2479 74.589 102.75" color="#000000" enable-background="new" opacity=".3" style="paint-order:normal"/>
<path d="m560-10 20 110" color="#000000" enable-background="new" opacity=".3" style="paint-order:normal"/>
<path d="m560-10-40 120" color="#000000" enable-background="new" opacity=".3" style="paint-order:normal"/>
<path d="m750 30v100" color="#000000" enable-background="new" opacity=".3" style="paint-order:normal"/>
<path d="m700 30 50 100" color="#000000" enable-background="new" opacity=".3" style="paint-order:normal"/>
<path d="m680 90 90 60" color="#000000" enable-background="new" opacity=".3" style="paint-order:normal"/>
<path d="m450 90-60 70" color="#000000" enable-background="new" opacity=".3" style="paint-order:normal"/>
<path d="m360 50 30 110" color="#000000" enable-background="new" opacity=".3" style="paint-order:normal"/>
<path d="m280 100 40 70" color="#000000" enable-background="new" opacity=".3" style="paint-order:normal"/>
<path d="m230 150 90 20" color="#000000" enable-background="new" opacity=".3" style="paint-order:normal"/>
<path d="m230 150-50-110" color="#000000" enable-background="new" opacity=".3" style="paint-order:normal"/>
<path d="m150 140 30-100" color="#000000" enable-background="new" opacity=".3" style="paint-order:normal"/>
<path d="m445.41 7.2479-85.411 42.752" color="#000000" enable-background="new" opacity=".3" style="paint-order:normal"/>
<path d="m430 30-70 20" color="#000000" enable-background="new" opacity=".3" style="paint-order:normal"/>
<path d="m430 30-100-10" color="#000000" enable-background="new" opacity=".3" style="paint-order:normal"/>
<path d="m200-10 130 30" color="#000000" enable-background="new" opacity=".3" style="paint-order:normal"/>
<path d="m240 60 25 85" color="#000000" enable-background="new" opacity=".3" style="paint-order:normal"/>
<path d="m280 100-50 50" color="#000000" enable-background="new" opacity=".3" style="paint-order:normal"/>
<path d="m280 100-110 20" color="#000000" enable-background="new" opacity=".3" style="paint-order:normal"/>
<path d="m280 100-40-40" color="#000000" enable-background="new" opacity=".3" style="paint-order:normal"/>
<path d="m200-10 70 70" color="#000000" enable-background="new" opacity=".3" style="paint-order:normal"/>
<path d="m170 120 10-80" color="#000000" enable-background="new" opacity=".3" style="paint-order:normal"/>
<path d="m280 100-100-60" color="#000000" enable-background="new" opacity=".3" style="paint-order:normal"/>
<path d="m265 145-85-105" color="#000000" enable-background="new" opacity=".3" style="paint-order:normal"/>
<path d="m265 145 5-85" color="#000000" enable-background="new" opacity=".3" style="paint-order:normal"/>
<path d="m200-10-20 50" color="#000000" enable-background="new" opacity=".3" style="paint-order:normal"/>
<path d="m270 60-90-20" color="#000000" enable-background="new" opacity=".3" style="paint-order:normal"/>
<path d="m400 110 50-40" color="#000000" enable-background="new" opacity=".3" style="paint-order:normal"/>
<path d="m400 110 30-80" color="#000000" enable-background="new" opacity=".3" style="paint-order:normal"/>
<path d="m400 110-40-60" color="#000000" enable-background="new" opacity=".3" style="paint-order:normal"/>
<path d="m400 80-10 80" color="#000000" enable-background="new" opacity=".3" style="paint-order:normal"/>
<path d="m330 20 60 140" color="#000000" enable-background="new" opacity=".3" style="paint-order:normal"/>
<path d="m330 20-10 150" color="#000000" enable-background="new" opacity=".3" style="paint-order:normal"/>
<path d="m700 150-120-50" color="#000000" enable-background="new" opacity=".3" style="paint-order:normal"/>
<path d="m670 40-20-70" color="#000000" enable-background="new" opacity=".3" style="paint-order:normal"/>
<path d="m700 30-50-60" color="#000000" enable-background="new" opacity=".3" style="paint-order:normal"/>
<path d="m670 40 10-40" color="#000000" enable-background="new" opacity=".3" style="paint-order:normal"/>
<path d="m810 20-50 50" color="#000000" enable-background="new" opacity=".3" style="paint-order:normal"/>
<path d="m810 20-40 130" color="#000000" enable-background="new" opacity=".3" style="paint-order:normal"/>
<path d="m670 40-40 110" color="#000000" enable-background="new" opacity=".3" style="paint-order:normal"/>
<path d="m450 90 70-30" color="#000000" enable-background="new" opacity=".3" style="paint-order:normal"/>
<path d="m490 150 30-90" color="#000000" enable-background="new" opacity=".3" style="paint-order:normal"/>
<path d="m470 160 50-100" color="#000000" enable-background="new" opacity=".3" style="paint-order:normal"/>
<path d="m440 140 80-80" color="#000000" enable-background="new" opacity=".3" style="paint-order:normal"/>
<path d="m470 160-20-70" color="#000000" enable-background="new" opacity=".3" style="paint-order:normal"/>
<path d="m450 70 70 40" color="#000000" enable-background="new" opacity=".3" style="paint-order:normal"/>
<path d="m430 30 90 30" color="#000000" enable-background="new" opacity=".3" style="paint-order:normal"/>
</g>
<text x="299.53937" y="682.03394" color="#000000" fill="#37384c" font-family="'IBM Plex Sans'" font-size="11px" letter-spacing="0px" stroke-width="1px" word-spacing="0px" style="line-height:1.39999998;text-decoration-line:none;text-indent:0;text-transform:none" xml:space="preserve"><tspan x="299.53937" y="692.81396" font-size="11px" style="line-height:1.39999998"/></text>
<circle cx="25" cy="315" r="2.5" color="#000000" enable-background="new" fill="#242651" style="paint-order:normal"/>
<circle cx="75" cy="275" r="2.5" color="#000000" enable-background="new" fill="#242651" style="paint-order:normal"/>
<circle cx="55" cy="355" r="2.5" color="#000000" enable-background="new" fill="#242651" style="paint-order:normal"/>
<circle cx="125" cy="385" r="2.5" color="#000000" enable-background="new" fill="#242651" style="paint-order:normal"/>
<circle cx="105" cy="405" r="2.5" color="#000000" enable-background="new" fill="#242651" style="paint-order:normal"/>
<circle cx="285" cy="285" r="2.5" color="#000000" enable-background="new" fill="#242651" style="paint-order:normal"/>
<circle cx="175" cy="245" r="2.5" color="#000000" enable-background="new" fill="#242651" style="paint-order:normal"/>
<circle cx="225" cy="325" r="2.5" color="#000000" enable-background="new" fill="#242651" style="paint-order:normal"/>
<circle cx="235" cy="365" r="2.5" color="#000000" enable-background="new" fill="#242651" style="paint-order:normal"/>
<circle cx="305" cy="255" r="2.5" color="#000000" enable-background="new" fill="#242651" style="paint-order:normal"/>
<circle cx="445" cy="415" r="2.5" color="#000000" enable-background="new" fill="#242651" style="paint-order:normal"/>
<circle cx="400.41" cy="272.25" r="2.5" color="#000000" enable-background="new" fill="#242651" style="paint-order:normal"/>
<circle cx="425" cy="325" r="2.5" color="#000000" enable-background="new" fill="#242651" style="paint-order:normal"/>
<circle cx="405" cy="355" r="2.5" color="#000000" enable-background="new" fill="#242651" style="paint-order:normal"/>
<circle cx="465" cy="225" r="2.5" color="#000000" enable-background="new" fill="#242651" style="paint-order:normal"/>
<circle cx="315" cy="315" r="2.5" color="#000000" enable-background="new" fill="#242651" style="paint-order:normal"/>
<circle cx="515" cy="255" r="2.5" color="#000000" enable-background="new" fill="#242651" style="paint-order:normal"/>
<circle cx="355" cy="345" r="2.5" color="#000000" enable-background="new" fill="#242651" style="paint-order:normal"/>
<circle cx="475" cy="325" r="2.5" color="#000000" enable-background="new" fill="#242651" style="paint-order:normal"/>
<circle cx="555" cy="305" r="2.5" color="#000000" enable-background="new" fill="#242651" style="paint-order:normal"/>
<circle cx="515" cy="415" r="2.5" color="#000000" enable-background="new" fill="#242651" style="paint-order:normal"/>
<circle cx="605" cy="235" r="2.5" color="#000000" enable-background="new" fill="#242651" style="paint-order:normal"/>
<circle cx="535" cy="365" r="2.5" color="#000000" enable-background="new" fill="#242651" style="paint-order:normal"/>
<circle cx="635" cy="265" r="2.5" color="#000000" enable-background="new" fill="#242651" style="paint-order:normal"/>
<circle cx="655" cy="295" r="2.5" color="#000000" enable-background="new" fill="#242651" style="paint-order:normal"/>
<circle cx="625" cy="305" r="2.5" color="#000000" enable-background="new" fill="#242651" style="paint-order:normal"/>
<circle cx="705" cy="295" r="2.5" color="#000000" enable-background="new" fill="#242651" style="paint-order:normal"/>
<circle cx="765" cy="285" r="2.5" color="#000000" enable-background="new" fill="#242651" style="paint-order:normal"/>
<circle cx="585" cy="415" r="2.5" color="#000000" enable-background="new" fill="#242651" style="paint-order:normal"/>
<circle cx="775" cy="355" r="2.5" color="#000000" enable-background="new" fill="#242651" style="paint-order:normal"/>
<circle cx="725" cy="415" r="2.5" color="#000000" enable-background="new" fill="#242651" style="paint-order:normal"/>
<circle cx="715" cy="335" r="2.5" color="#000000" enable-background="new" fill="#242651" style="paint-order:normal"/>
<circle cx="655" cy="415" r="2.5" color="#000000" enable-background="new" fill="#242651" style="paint-order:normal"/>
<circle cx="705" cy="395" r="2.5" color="#000000" enable-background="new" fill="#242651" style="paint-order:normal"/>
<circle cx="685" cy="365" r="2.5" color="#000000" enable-background="new" fill="#242651" style="paint-order:normal"/>
<circle cx="475" cy="375" r="2.5" color="#000000" enable-background="new" fill="#242651" style="paint-order:normal"/>
<circle cx="385" cy="295" r="2.5" color="#000000" enable-background="new" fill="#242651" style="paint-order:normal"/>
<circle cx="425" cy="425" r="2.5" color="#000000" enable-background="new" fill="#242651" style="paint-order:normal"/>
<circle cx="405" cy="335" r="2.5" color="#000000" enable-background="new" fill="#242651" style="paint-order:normal"/>
<circle cx="355" cy="375" r="2.5" color="#000000" enable-background="new" fill="#242651" style="paint-order:normal"/>
<circle cx="395" cy="405" r="2.5" color="#000000" enable-background="new" fill="#242651" style="paint-order:normal"/>
<circle cx="345" cy="425" r="2.5" color="#000000" enable-background="new" fill="#242651" style="paint-order:normal"/>
<circle cx="295" cy="395" r="2.5" color="#000000" enable-background="new" fill="#242651" style="paint-order:normal"/>
<circle cx="275" cy="435" r="2.5" color="#000000" enable-background="new" fill="#242651" style="paint-order:normal"/>
<circle cx="195" cy="325" r="2.5" color="#000000" enable-background="new" fill="#242651" style="paint-order:normal"/>
<circle cx="155" cy="255" r="2.5" color="#000000" enable-background="new" fill="#242651" style="paint-order:normal"/>
<circle cx="220" cy="410" r="2.5" color="#000000" enable-background="new" fill="#242651" style="paint-order:normal"/>
<circle cx="135" cy="305" r="2.5" color="#000000" enable-background="new" fill="#242651" style="paint-order:normal"/>
<circle cx="185" cy="415" r="2.5" color="#000000" enable-background="new" fill="#242651" style="paint-order:normal"/>
<circle cx="635" cy="355" r="2.5" color="#000000" enable-background="new" fill="#242651" style="paint-order:normal"/>
<text x="675" y="490" color="#000000" fill="#37384c" font-family="'IBM Plex Sans'" font-size="11px" letter-spacing="0px" stroke-width="1px" word-spacing="0px" style="text-decoration-line:none;text-indent:0;text-transform:none" xml:space="preserve"><tspan x="675" y="490" font-size="12px">Metadata-only peering</tspan></text>
<path d="m665 484.5h-20" color="#000000" enable-background="new" fill="none" opacity=".3" stroke="#37384c" stroke-width=".6" style="paint-order:normal"/>
<text x="365" y="475" color="#000000" fill="#37384c" font-family="'IBM Plex Sans'" font-size="12px" letter-spacing="0px" stroke-width="1px" word-spacing="0px" style="text-decoration-line:none;text-indent:0;text-transform:none" xml:space="preserve"><tspan x="365" y="475">Each peering is a network</tspan><tspan x="365" y="490">connection between two peers</tspan></text>
<path d="m312.5 427.88 57.5 32.125" color="#000000" fill="none" stroke="#37384c" stroke-width=".6" style="paint-order:normal"/>
<path d="m369.5 417.71v42.295" color="#000000" fill="none" stroke="#37384c" stroke-width=".6" style="paint-order:normal"/>
<path d="m413.93 410.94-43.931 49.056" color="#000000" fill="none" stroke="#37384c" stroke-width=".6" style="paint-order:normal"/>
<text x="10" y="215" color="#000000" fill="#37384c" font-family="'IBM Plex Sans'" font-size="11px" letter-spacing="0px" stroke-width=".6" word-spacing="0px" style="paint-order:normal;text-decoration-line:none;text-indent:0;text-transform:none" xml:space="preserve"><tspan x="10" y="215" fill="#37384c" font-size="16px" font-weight="bold" stroke-width=".6" style="paint-order:normal">Metadata-only network</tspan></text>
</g>
<g display="none">
<g transform="translate(-45 70)" fill="none" stroke="#37384c" stroke-width=".6">
<path d="m180 40-110 10" color="#000000" enable-background="new" opacity=".3" style="paint-order:normal"/>
<path d="m100 90-30-40" color="#000000" enable-background="new" opacity=".3" style="paint-order:normal"/>
<path d="m120 10-50 40" color="#000000" enable-background="new" opacity=".3" style="paint-order:normal"/>
<path d="m120 10 60 30" color="#000000" enable-background="new" opacity=".3" style="paint-order:normal"/>
<path d="m120 10 80-20" color="#000000" enable-background="new" opacity=".3" style="paint-order:normal"/>
<path d="m180 40 60 20" color="#000000" enable-background="new" opacity=".3" style="paint-order:normal"/>
<path d="m220-20-20 10" color="#000000" enable-background="new" opacity=".3" style="paint-order:normal"/>
<path d="m240 60-40-70" color="#000000" enable-background="new" opacity=".3" style="paint-order:normal"/>
<path d="m220-20 50 80" color="#000000" enable-background="new" opacity=".3" style="paint-order:normal"/>
<path d="m240 60h30" color="#000000" enable-background="new" opacity=".3" style="paint-order:normal"/>
<path d="m280 100-10-40" color="#000000" enable-background="new" opacity=".3" style="paint-order:normal"/>
<path d="m100 90 70 30" color="#000000" enable-background="new" opacity=".3" style="paint-order:normal"/>
<path d="m100 90 50 50" color="#000000" enable-background="new" opacity=".3" style="paint-order:normal"/>
<path d="m170 120-20 20" color="#000000" enable-background="new" opacity=".3" style="paint-order:normal"/>
<path d="m230 150-80-10" color="#000000" enable-background="new" opacity=".3" style="paint-order:normal"/>
<path d="m230 150-60-30" color="#000000" enable-background="new" opacity=".3" style="paint-order:normal"/>
<path d="m230 150 35-5" color="#000000" enable-background="new" opacity=".3" style="paint-order:normal"/>
<path d="m280 100-15 45" color="#000000" enable-background="new" opacity=".3" style="paint-order:normal"/>
<path d="m320 170-55-25" color="#000000" enable-background="new" opacity=".3" style="paint-order:normal"/>
<path d="m280 100 50-80" color="#000000" enable-background="new" opacity=".3" style="paint-order:normal"/>
<path d="m220-20 130 10" color="#000000" enable-background="new" opacity=".3" style="paint-order:normal"/>
<path d="m330 20 20-30" color="#000000" enable-background="new" opacity=".3" style="paint-order:normal"/>
<path d="m360 50-10-60" color="#000000" enable-background="new" opacity=".3" style="paint-order:normal"/>
<path d="m360 50-30-30" color="#000000" enable-background="new" opacity=".3" style="paint-order:normal"/>
<path d="m320 170 20-40" color="#000000" enable-background="new" opacity=".3" style="paint-order:normal"/>
<path d="m400 110 40 30" color="#000000" enable-background="new" opacity=".3" style="paint-order:normal"/>
<path d="m400 110-10 50" color="#000000" enable-background="new" opacity=".3" style="paint-order:normal"/>
<path d="m340 130 50 30" color="#000000" enable-background="new" opacity=".3" style="paint-order:normal"/>
<path d="m320 170 70-10" color="#000000" enable-background="new" opacity=".3" style="paint-order:normal"/>
<path d="m360 50 40 30" color="#000000" enable-background="new" opacity=".3" style="paint-order:normal"/>
<path d="m400 110v-30" color="#000000" enable-background="new" opacity=".3" style="paint-order:normal"/>
<path d="m450 90-50-10" color="#000000" enable-background="new" opacity=".3" style="paint-order:normal"/>
<path d="m430 30 20 40" color="#000000" enable-background="new" opacity=".3" style="paint-order:normal"/>
<path d="m450 90v-20" color="#000000" enable-background="new" opacity=".3" style="paint-order:normal"/>
<path d="m470 60-20 10" color="#000000" enable-background="new" opacity=".3" style="paint-order:normal"/>
<path d="m430 30 15.411-22.752" color="#000000" enable-background="new" opacity=".3" style="paint-order:normal"/>
<path d="m520 60-74.589-52.752" color="#000000" enable-background="new" opacity=".3" style="paint-order:normal"/>
<path d="m450 90-10 50" color="#000000" enable-background="new" opacity=".3" style="paint-order:normal"/>
<path d="m470 160-30-20" color="#000000" enable-background="new" opacity=".3" style="paint-order:normal"/>
<path d="m470 160 20-10" color="#000000" enable-background="new" opacity=".3" style="paint-order:normal"/>
<path d="m560 150h-70" color="#000000" enable-background="new" opacity=".3" style="paint-order:normal"/>
<path d="m560 150-40-40" color="#000000" enable-background="new" opacity=".3" style="paint-order:normal"/>
<path d="m580 100-60 10" color="#000000" enable-background="new" opacity=".3" style="paint-order:normal"/>
<path d="m580 100-60-40" color="#000000" enable-background="new" opacity=".3" style="paint-order:normal"/>
<path d="m600 40-80 20" color="#000000" enable-background="new" opacity=".3" style="paint-order:normal"/>
<path d="m600 40h70" color="#000000" enable-background="new" opacity=".3" style="paint-order:normal"/>
<path d="m680 90-10-50" color="#000000" enable-background="new" opacity=".3" style="paint-order:normal"/>
<path d="m680 90-50 60" color="#000000" enable-background="new" opacity=".3" style="paint-order:normal"/>
<path d="m680 90 20 60" color="#000000" enable-background="new" opacity=".3" style="paint-order:normal"/>
<path d="m730 100-30 50" color="#000000" enable-background="new" opacity=".3" style="paint-order:normal"/>
<path d="m730 100 30-30" color="#000000" enable-background="new" opacity=".3" style="paint-order:normal"/>
<path d="m750 30 10 40" color="#000000" enable-background="new" opacity=".3" style="paint-order:normal"/>
<path d="m750 30h-50" color="#000000" enable-background="new" opacity=".3" style="paint-order:normal"/>
<path d="m730 100 20 30" color="#000000" enable-background="new" opacity=".3" style="paint-order:normal"/>
<path d="m770 150-20-20" color="#000000" enable-background="new" opacity=".3" style="paint-order:normal"/>
<path d="m770 150 50-60" color="#000000" enable-background="new" opacity=".3" style="paint-order:normal"/>
<path d="m750 30 60-10" color="#000000" enable-background="new" opacity=".3" style="paint-order:normal"/>
<path d="m700 30-30 10" color="#000000" enable-background="new" opacity=".3" style="paint-order:normal"/>
<path d="m700 30-20-30" color="#000000" enable-background="new" opacity=".3" style="paint-order:normal"/>
<path d="m650-30 30 30" color="#000000" enable-background="new" opacity=".3" style="paint-order:normal"/>
<path d="m650-30-90 20" color="#000000" enable-background="new" opacity=".3" style="paint-order:normal"/>
<path d="m510-40 50 30" color="#000000" enable-background="new" opacity=".3" style="paint-order:normal"/>
<path d="m510-40-64.589 47.248" color="#000000" enable-background="new" opacity=".3" style="paint-order:normal"/>
<path d="m580 100 50 50" color="#000000" enable-background="new" opacity=".3" style="paint-order:normal"/>
<path d="m560 150h70" color="#000000" enable-background="new" opacity=".3" style="paint-order:normal"/>
<path d="m490 150 30-40" color="#000000" enable-background="new" opacity=".3" style="paint-order:normal"/>
<path d="m470 60-40-30" color="#000000" enable-background="new" opacity=".3" style="paint-order:normal"/>
<path d="m510-40 10 100" color="#000000" enable-background="new" opacity=".3" style="paint-order:normal"/>
<path d="m600 40-40-50" color="#000000" enable-background="new" opacity=".3" style="paint-order:normal"/>
<path d="m810 20-130-20" color="#000000" enable-background="new" opacity=".3" style="paint-order:normal"/>
<path d="m760 70-10 60" color="#000000" enable-background="new" opacity=".3" style="paint-order:normal"/>
<path d="m820 90-10-70" color="#000000" enable-background="new" opacity=".3" style="paint-order:normal"/>
<path d="m470 60v100" color="#000000" enable-background="new" opacity=".3" style="paint-order:normal"/>
<path d="m770 150h-70" color="#000000" enable-background="new" opacity=".3" style="paint-order:normal"/>
<path d="m280 100 60 30" color="#000000" enable-background="new" opacity=".3" style="paint-order:normal"/>
</g>
</g>
</svg>
