<?xml version="1.0" encoding="UTF-8"?>
<svg version="1.1" viewBox="0 0 510 810" xmlns="http://www.w3.org/2000/svg" xmlns:cc="http://creativecommons.org/ns#" xmlns:dc="http://purl.org/dc/elements/1.1/" xmlns:rdf="http://www.w3.org/1999/02/22-rdf-syntax-ns#">
<metadata>
<rdf:RDF>
<cc:Work rdf:about="">
<dc:format>image/svg+xml</dc:format>
<dc:type rdf:resource="http://purl.org/dc/dcmitype/StillImage"/>
<dc:title/>
</cc:Work>
</rdf:RDF>
</metadata>
<defs>
<clipPath id="a">
<path d="m19 305v8h-7v8.5h14v-16.5z" color="#000000" fill="#458f97" style="paint-order:normal"/>
</clipPath>
</defs>
<g transform="translate(0,310)">
<text x="144.53937" y="762.03394" color="#000000" fill="#37384c" font-family="'IBM Plex Sans'" font-size="11px" letter-spacing="0px" stroke-width="1px" word-spacing="0px" style="line-height:1.39999998;text-decoration-line:none;text-indent:0;text-transform:none" xml:space="preserve"><tspan x="144.53937" y="772.81396" font-size="11px" style="line-height:1.39999998"/></text>
<g transform="translate(-20,-865)">
<path d="m100 635c4.986 0 9 4.014 9 9s-4.014 9-9 9h-22c-2.1628 0-4.1407-0.75729-5.6894-2.0195-1.8732 1.2335-4.073 1.9465-6.3106 2.0195 1.8117-1.1086 3-3.1397 3-5.3066v-3.6934c0-4.986 4.014-9 9-9z" color="#000000" fill="#aa69ac" style="paint-order:normal"/>
<path d="m70 600c4.986 0 9 4.014 9 9s-4.014 9-9 9h-22c-2.1628 0-4.1407-0.75729-5.6894-2.0195-1.8732 1.2335-4.073 1.9465-6.3106 2.0195 1.8117-1.1086 3-3.1397 3-5.3066v-3.6934c0-4.986 4.014-9 9-9z" color="#000000" fill="#aa69ac" style="paint-order:normal"/>
<path d="m100 560c4.986 0 9 4.014 9 9s-4.014 9-9 9h-22c-2.1628 0-4.1407-0.75729-5.6894-2.0195-1.8732 1.2335-4.073 1.9465-6.3106 2.0195 1.8117-1.1086 3-3.1397 3-5.3066v-3.6934c0-4.986 4.014-9 9-9z" color="#000000" fill="#aa69ac" style="paint-order:normal"/>
<path d="m120 604.5h140" color="#000000" enable-background="new" fill="none" opacity=".3" stroke="#37384c" stroke-width=".6" style="paint-order:normal"/>
<path d="m310 595-50 10" color="#000000" enable-background="new" fill="none" opacity=".3" stroke="#37384c" stroke-width=".6" style="paint-order:normal"/>
<path d="m305 615-45-10" color="#000000" enable-background="new" fill="none" opacity=".3" stroke="#37384c" stroke-width=".6" style="paint-order:normal"/>
<path d="m120 605-10 45" color="#000000" enable-background="new" fill="none" opacity=".3" stroke="#37384c" stroke-width=".6" style="paint-order:normal"/>
<path d="m120 605-50-15" color="#000000" enable-background="new" fill="none" opacity=".3" stroke="#37384c" stroke-width=".6" style="paint-order:normal"/>
<path d="m120 605-45 25" color="#000000" enable-background="new" fill="none" opacity=".3" stroke="#37384c" stroke-width=".6" style="paint-order:normal"/>
<g transform="rotate(-5.5868 2196.2 842.67)">
<path d="m103 404h50" color="#000000" enable-background="new" fill="none" stroke="#37384c" stroke-width="2" style="paint-order:normal"/>
<g transform="translate(29,89.05)">
<path d="m83 310.5 23 1e-5" color="#000000" fill="none" stroke="#37384c" stroke-width=".6" style="paint-order:normal"/>
<path d="m101 309.05v1.8l10 0.1z" color="#000000" fill="#37384c" style="paint-order:normal"/>
</g>
</g>
<g transform="rotate(-54.51 331.59 536.53)">
<path d="m103 404h50" color="#000000" enable-background="new" fill="none" stroke="#37384c" stroke-width="2" style="paint-order:normal"/>
<g transform="translate(29,89.05)">
<path d="m83 310.5 23 1e-5" color="#000000" fill="none" stroke="#37384c" stroke-width=".6" style="paint-order:normal"/>
<path d="m101 309.05v1.8l10 0.1z" color="#000000" fill="#37384c" style="paint-order:normal"/>
</g>
</g>
<g transform="rotate(43.243 -117.06 462.87)">
<path d="m103 404h50" color="#000000" enable-background="new" fill="none" stroke="#37384c" stroke-width="2" style="paint-order:normal"/>
<g transform="translate(29,89.05)">
<path d="m83 310.5 23 1e-5" color="#000000" fill="none" stroke="#37384c" stroke-width=".6" style="paint-order:normal"/>
<path d="m101 309.05v1.8l10 0.1z" color="#000000" fill="#37384c" style="paint-order:normal"/>
</g>
</g>
<path d="m260 605-10.282 40.882" color="#000000" enable-background="new" fill="none" stroke="#37384c" stroke-width="2" style="paint-order:normal"/>
<path d="m260 605 40.276 20.102" color="#000000" enable-background="new" fill="none" stroke="#37384c" stroke-width="2" style="paint-order:normal"/>
<path d="m260 605 37.894-23.576" color="#000000" enable-background="new" fill="none" stroke="#37384c" stroke-width="2" style="paint-order:normal"/>
<circle cx="260" cy="605" r="2.5" color="#000000" enable-background="new" fill="#242651" style="paint-order:normal"/>
<circle cx="120" cy="605" r="2.5" color="#000000" enable-background="new" fill="#242651" style="paint-order:normal"/>
<path d="m120 885h140" color="#000000" enable-background="new" fill="none" stroke="#f7b730" stroke-width="2" style="paint-order:normal"/>
<path d="m310 875-50 10" color="#000000" enable-background="new" fill="none" opacity=".3" stroke="#37384c" stroke-width=".6" style="paint-order:normal"/>
<path d="m305 895-45-10" color="#000000" enable-background="new" fill="none" opacity=".3" stroke="#37384c" stroke-width=".6" style="paint-order:normal"/>
<path d="m120 885-10 45" color="#000000" enable-background="new" fill="none" stroke="#f7b730" stroke-width="2" style="paint-order:normal"/>
<path d="m120 885-50-15" color="#000000" enable-background="new" fill="none" stroke="#f7b730" stroke-width="2" style="paint-order:normal"/>
<path d="m120 885-45 25" color="#000000" enable-background="new" fill="none" opacity=".3" stroke="#37384c" stroke-width=".6" style="paint-order:normal"/>
<path d="m70.238 889.87 49.762-4.8677" color="#000000" enable-background="new" fill="none" stroke="#37384c" stroke-width="2" style="paint-order:normal"/>
<path d="m90.972 925.71 29.028-40.711" color="#000000" enable-background="new" fill="none" stroke="#37384c" stroke-width="2" style="paint-order:normal"/>
<path d="m83.577 850.75 36.423 34.254" color="#000000" enable-background="new" fill="none" stroke="#37384c" stroke-width="2" style="paint-order:normal"/>
<path d="m260 885-10.282 40.882" color="#000000" enable-background="new" fill="none" stroke="#37384c" stroke-width="2" style="paint-order:normal"/>
<path d="m260 885 40.276 20.102" color="#000000" enable-background="new" fill="none" stroke="#37384c" stroke-width="2" style="paint-order:normal"/>
<path d="m260 885 37.894-23.576" color="#000000" enable-background="new" fill="none" stroke="#37384c" stroke-width="2" style="paint-order:normal"/>
<circle cx="260" cy="885" r="2.5" color="#000000" enable-background="new" fill="#242651" style="paint-order:normal"/>
<g transform="translate(-245,560)">
<path d="m445 280c4.986 0 9 4.014 9 9v17c0 4.986-4.014 9-9 9h-67c-2.1628 0-4.1407-0.7573-5.6894-2.0195-1.8732 1.2335-4.073 1.9465-6.3106 2.0195 1.8117-1.1086 3-3.1397 3-5.3066v-20.693c0-4.986 4.014-9 9-9z" color="#000000" fill="#ebf0f5" style="paint-order:normal"/>
<text x="379.28" y="294.85599" color="#000000" fill="#37384c" font-family="'IBM Plex Sans'" font-size="11px" letter-spacing="0px" stroke-width="1px" word-spacing="0px" style="text-decoration-line:none;text-indent:0;text-transform:none" xml:space="preserve"><tspan x="379.28" y="294.85599" font-size="12px">I have seen:</tspan></text>
<path d="m395.5 301c2.493 0 4.5 2.007 4.5 4.5s-2.007 4.5-4.5 4.5h-11c-1.0814 0-2.0704-0.37865-2.8447-1.0098-0.93657 0.61674-2.0365 0.97325-3.1553 1.0098 0.90586-0.55431 1.5-1.5698 1.5-2.6533v-1.8467c0-2.493 2.007-4.5 4.5-4.5z" color="#000000" fill="#aa69ac" style="paint-order:normal"/>
</g>
<g transform="translate(71,570)">
<path d="m78 310.5 28 1e-5" color="#000000" fill="none" stroke="#37384c" stroke-width=".6" style="paint-order:normal"/>
<path d="m101 309.05v1.8l10 0.1z" color="#000000" fill="#37384c" style="paint-order:normal"/>
</g>
<circle cx="120" cy="885" r="2.5" color="#000000" enable-background="new" fill="#242651" style="paint-order:normal"/>
</g>
<g transform="translate(-20,-855)">
<path d="m120 1014.5h140" color="#000000" enable-background="new" fill="none" opacity=".3" stroke="#37384c" stroke-width=".6" style="paint-order:normal"/>
<path d="m310 1005-50 10" color="#000000" enable-background="new" fill="none" opacity=".3" stroke="#37384c" stroke-width=".6" style="paint-order:normal"/>
<path d="m305 1025-45-10" color="#000000" enable-background="new" fill="none" opacity=".3" stroke="#37384c" stroke-width=".6" style="paint-order:normal"/>
<path d="m120 1015-10 45" color="#000000" enable-background="new" fill="none" opacity=".3" stroke="#37384c" stroke-width=".6" style="paint-order:normal"/>
<path d="m120 1015-50-15" color="#000000" enable-background="new" fill="none" opacity=".3" stroke="#37384c" stroke-width=".6" style="paint-order:normal"/>
<path d="m120 1015-45 25" color="#000000" enable-background="new" fill="none" opacity=".3" stroke="#37384c" stroke-width=".6" style="paint-order:normal"/>
<path d="m70.238 1019.9 49.762-4.8677" color="#000000" enable-background="new" fill="none" stroke="#37384c" stroke-width="2" style="paint-order:normal"/>
<path d="m90.972 1055.7 29.028-40.711" color="#000000" enable-background="new" fill="none" stroke="#37384c" stroke-width="2" style="paint-order:normal"/>
<path d="m83.577 980.75 36.423 34.254" color="#000000" enable-background="new" fill="none" stroke="#37384c" stroke-width="2" style="paint-order:normal"/>
<path d="m260 1015-10.282 40.882" color="#000000" enable-background="new" fill="none" stroke="#37384c" stroke-width="2" style="paint-order:normal"/>
<path d="m260 1015 40.276 20.102" color="#000000" enable-background="new" fill="none" stroke="#37384c" stroke-width="2" style="paint-order:normal"/>
<path d="m260 1015 37.894-23.576" color="#000000" enable-background="new" fill="none" stroke="#37384c" stroke-width="2" style="paint-order:normal"/>
<circle cx="260" cy="1015" r="2.5" color="#000000" enable-background="new" fill="#242651" style="paint-order:normal"/>
<g transform="matrix(-1,0,0,1,305,700)">
<path d="m78 310.5 28 1e-5" color="#000000" fill="none" stroke="#37384c" stroke-width=".6" style="paint-order:normal"/>
<path d="m101 309.05v1.8l10 0.1z" color="#000000" fill="#37384c" style="paint-order:normal"/>
</g>
<g transform="translate(-203,690)">
<path d="m378 280c-4.986 0-9 4.014-9 9v17c0 4.986 4.014 9 9 9h70c2.1628 0 4.1407-0.7573 5.6894-2.0195 1.8732 1.2335 4.073 1.9465 6.3106 2.0195-1.8117-1.1086-3-3.1397-3-5.3066v-20.693c0-4.986-4.014-9-9-9z" color="#000000" fill="#ebf0f5" style="paint-order:normal"/>
<text x="379.28" y="294.85599" color="#000000" fill="#37384c" font-family="'IBM Plex Sans'" font-size="11px" letter-spacing="0px" stroke-width="1px" word-spacing="0px" style="text-decoration-line:none;text-indent:0;text-transform:none" xml:space="preserve"><tspan x="379.28" y="294.85599" font-size="12px">Please send:</tspan></text>
<path d="m395.5 301c2.493 0 4.5 2.007 4.5 4.5s-2.007 4.5-4.5 4.5h-11c-1.0814 0-2.0704-0.37865-2.8447-1.0098-0.93657 0.61674-2.0365 0.97325-3.1553 1.0098 0.90586-0.55431 1.5-1.5698 1.5-2.6533v-1.8467c0-2.493 2.007-4.5 4.5-4.5z" color="#000000" fill="#aa69ac" style="paint-order:normal"/>
</g>
<circle cx="120" cy="1015" r="2.5" color="#000000" enable-background="new" fill="#242651" style="paint-order:normal"/>
</g>
<g transform="translate(-20 -850)">
<path d="m200 1122c4.986 0 9 4.014 9 9s-4.014 9-9 9h-22c-2.1628 0-4.1407-0.7573-5.6894-2.0195-1.8732 1.2334-4.073 1.9465-6.3106 2.0195 1.8117-1.1086 3-3.1397 3-5.3066v-3.6934c0-4.986 4.014-9 9-9z" color="#000000" fill="#aa69ac" style="paint-order:normal"/>
<path d="m120 1149.5h140" color="#000000" enable-background="new" fill="none" opacity=".3" stroke="#37384c" stroke-width=".6" style="paint-order:normal"/>
<path d="m310 1140-50 10" color="#000000" enable-background="new" fill="none" opacity=".3" stroke="#37384c" stroke-width=".6" style="paint-order:normal"/>
<path d="m305 1160-45-10" color="#000000" enable-background="new" fill="none" opacity=".3" stroke="#37384c" stroke-width=".6" style="paint-order:normal"/>
<path d="m120 1150-10 45" color="#000000" enable-background="new" fill="none" opacity=".3" stroke="#37384c" stroke-width=".6" style="paint-order:normal"/>
<path d="m120 1150-50-15" color="#000000" enable-background="new" fill="none" opacity=".3" stroke="#37384c" stroke-width=".6" style="paint-order:normal"/>
<path d="m120 1150-45 25" color="#000000" enable-background="new" fill="none" opacity=".3" stroke="#37384c" stroke-width=".6" style="paint-order:normal"/>
<path d="m70.238 1154.9 49.762-4.8677" color="#000000" enable-background="new" fill="none" stroke="#37384c" stroke-width="2" style="paint-order:normal"/>
<path d="m90.972 1190.7 29.028-40.711" color="#000000" enable-background="new" fill="none" stroke="#37384c" stroke-width="2" style="paint-order:normal"/>
<path d="m83.577 1115.7 36.423 34.254" color="#000000" enable-background="new" fill="none" stroke="#37384c" stroke-width="2" style="paint-order:normal"/>
<path d="m260 1150-10.282 40.882" color="#000000" enable-background="new" fill="none" stroke="#37384c" stroke-width="2" style="paint-order:normal"/>
<path d="m260 1150 40.276 20.102" color="#000000" enable-background="new" fill="none" stroke="#37384c" stroke-width="2" style="paint-order:normal"/>
<path d="m260 1150 37.894-23.576" color="#000000" enable-background="new" fill="none" stroke="#37384c" stroke-width="2" style="paint-order:normal"/>
<circle cx="260" cy="1150" r="2.5" color="#000000" enable-background="new" fill="#242651" style="paint-order:normal"/>
<g transform="translate(95,835)">
<path d="m78 310.5 28 1e-5" color="#000000" fill="none" stroke="#37384c" stroke-width=".6" style="paint-order:normal"/>
<path d="m101 309.05v1.8l10 0.1z" color="#000000" fill="#37384c" style="paint-order:normal"/>
</g>
<circle cx="120" cy="1150" r="2.5" color="#000000" enable-background="new" fill="#242651" style="paint-order:normal"/>
</g>
<g transform="translate(-20 -835.5)">
<path d="m260 1310.5c4.986 0 9 4.014 9 9s-4.014 9-9 9h-22c-2.1628 0-4.1407-0.7573-5.6894-2.0195-1.8732 1.2334-4.073 1.9465-6.3106 2.0195 1.8117-1.1086 3-3.1397 3-5.3066v-3.6934c0-4.986 4.014-9 9-9z" color="#000000" fill="#aa69ac" style="paint-order:normal"/>
<path d="m320 1290.5c4.986 0 9 4.014 9 9s-4.014 9-9 9h-22c-2.1628 0-4.1407-0.7573-5.6894-2.0195-1.8732 1.2334-4.073 1.9465-6.3106 2.0195 1.8117-1.1086 3-3.1397 3-5.3066v-3.6934c0-4.986 4.014-9 9-9z" color="#000000" fill="#aa69ac" style="paint-order:normal"/>
<path d="m305 1240.5c4.986 0 9 4.014 9 9s-4.014 9-9 9h-22c-2.1628 0-4.1407-0.7573-5.6894-2.0195-1.8732 1.2334-4.073 1.9465-6.3106 2.0195 1.8117-1.1086 3-3.1397 3-5.3066v-3.6934c0-4.986 4.014-9 9-9z" color="#000000" fill="#aa69ac" style="paint-order:normal"/>
<path d="m120 1275h140" color="#000000" enable-background="new" fill="none" opacity=".3" stroke="#37384c" stroke-width=".6" style="paint-order:normal"/>
<path d="m310 1265.5-50 10" color="#000000" enable-background="new" fill="none" opacity=".3" stroke="#37384c" stroke-width=".6" style="paint-order:normal"/>
<path d="m305 1285.5-45-10" color="#000000" enable-background="new" fill="none" opacity=".3" stroke="#37384c" stroke-width=".6" style="paint-order:normal"/>
<path d="m120 1275.5-10 45" color="#000000" enable-background="new" fill="none" opacity=".3" stroke="#37384c" stroke-width=".6" style="paint-order:normal"/>
<path d="m120 1275.5-50-15" color="#000000" enable-background="new" fill="none" opacity=".3" stroke="#37384c" stroke-width=".6" style="paint-order:normal"/>
<path d="m120 1275.5-45 25" color="#000000" enable-background="new" fill="none" opacity=".3" stroke="#37384c" stroke-width=".6" style="paint-order:normal"/>
<path d="m70.238 1280.4 49.762-4.8677" color="#000000" enable-background="new" fill="none" stroke="#37384c" stroke-width="2" style="paint-order:normal"/>
<path d="m90.972 1316.2 29.028-40.711" color="#000000" enable-background="new" fill="none" stroke="#37384c" stroke-width="2" style="paint-order:normal"/>
<path d="m83.577 1241.2 36.423 34.254" color="#000000" enable-background="new" fill="none" stroke="#37384c" stroke-width="2" style="paint-order:normal"/>
<g transform="matrix(-.2439 .9698 .9698 .2439 -106.68 1077.1)">
<path d="m103 404h42.155" color="#000000" enable-background="new" fill="none" stroke="#37384c" stroke-width="2" style="paint-order:normal"/>
<g transform="translate(26.904 88.997)">
<path d="m83 310.5 23 1e-5" color="#000000" fill="none" stroke="#37384c" stroke-width=".6" style="paint-order:normal"/>
<path d="m101 309.05v1.8l10 0.1z" color="#000000" fill="#37384c" style="paint-order:normal"/>
</g>
</g>
<g transform="rotate(26.524 -1667.3 1172.8)">
<path d="m103 404h45.014" color="#000000" enable-background="new" fill="none" stroke="#37384c" stroke-width="2" style="paint-order:normal"/>
<g transform="translate(31.391 89.364)">
<path d="m83 310.5 23 1e-5" color="#000000" fill="none" stroke="#37384c" stroke-width=".6" style="paint-order:normal"/>
<path d="m101 309.05v1.8l10 0.1z" color="#000000" fill="#37384c" style="paint-order:normal"/>
</g>
</g>
<g transform="rotate(-31.888 1706.8 564.98)">
<path d="m103 404h44.629" color="#000000" enable-background="new" fill="none" stroke="#37384c" stroke-width="2" style="paint-order:normal"/>
<g transform="translate(28.735 89.314)">
<path d="m83 310.5 23 1e-5" color="#000000" fill="none" stroke="#37384c" stroke-width=".6" style="paint-order:normal"/>
<path d="m101 309.05v1.8l10 0.1z" color="#000000" fill="#37384c" style="paint-order:normal"/>
</g>
</g>
<circle cx="260" cy="1275.5" r="2.5" color="#000000" enable-background="new" fill="#242651" style="paint-order:normal"/>
<circle cx="120" cy="1275.5" r="2.5" color="#000000" enable-background="new" fill="#242651" style="paint-order:normal"/>
</g>
<g transform="translate(-20,-890)">
<path d="m120 770h140" color="#000000" enable-background="new" fill="none" stroke="#f7b730" stroke-width="2" style="paint-order:normal"/>
<path d="m310 760-50 10" color="#000000" enable-background="new" fill="none" opacity=".3" stroke="#37384c" stroke-width=".6" style="paint-order:normal"/>
<path d="m305 780-45-10" color="#000000" enable-background="new" fill="none" opacity=".3" stroke="#37384c" stroke-width=".6" style="paint-order:normal"/>
<path d="m120 770-10 45" color="#000000" enable-background="new" fill="none" stroke="#f7b730" stroke-width="2" style="paint-order:normal"/>
<path d="m120 770-50-15" color="#000000" enable-background="new" fill="none" stroke="#f7b730" stroke-width="2" style="paint-order:normal"/>
<path d="m120 770-45 25" color="#000000" enable-background="new" fill="none" opacity=".3" stroke="#37384c" stroke-width=".6" style="paint-order:normal"/>
<path d="m70.238 774.87 49.762-4.8677" color="#000000" enable-background="new" fill="none" stroke="#37384c" stroke-width="2" style="paint-order:normal"/>
<path d="m90.972 810.71 29.028-40.711" color="#000000" enable-background="new" fill="none" stroke="#37384c" stroke-width="2" style="paint-order:normal"/>
<path d="m83.577 735.75 36.423 34.254" color="#000000" enable-background="new" fill="none" stroke="#37384c" stroke-width="2" style="paint-order:normal"/>
<path d="m260 770-10.282 40.882" color="#000000" enable-background="new" fill="none" stroke="#37384c" stroke-width="2" style="paint-order:normal"/>
<path d="m260 770 40.276 20.102" color="#000000" enable-background="new" fill="none" stroke="#37384c" stroke-width="2" style="paint-order:normal"/>
<path d="m260 770 37.894-23.576" color="#000000" enable-background="new" fill="none" stroke="#37384c" stroke-width="2" style="paint-order:normal"/>
<circle cx="260" cy="770" r="2.5" color="#000000" enable-background="new" fill="#242651" style="paint-order:normal"/>
<g transform="matrix(.6383 0 0 .6383 -39.255 609.63)" stroke-width="1.5667">
<path d="m290 182.89-21.998 12.676-1.502 2.5976v25.537l22 12.701h3l22-12.701v-25.537l-1.502-2.5976z" color="#000000" fill="#fff" style="paint-order:normal"/>
<path transform="translate(0,100)" d="m313.5 98.164-22 12.701v25.537l22-12.701z" color="#000000" fill="#37384c" style="paint-order:normal"/>
<ellipse transform="matrix(.86603 -.5 0 1 0 0)" cx="349.3" cy="391.93" rx="2.8868" ry="2.5" color="#000000" fill="#fff" style="paint-order:normal"/>
<ellipse transform="matrix(.86603 -.5 0 1 0 0)" cx="356.23" cy="384.93" rx="2.8868" ry="2.5" color="#000000" fill="#fff" style="paint-order:normal"/>
<ellipse transform="matrix(.86603 -.5 0 1 0 0)" cx="342.37" cy="398.93" rx="2.8868" ry="2.5" color="#000000" fill="#fff" style="paint-order:normal"/>
<path transform="translate(0,100)" d="m266.5 98.164v25.537l22 12.701v-25.537z" color="#000000" fill="#37384c" style="paint-order:normal"/>
<path d="m280 218.73a3.3238 1.8804 53.051 0 1-2.5 1.0566 3.3238 1.8804 53.051 0 1-2.5-3.9434 3.3238 1.8804 53.051 0 1 2.5-1.0566 3.3238 1.8804 53.051 0 1 2.5 3.9434z" color="#000000" fill="#fff" style="paint-order:normal"/>
<path transform="translate(0,100)" d="m290 82.891-21.998 12.676 21.998 12.676 21.998-12.676z" color="#000000" fill="#37384c" style="paint-order:normal"/>
<path d="m278.5 194.13a3.5355 2.0375 0 0 1 5 0 3.5355 2.0375 0 0 1 0 2.8815 3.5355 2.0375 0 0 1-5 0 3.5355 2.0375 0 0 1 0-2.8815z" color="#000000" fill="#fff" style="paint-order:normal"/>
<path d="m296.5 194.13a3.5355 2.0375 0 0 1 5 0 3.5355 2.0375 0 0 1 0 2.8815 3.5355 2.0375 0 0 1-5 0 3.5355 2.0375 0 0 1 0-2.8815z" color="#000000" fill="#fff" style="paint-order:normal"/>
<path d="m300 218.73a1.8804 3.3238 36.949 0 0 2.5 1.0566 1.8804 3.3238 36.949 0 0 2.5-3.9434 1.8804 3.3238 36.949 0 0-2.5-1.0566 1.8804 3.3238 36.949 0 0-2.5 3.9434z" color="#000000" fill="none" style="paint-order:normal"/>
</g>
<g transform="matrix(2,0,0,2,75,100)" stroke-width=".5">
<circle cx="17.5" cy="312.5" r="7.5" color="#000000" fill="#fff" stroke="#37384c" stroke-width="1" style="paint-order:normal"/>
<g clip-path="url(#a)">
<path d="m17.354 306.5a6 6 0 0 1 5.7956 4.4471 6 6 0 0 1-2.7956 6.7491 6 6 0 0 1-7.2426-0.95351l4.2426-4.2426z" color="#000000" fill="#f7b730" style="paint-order:normal"/>
</g>
<path d="m17 302c-0.554 0-1 0.446-1 1v2h3v-2c0-0.554-0.446-1-1-1z" color="#000000" fill="#37384c" style="paint-order:normal"/>
<path d="m24.633 304.66 0.70711 0.7071c0.39174 0.39174 0.39174 1.0225 0 1.4142l-0.35355 0.35355-2.1213-2.1213 0.35355-0.35355c0.39174-0.39174 1.0225-0.39174 1.4142 0z" color="#000000" fill="#37384c" style="paint-order:normal"/>
<path d="m17.492 307.49c-0.27614 4e-3 -0.49651 0.23167-0.49219 0.50781v4.1348c-0.30916 0.17849-0.49972 0.50825-0.5 0.86523 9.79e-4 0.35628 0.19145 0.68514 0.5 0.86328v0.63672c-0.0096 0.67616 1.0096 0.67616 1 0v-0.63477c0.30916-0.17849 0.49972-0.50825 0.5-0.86523-9.79e-4 -0.35628-0.19145-0.68514-0.5-0.86328v-4.1367c0.0044-0.28227-0.22555-0.51223-0.50781-0.50781z" color="#000000" fill="#37384c" stroke="#fff" stroke-width="2" style="paint-order:stroke fill markers"/>
</g>
<circle cx="120" cy="770" r="2.5" color="#000000" enable-background="new" fill="#242651" style="paint-order:normal"/>
</g>
<text x="340" y="-270" color="#000000" fill="#37384c" font-family="'IBM Plex Sans'" font-size="12px" letter-spacing="0px" stroke-width="1px" word-spacing="0px" style="text-decoration-line:none;text-indent:0;text-transform:none" xml:space="preserve"><tspan x="340" y="-270">Peer receives a</tspan><tspan x="340" y="-255">message from their</tspan><tspan x="340" y="-240">full-message peers</tspan></text>
<text x="339.91599" y="-130" color="#000000" fill="#37384c" font-family="'IBM Plex Sans'" font-size="12px" letter-spacing="0px" stroke-width="1px" word-spacing="0px" style="text-decoration-line:none;text-indent:0;text-transform:none" xml:space="preserve"><tspan x="339.91599" y="-130">Peer waits until heartbeat</tspan><tspan x="339.91599" y="-115">and selects random</tspan><tspan x="339.91599" y="-100">metadata-only peers</tspan></text>
<text x="339.832" y="10" color="#000000" fill="#37384c" font-family="'IBM Plex Sans'" font-size="12px" letter-spacing="0px" stroke-width="1px" word-spacing="0px" style="text-decoration-line:none;text-indent:0;text-transform:none" xml:space="preserve"><tspan x="339.832" y="10">Newly received message</tspan><tspan x="339.832" y="25">is gossiped to metadata-only</tspan><tspan x="339.832" y="40">peers</tspan></text>
<text x="339.82001" y="150" color="#000000" fill="#37384c" font-family="'IBM Plex Sans'" font-size="12px" letter-spacing="0px" stroke-width="1px" word-spacing="0px" style="text-decoration-line:none;text-indent:0;text-transform:none" xml:space="preserve"><tspan x="339.82001" y="150">Peer notices that it does</tspan><tspan x="339.82001" y="165">not have the gossiped</tspan><tspan x="339.82001" y="180">message and requests it</tspan></text>
<text x="339.436" y="300" color="#000000" fill="#37384c" font-family="'IBM Plex Sans'" font-size="12px" letter-spacing="0px" stroke-width="1px" word-spacing="0px" style="text-decoration-line:none;text-indent:0;text-transform:none" xml:space="preserve"><tspan x="339.436" y="300">Requested message</tspan><tspan x="339.436" y="315">is transferred</tspan></text>
<text x="339.436" y="430" color="#000000" fill="#37384c" font-family="'IBM Plex Sans'" font-size="12px" letter-spacing="0px" stroke-width="1px" word-spacing="0px" style="text-decoration-line:none;text-indent:0;text-transform:none" xml:space="preserve"><tspan x="339.436" y="430">Newly received</tspan><tspan x="339.436" y="445">message is broadcast</tspan><tspan x="339.436" y="460">to full-content peers</tspan></text>
</g>
</svg>
