<?xml version="1.0" encoding="UTF-8"?>
<svg version="1.1" viewBox="0 0 420 210" xmlns="http://www.w3.org/2000/svg" xmlns:cc="http://creativecommons.org/ns#" xmlns:dc="http://purl.org/dc/elements/1.1/" xmlns:rdf="http://www.w3.org/1999/02/22-rdf-syntax-ns#">
<metadata>
<rdf:RDF>
<cc:Work rdf:about="">
<dc:format>image/svg+xml</dc:format>
<dc:type rdf:resource="http://purl.org/dc/dcmitype/StillImage"/>
<dc:title/>
</cc:Work>
</rdf:RDF>
</metadata>
<g transform="translate(0,-290)">
<text x="284.53937" y="737.03394" color="#000000" fill="#37384c" font-family="'IBM Plex Sans'" font-size="11px" letter-spacing="0px" stroke-width="1px" word-spacing="0px" style="line-height:1.39999998;text-decoration-line:none;text-indent:0;text-transform:none" xml:space="preserve"><tspan x="284.53937" y="747.81396" font-size="11px" style="line-height:1.39999998"/></text>
<circle cx="360" cy="470" r="2.5" color="#000000" enable-background="new" fill="#242651" style="paint-order:normal"/>
<text x="380" y="475" color="#000000" fill="#37384c" font-family="'IBM Plex Sans'" font-size="11px" letter-spacing="0px" stroke-width="1px" word-spacing="0px" style="text-decoration-line:none;text-indent:0;text-transform:none" xml:space="preserve"><tspan x="380" y="475" font-size="12px">Peer</tspan></text>
<rect x="350" y="483" width="20" height="15" rx="5" ry="5" color="#000000" enable-background="new" fill="#ebf0f5" style="paint-order:normal"/>
<text x="380" y="495" color="#000000" fill="#37384c" font-family="'IBM Plex Sans'" font-size="11px" letter-spacing="0px" stroke-width="1px" word-spacing="0px" style="text-decoration-line:none;text-indent:0;text-transform:none" xml:space="preserve"><tspan x="380" y="495" font-size="12px">Topic</tspan></text>
<path d="m56.295 308.61c46.024-19.725 75.799-4.0045 106.15-3.6041 28.539 0.37658 58.156-15.389 84.801-7.3385 54.979 16.611 60.666 59.257 48.147 100.67-6.891 22.797-26.388 30.807-45.788 45.461-15.843 11.968-28.706 33.105-58.714 31.137-66.75-4.377-85.352 24.074-135.69-9.8483s-88.21-118.21 1.0943-156.48z" color="#000000" fill="#ebf0f5" style="paint-order:normal"/>
<circle cx="60" cy="350" r="2.5" color="#000000" enable-background="new" fill="#242651" style="paint-order:normal"/>
<circle cx="40" cy="390" r="2.5" color="#000000" enable-background="new" fill="#242651" style="paint-order:normal"/>
<circle cx="120" cy="350" r="2.5" color="#000000" enable-background="new" fill="#242651" style="paint-order:normal"/>
<circle cx="110" cy="390" r="2.5" color="#000000" enable-background="new" fill="#242651" style="paint-order:normal"/>
<circle cx="125" cy="450" r="2.5" color="#000000" enable-background="new" fill="#242651" style="paint-order:normal"/>
<circle cx="205" cy="450" r="2.5" color="#000000" enable-background="new" fill="#242651" style="paint-order:normal"/>
<circle cx="175" cy="375" r="2.5" color="#000000" enable-background="new" fill="#242651" style="paint-order:normal"/>
<circle cx="235" cy="330" r="2.5" color="#000000" enable-background="new" fill="#242651" style="paint-order:normal"/>
<circle cx="245" cy="395" r="2.5" color="#000000" enable-background="new" fill="#242651" style="paint-order:normal"/>
<circle cx="170" cy="435" r="2.5" color="#000000" enable-background="new" fill="#242651" style="paint-order:normal"/>
<circle cx="175" cy="330" r="2.5" color="#000000" enable-background="new" fill="#242651" style="paint-order:normal"/>
<circle cx="70" cy="445" r="2.5" color="#000000" enable-background="new" fill="#242651" style="paint-order:normal"/>
<text x="320" y="400" color="#000000" fill="#37384c" font-family="'IBM Plex Sans'" font-size="12px" letter-spacing="0px" stroke-width="1px" word-spacing="0px" style="text-decoration-line:none;text-indent:0;text-transform:none" xml:space="preserve"><tspan x="320" y="400">Peers subscribed</tspan><tspan x="320" y="415">to topic</tspan></text>
<path d="m238.89 333.16 76.109 61.838" color="#000000" fill="none" stroke="#37384c" stroke-width=".6" style="paint-order:normal"/>
<path d="m250.04 395.5h64.962" color="#000000" fill="none" stroke="#37384c" stroke-width=".6" style="paint-order:normal"/>
<path d="m209.5 447.75 105.5-52.75" color="#000000" fill="none" stroke="#37384c" stroke-width=".6" style="paint-order:normal"/>
</g>
</svg>
