<svg width="157" height="157" viewBox="0 0 157 157" xmlns="http://www.w3.org/2000/svg" xmlns:xlink="http://www.w3.org/1999/xlink"><title>Slice</title><defs><path id="a" d="M0 156.787h157.35V.194H0z"/><path id="c" d="M0 156.787h157.35V.194H0z"/><path id="e" d="M0 156.787h157.35V.194H0z"/><path id="g" d="M0 156.787h157.35V.194H0z"/><path id="i" d="M0 156.787h157.35V.194H0z"/><path id="k" d="M0 156.787h157.35V.194H0z"/><path id="m" d="M0 156.787h157.35V.194H0z"/><path id="o" d="M0 156.787h157.35V.194H0z"/><path id="q" d="M0 156.787h157.35V.194H0z"/><path id="s" d="M0 156.787h157.35V.194H0z"/><path id="u" d="M0 156.787h157.35V.194H0z"/><path id="w" d="M0 156.787h157.35V.194H0z"/><path id="y" d="M0 156.787h157.35V.194H0z"/><path id="A" d="M0 156.787h157.35V.194H0z"/></defs><g fill="none" fill-rule="evenodd"><path d="M146.067 52.267c3.216 8.202 4.982 17.134 4.982 26.477 0 9.34-1.764 18.267-4.978 26.467M38.958 17.913c11.375-7.41 24.958-11.716 39.545-11.716 12.355 0 23.988 3.088 34.17 8.535M9.489 101.168a72.49 72.49 0 0 1-3.532-22.424 72.394 72.394 0 0 1 4.98-26.472m107.118 87.298c-11.376 7.413-24.96 11.72-39.552 11.72-14.584 0-28.164-4.304-39.538-11.711" stroke="#CBDFFC" stroke-width="2.301" stroke-linecap="round" stroke-linejoin="round"/><path fill="#F6AC47" fill-rule="nonzero" d="M21.797 52.278L5.519 31.055 21.797 9.831l16.278 21.224z"/><path stroke="#CBDFFC" stroke-width="2.1" d="M21.797 52.278L5.519 31.055 21.797 9.831l16.278 21.224z"/><g transform="translate(0 .253)"><mask id="b" fill="#fff"><use xlink:href="#a"/></mask><path fill="#6D81DA" fill-rule="nonzero" mask="url(#b)" d="M121.846 43.887h28.248V15.639h-28.248z"/></g><g transform="translate(0 .253)"><mask id="d" fill="#fff"><use xlink:href="#c"/></mask><path stroke="#CBDFFC" stroke-width="2.1" mask="url(#d)" d="M121.846 43.887h28.248V15.639h-28.248z"/></g><g transform="translate(0 .253)"><mask id="f" fill="#fff"><use xlink:href="#e"/></mask><path d="M38.968 125.017c.133 10.009-7.872 18.231-17.882 18.364-10.008.134-18.23-7.872-18.364-17.88-.133-10.01 7.873-18.231 17.882-18.366 10.009-.133 18.23 7.874 18.364 17.882" fill="#16CEC1" fill-rule="nonzero" mask="url(#f)"/></g><g transform="translate(0 .253)"><mask id="h" fill="#fff"><use xlink:href="#g"/></mask><path d="M38.968 125.017c.133 10.009-7.872 18.231-17.882 18.364-10.008.134-18.23-7.872-18.364-17.88-.133-10.01 7.873-18.231 17.882-18.366 10.009-.133 18.23 7.874 18.364 17.882z" stroke="#CBDFFC" stroke-width="2.1" stroke-linecap="round" stroke-linejoin="round" mask="url(#h)"/></g><g transform="translate(0 .253)"><mask id="j" fill="#fff"><use xlink:href="#i"/></mask><path fill="#12B5E8" fill-rule="nonzero" mask="url(#j)" d="M135.97 145.119l-19.86-19.86 19.86-19.86 19.86 19.86z"/></g><g transform="translate(0 .253)"><mask id="l" fill="#fff"><use xlink:href="#k"/></mask><path stroke="#CBDFFC" stroke-width="2.1" stroke-linecap="round" stroke-linejoin="round" mask="url(#l)" d="M135.97 145.119l-19.86-19.86 19.86-19.86 19.86 19.86z"/></g><g transform="translate(0 .253)"><mask id="n" fill="#fff"><use xlink:href="#m"/></mask><path fill="#0698FC" fill-rule="nonzero" mask="url(#n)" d="M50.748 62.482l27.964-16.146 27.966 16.146v32.291L78.712 110.92 50.748 94.773z"/></g><g transform="translate(0 .253)"><mask id="p" fill="#fff"><use xlink:href="#o"/></mask><path stroke="#CBDFFC" stroke-width="2.169" stroke-linecap="round" stroke-linejoin="round" mask="url(#p)" d="M50.748 62.482l27.964-16.146 27.966 16.146v32.291L78.712 110.92 50.748 94.773z"/></g><g transform="translate(0 .253)"><mask id="r" fill="#fff"><use xlink:href="#q"/></mask><g stroke-linecap="round" stroke-linejoin="round" mask="url(#r)" stroke="#0693FC" stroke-width="2.562"><path d="M78.713 38.264v-19.09m0 117.388v-19.089"/></g></g><g transform="translate(0 .253)"><mask id="t" fill="#fff"><use xlink:href="#s"/></mask><g stroke-linecap="round" stroke-linejoin="round" mask="url(#t)" stroke="#0693FC" stroke-width="2.562"><path d="M58.008 43.323l-4.558-7.897m49.006 84.884l-4.558-7.897"/></g></g><g transform="translate(0 .253)"><mask id="v" fill="#fff"><use xlink:href="#u"/></mask><g stroke-linecap="round" stroke-linejoin="round" mask="url(#v)" stroke="#0693FC" stroke-width="2.562"><path d="M43.408 57.923l-7.897-4.558m84.883 49.006l-7.897-4.558"/></g></g><g transform="translate(0 .253)"><mask id="x" fill="#fff"><use xlink:href="#w"/></mask><g stroke-linecap="round" stroke-linejoin="round" mask="url(#x)" stroke="#0693FC" stroke-width="2"><path d="M37.13 78.106H19.757m115.808 0h-18.819"/></g></g><g transform="translate(0 .253)"><mask id="z" fill="#fff"><use xlink:href="#y"/></mask><g stroke-linecap="round" stroke-linejoin="round" mask="url(#z)" stroke="#0693FC" stroke-width="2.562"><path d="M43.408 97.813l-7.897 4.558m84.883-49.006l-7.897 4.558"/></g></g><g transform="translate(0 .253)"><mask id="B" fill="#fff"><use xlink:href="#A"/></mask><g stroke-linecap="round" stroke-linejoin="round" mask="url(#B)" stroke="#0693FC" stroke-width="2.562"><path d="M58.008 112.413l-4.558 7.897m49.006-84.883l-4.558 7.896"/></g></g><path d="M83.273 151.29a4.56 4.56 0 1 1-9.12 0 4.56 4.56 0 0 1 9.12 0" fill="#DCF3FF" fill-rule="nonzero"/><path d="M83.273 151.29a4.56 4.56 0 1 1-9.12 0 4.56 4.56 0 0 1 9.12 0z" stroke="#CBDFFC" stroke-width="1.643"/><path d="M83.273 6.197a4.56 4.56 0 1 1-9.12 0 4.56 4.56 0 0 1 9.12 0" fill="#DCF3FF" fill-rule="nonzero"/><path d="M83.273 6.197a4.56 4.56 0 1 1-9.12 0 4.56 4.56 0 0 1 9.12 0z" stroke="#CBDFFC" stroke-width="1.643"/><path d="M155.61 78.156a4.56 4.56 0 1 1-9.12 0 4.56 4.56 0 0 1 9.12 0" fill="#DCF3FF" fill-rule="nonzero"/><path d="M155.61 78.156a4.56 4.56 0 1 1-9.12 0 4.56 4.56 0 0 1 9.12 0z" stroke="#CBDFFC" stroke-width="1.643"/><path d="M9.502 78.087a4.203 4.203 0 1 1-8.405.13 4.203 4.203 0 0 1 8.405-.131" fill="#DCF3FF" fill-rule="nonzero"/><path d="M9.502 78.087a4.203 4.203 0 1 1-8.405.13 4.203 4.203 0 0 1 8.405-.131v.001z" stroke="#CBDFFC" stroke-width="1.515"/><path d="M-30-15h218v188H-30z"/><path d="M60 85.513h3.4V73.001H60v12.512zm9.485-6.908h.616c.508 0 .91-.142 1.21-.427.3-.285.45-.68.45-1.183 0-.844-.468-1.265-1.404-1.265h-.872v2.875zm5.7-1.626c0 1.398-.413 2.478-1.237 3.24-.824.761-1.996 1.144-3.513 1.144h-.95v4.15h-3.381V73h4.33c1.581 0 2.768.345 3.56 1.036.794.69 1.19 1.671 1.19 2.943h.001zm1.993 8.533V73h3.382v9.782h4.818v2.731h-8.2zm17.314-6.402c0-1.146-.228-1.997-.68-2.55-.454-.553-1.143-.83-2.067-.83h-.984v7.01h.752c1.028 0 1.781-.298 2.26-.895.479-.596.718-1.507.718-2.735zM98 78.991c0 2.089-.574 3.698-1.724 4.828-1.149 1.128-2.765 1.693-4.848 1.693H87.38V73h4.33c2.008 0 3.56.514 4.652 1.54C97.455 75.567 98 77.05 98 78.99z" fill="#FFF" fill-rule="nonzero"/></g></svg>