<svg width="221" height="251" viewBox="0 0 221 251" xmlns="http://www.w3.org/2000/svg"><title>logotype_IPLD</title><g fill="none"><path d="M220.877 182.634V68.165c0-3.898-2.08-7.5-5.456-9.449L116.29 1.482a10.912 10.912 0 0 0-10.911 0L6.245 58.716a10.91 10.91 0 0 0-5.455 9.45v114.468c0 3.898 2.08 7.5 5.455 9.449l99.133 57.234a10.912 10.912 0 0 0 10.91 0l99.133-57.234a10.911 10.911 0 0 0 5.456-9.45z" fill="#1D74F2"/><g transform="translate(12.278 14.206)" fill="#FFF"><path d="M98.555 219.064L3.835 163.6V59.364l94.717-56.04.136.077 94.587 53.728V163.6l-.133.078-94.587 55.385zM4.374 163.292l94.18 55.148 94.182-55.148V57.442L98.558 3.946 4.374 59.67v103.62z"/><path d="M96.4 34.161h4.31v184.592H96.4z"/><circle cx="98.555" cy="34.519" r="6.785"/><path d="M96.493 84.604L75.779 71.52V46.416h4.31v22.729L98.795 80.96z"/><g transform="translate(97.762 100.69)"><path d="M2.445 69.98L.142 66.338l70.895-44.783v-9.8h4.31V23.93z"/><circle cx="73.192" cy="7.198" r="6.785"/></g><path d="M132.104 97.005h4.31v50.28h-4.31zM96.95 136.08l-52.476-28.844v-23h4.31v20.521l50.334 27.598z"/><circle cx="46.63" cy="82.325" r="6.785"/><circle cx="77.935" cy="51.522" r="6.785"/><g transform="translate(97.177 69.078)"><path d="M44.625 11.803v9.8L.387 49.547C.421 51.21.48 52.88.539 54.55l48.395-30.571V11.803h-4.31z"/><circle cx="46.78" cy="7.246" r="6.785"/></g><path d="M100.052 97.005l20.713-13.084V58.818h-4.31v22.728L97.75 93.362z"/><circle cx="118.61" cy="58.818" r="6.785"/><circle cx="76.901" cy="94.802" r="6.785"/><path d="M74.747 96.425h4.31v27.094h-4.31z"/><g transform="translate(19.318 107.714)"><path d="M78.068 63.522l2.303-3.643L9.476 21.22v-9.8h-4.31v12.175z"/><circle cx="7.321" cy="6.865" r="6.785"/></g><path d="M52.334 111.193h3.86v34.841h-3.86z"/><circle cx="98.555" cy="218.043" r="3.784"/><g transform="translate(0 56.199)"><circle cx="3.835" cy="107.402" r="3.784"/><circle cx="3.835" cy="4.212" r="3.784"/></g><g transform="translate(189.085 56.199)"><circle cx="4.19" cy="107.16" r="3.784"/><circle cx="4.19" cy="3.971" r="3.784"/></g><circle cx="98.552" cy="4.344" r="3.784"/></g></g></svg>