<svg width="664" height="460" viewBox="0 0 664 460" xmlns="http://www.w3.org/2000/svg" xmlns:xlink="http://www.w3.org/1999/xlink"><title>Logos</title><defs><path id="a" d="M0 66.335V.328h67.306v66.007z"/></defs><g fill="none" fill-rule="evenodd"><g fill-rule="nonzero"><path d="M440.877 286.634V172.165c0-3.898-2.08-7.5-5.456-9.449l-99.132-57.234a10.912 10.912 0 0 0-10.911 0l-99.133 57.234a10.91 10.91 0 0 0-5.455 9.45v114.468c0 3.898 2.08 7.5 5.455 9.449l99.133 57.234a10.912 10.912 0 0 0 10.91 0l99.133-57.234a10.911 10.911 0 0 0 5.456-9.45z" fill="#1D74F2"/><g transform="translate(232.278 118.206)" fill="#FFF"><path d="M98.555 219.064L3.835 163.6V59.364l94.717-56.04.136.077 94.587 53.728V163.6l-.133.078-94.587 55.385zM4.374 163.292l94.18 55.148 94.182-55.148V57.442L98.558 3.946 4.374 59.67v103.62z"/><path d="M96.4 34.161h4.31v184.592H96.4z"/><circle cx="98.555" cy="34.519" r="6.785"/><path d="M96.493 84.604L75.779 71.52V46.416h4.31v22.729L98.795 80.96z"/><g transform="translate(97.762 100.69)"><path d="M2.445 69.98L.142 66.338l70.895-44.783v-9.8h4.31V23.93z"/><circle cx="73.192" cy="7.198" r="6.785"/></g><path d="M132.104 97.005h4.31v50.28h-4.31zM96.95 136.08l-52.476-28.844v-23h4.31v20.521l50.334 27.598z"/><circle cx="46.63" cy="82.325" r="6.785"/><circle cx="77.935" cy="51.522" r="6.785"/><g transform="translate(97.177 69.078)"><path d="M44.625 11.803v9.8L.387 49.547C.421 51.21.48 52.88.539 54.55l48.395-30.571V11.803h-4.31z"/><circle cx="46.78" cy="7.246" r="6.785"/></g><path d="M100.052 97.005l20.713-13.084V58.818h-4.31v22.728L97.75 93.362z"/><circle cx="118.61" cy="58.818" r="6.785"/><circle cx="76.901" cy="94.802" r="6.785"/><path d="M74.747 96.425h4.31v27.094h-4.31z"/><g transform="translate(19.318 107.714)"><path d="M78.068 63.522l2.303-3.643L9.476 21.22v-9.8h-4.31v12.175z"/><circle cx="7.321" cy="6.865" r="6.785"/></g><path d="M52.334 111.193h3.86v34.841h-3.86z"/><circle cx="98.555" cy="218.043" r="3.784"/><g transform="translate(0 56.199)"><circle cx="3.835" cy="107.402" r="3.784"/><circle cx="3.835" cy="4.212" r="3.784"/></g><g transform="translate(189.085 56.199)"><circle cx="4.19" cy="107.16" r="3.784"/><circle cx="4.19" cy="3.971" r="3.784"/></g><circle cx="98.552" cy="4.344" r="3.784"/></g></g><path d="M142 117.973V45.277a6.927 6.927 0 0 0-3.47-6L75.47 2.927a6.95 6.95 0 0 0-6.94 0L5.47 39.276A6.926 6.926 0 0 0 2 45.277v72.696a6.927 6.927 0 0 0 3.47 6l63.06 36.349a6.95 6.95 0 0 0 6.94 0l63.06-36.348a6.927 6.927 0 0 0 3.47-6.001" stroke="#A5BCE7" stroke-width="4" fill="#FFF"/><g fill-rule="nonzero"><path fill="#343434" d="M71.968 38.44l-.575 1.955v56.718l.575.574 26.328-15.562z"/><path fill="#8C8C8C" d="M71.968 38.44L45.64 82.125l26.328 15.563v-27.53z"/><path fill="#3C3C3B" d="M71.968 102.672l-.324.395v20.205l.324.947 26.344-37.101z"/><path fill="#8C8C8C" d="M71.968 124.218v-21.546L45.64 87.117z"/><path fill="#141414" d="M71.968 97.687l26.328-15.562-26.328-11.967z"/><path fill="#393939" d="M45.64 82.125l26.328 15.562V70.158z"/></g><path d="M662 413.973v-72.696a6.927 6.927 0 0 0-3.47-6l-63.06-36.349a6.95 6.95 0 0 0-6.94 0l-63.06 36.348a6.926 6.926 0 0 0-3.47 6.001v72.696a6.927 6.927 0 0 0 3.47 6l63.06 36.349a6.95 6.95 0 0 0 6.94 0l63.06-36.348a6.927 6.927 0 0 0 3.47-6.001" stroke="#A5BCE7" stroke-width="4" fill="#FFF"/><g fill-rule="nonzero"><path fill="#4A9EA1" d="M560.184 395.22l31.439 18.152 31.438-18.151v-36.303l-31.438-18.15-31.439 18.152z"/><path d="M588.377 345.14l-22.794 13.16c.046.405.046.814 0 1.219l22.796 13.16a5.445 5.445 0 0 1 6.466 0l22.795-13.16a5.437 5.437 0 0 1 0-1.218l-22.794-13.16a5.446 5.446 0 0 1-6.466 0h-.003zm31.452 18.014l-22.82 13.307a5.445 5.445 0 0 1-3.233 5.6l.026 26.175c.373.163.727.367 1.055.609l22.795-13.16a5.446 5.446 0 0 1 3.233-5.6v-26.322a5.445 5.445 0 0 1-1.055-.609h-.001zm-56.412.146a5.443 5.443 0 0 1-1.055.61v26.32a5.445 5.445 0 0 1 3.233 5.6l22.794 13.16a5.445 5.445 0 0 1 1.055-.609v-26.32a5.445 5.445 0 0 1-3.233-5.6L563.417 363.3z" fill="#63D3D7"/><g fill="#000"><path fill-opacity=".251" d="M591.623 413.372l31.439-18.151v-36.303l-31.439 18.151z"/><path fill-opacity=".039" d="M591.623 413.372V377.07l-31.439-18.15v36.302z"/><path fill-opacity=".13" d="M560.184 358.918l31.439 18.151 31.438-18.15-31.438-18.152z"/></g><path d="M569.94 367.143h-4.142v20.023h4.141zm7.214 20.023v-7.345c1.021.085 2.042.085 2.893.085 5.9 0 7.601-2.922 7.601-6.524 0-4.367-3.12-6.24-7.941-6.24h-6.693v20.024h4.14zm2.241-10.182c-.766 0-1.9 0-2.24-.028v-6.807h2.58c2.496 0 3.914 1.191 3.914 3.375v.057c0 1.702-.624 3.403-4.254 3.403zm22.431-9.841h-12.564v20.023h4.14v-8.82h7.857v-3.007h-7.885v-5.161h8.168zm13.551 3.914l1.078-2.78c-1.617-1.162-3.8-1.588-6.552-1.588-3.999 0-7.289 1.872-7.289 5.7 0 3.433 2.525 4.794 5.049 5.616l2.524.851c1.73.596 3.148 1.163 3.148 3.035 0 1.702-1.475 2.382-3.715 2.382-2.27 0-4.708-.68-6.098-1.56l-1.078 3.007c1.815 1.162 4.113 1.73 7.204 1.73 4.396 0 7.8-1.929 7.8-6.041 0-3.83-2.922-5.049-5.871-6.041l-2.751-.908c-1.192-.397-2.1-.936-2.1-2.467 0-1.56 1.277-2.184 3.177-2.184 2.326 0 4.141.425 5.474 1.248z" fill="#FFF"/></g><path d="M142 413.973v-72.696a6.927 6.927 0 0 0-3.47-6l-63.06-36.349a6.95 6.95 0 0 0-6.94 0L5.47 335.276A6.926 6.926 0 0 0 2 341.277v72.696a6.927 6.927 0 0 0 3.47 6l63.06 36.349a6.95 6.95 0 0 0 6.94 0l63.06-36.348a6.927 6.927 0 0 0 3.47-6.001" stroke="#A5BCE7" stroke-width="4" fill="#FFF"/><g transform="translate(38 343.626)"><mask id="b" fill="#fff"><use xlink:href="#a"/></mask><path d="M66.3 41.316c-4.497 17.681-22.759 28.44-40.79 24.031-18.027-4.408-29-22.316-24.502-39.996C5.501 7.67 23.764-3.092 41.79 1.315c18.033 4.409 29.004 22.32 24.51 40" fill="#F8931A" mask="url(#b)"/></g><path d="M79.192 372.19c-1.04 4.092-7.468 2.013-9.552 1.503l1.839-7.23c2.083.51 8.797 1.46 7.713 5.728m-1.142 11.667c-1.14 4.497-8.863 2.066-11.366 1.457l2.029-7.973c2.503.614 10.53 1.827 9.337 6.516m8.438-11.602c.669-4.39-2.74-6.752-7.404-8.328l1.514-5.947-3.694-.903-1.472 5.792c-.97-.238-1.967-.46-2.96-.683l1.484-5.83-3.69-.903-1.514 5.947c-.804-.18-1.593-.357-2.358-.543l.005-.02-5.093-1.246-.983 3.867s2.74.617 2.682.654c1.495.366 1.767 1.338 1.721 2.106l-1.723 6.777c.104.027.237.064.384.12l-.39-.093-2.415 9.493c-.183.446-.648 1.114-1.693.86.037.053-2.683-.656-2.683-.656l-1.834 4.145 4.806 1.174c.893.22 1.77.45 2.633.667l-1.53 6.017 3.69.902 1.514-5.953c1.007.267 1.984.516 2.943.749l-1.509 5.924 3.693.902 1.528-6.004c6.296 1.168 11.031.697 13.026-4.888 1.606-4.497-.081-7.09-3.393-8.782 2.412-.546 4.23-2.102 4.715-5.317" fill="#FFF"/><path d="M662 117.973V45.277a6.927 6.927 0 0 0-3.47-6l-63.06-36.35a6.95 6.95 0 0 0-6.94 0l-63.06 36.348a6.926 6.926 0 0 0-3.47 6.001v72.696a6.927 6.927 0 0 0 3.47 6l63.06 36.349a6.95 6.95 0 0 0 6.94 0l63.06-36.348a6.927 6.927 0 0 0 3.47-6.001" stroke="#A5BCE7" stroke-width="4" fill="#FFF"/><path d="M625.218 78.55l-30.144-30.143a4.447 4.447 0 0 0-6.288 0l-6.26 6.26 7.94 7.94a5.28 5.28 0 0 1 6.687 6.732l7.654 7.653a5.28 5.28 0 0 1 5.466 1.255 5.29 5.29 0 0 1 0 7.482 5.29 5.29 0 0 1-8.635-5.754l-7.138-7.137V91.62c.503.25.979.581 1.4 1a5.292 5.292 0 0 1-7.483 7.483 5.292 5.292 0 0 1 1.733-8.637V72.509a5.29 5.29 0 0 1-2.872-6.938l-7.827-7.828-20.67 20.668a4.45 4.45 0 0 0 0 6.29l30.145 30.143a4.448 4.448 0 0 0 6.289 0l30.003-30.004a4.447 4.447 0 0 0 0-6.29" fill="#F05033"/></g></svg>